<?xml version="1.0" encoding="UTF-8"?>
<svg version="1.1" viewBox="0 0 2048 1146" width="300" height="168" xmlns="http://www.w3.org/2000/svg">
<path transform="translate(0)" d="m0 0h2048v1146h-2048z" fill="#FDFCFC"/>
<path transform="translate(728,350)" d="m0 0h19l14 4 8 4 18 6 7 6v2l22 2 4 5 2 1v2h3v2l4 2 7 7 10 15 4 8 6 16 4 14v13l-33 1-3 2h-9l-1-3-5-2-6-3 1-10 3-16 1-10v-15l-1-3-1 16-6 22-3 8-3 7-1 5h6l-3 2-4 1-1-1-2 10-4 8-9 11-4 7h6l6-9 2-5 5-5 6-7 9-5 5-1 9 2 9 3 21 6 21 10 13 10 8 10 6 10 5 11 5 17 7 32 6 32 5 20 6 18 5 13 9 17 7 15 5 13 3 9 2 13 1 17v54l-5 62-3 24-2 4h-146l-17-1-7-3-38-3h-6l-1 1h-9l-19-5-15-4-32-8 1-9 2-19-10-1h-18l-9 2-6 1v2l-14 7-10 2-6 3-23 7-40 10h-11l-1-6-3-2-7-1-12 2-17 5-12 3-15 2-20 4-19 3-72-1-28-2-26-3-24-6-18-8-11-7-14-10-11-10-7-8-10-13-9-14v-2h-2l-3-9h-2l-4-10-10-23-12-36-2-4-5-22-1-10h70l5 1 2-10 4-11 5-41 4-6 13-13 10-7 5 1 1 1v53l-1 45 12 4 5 3 9 3 7 1 3-8 7-23 3-7 4-10 6-9 1-5-3-64v-48l4-8 12-14 13-17 9-10 11-14 10-12 5-3h10l8 3 3 2 4 31 2 14 1 14 3 17 3 28 4 26 9 74 2 21 4 27 3 35v8h2l1 5 24 8 16 5 7 3 17 6 5 2 6-1 7-2 33-6 13-1 2-7 6 1 9 1 9-3 7-6 7-14 5-22 4-19 6-15 4-7 3-11 10-10 7-4h2l-1-4h-16l-11-4-7-5-6-10-4-14-2-18v-13l1-13 1-7-4-8-5-9v-13l3-6 7-6 15-5 12-2h20l18 3 16 5 16 8 9 7 6 9 1 10-4 3-3 1-1 2-2 17-6 16-7 12-9 10-2 4 1 4 3 5 2 1v2l5 2 9 5 6 4 18 8 11 7 10 8 8 8 3 4 3 8 4 10 2 9 25-1 4-3-1-10-6-13-8-16-8-12-5-4-5-19-5-32-6-47v-33l3-12 8-16-14 2-11-1-15-4-5-3-7-4-3-6-1-3h-3v-8l-1-4-6-1-3-5 1-4 1-2h2l-4-6-3-2-3-7-10-5-3-5-2-9v-23l2-7 5-9 8-9h2v-2l18-10z" fill="#B27854"/>
<path transform="translate(372,299)" d="m0 0h20l33 1 32 2 22 3 6 6 1-8h1l3 63 1 12 1 38 1 10-14 10-3 1v2l-5 5-8 14-2 6v8l4 9 4 8 7 8 10 14 9 9 4 5v3l-7 4h-2l-2 4-8 13-7 19-11 35-7 24-10 14-7 9-10 20-2-1-11-89-3-19-4-36-2-9-2-23-3-21-2-15-6-3-4-1h-10l-7 5-8 10-13 16-10 12-11 14-10 12-4 8v48l3 68-6 8-4 8-3 10-3 8-7 23-2 2-7-1-9-3-5-3-12-4-1-1 1-45v-53l-5-1-12 9-12 12-2 4-5 41-5 13-2 8-75-1-2-5-3-23-2-35v-51l3-36 4-29 5-22 6-15 11-21 12-19 16-22h2l2-4 9-11h2l2-4 11-12 8-7 14-12 9-7 19-13 7-5 11-6 21-11 21-8 17-2z" fill="#FAEFEA"/>
<path transform="translate(800,309)" d="m0 0h46l11 3 16 8 16 12 14 12 3 2v2l4 2 10 11 7 9 4 4v2h2l1 4h2l4 6 13 19 11 16 3 4v2h2l10 17v12l2 3v5h2v-10h1l5 18 9 24 5 22 6 29 2 31v51l-1 4v13l-3 23-6 25-2 10-2 5-3 14-2 6-6 15-8 15-5 7-4-1-2-6v-6h-2v21h-1l-1-32-2-25-2-10-4-10-7-16-10-19-9-22-5-18-5-19-8-43-5-22-6-17-7-13-7-9-4-5-13-9-19-9-29-8-1-1-10-2-10 4-3 1-2 4-7 8h-2l-2 7-6 8-6-1 2-5 6-8 7-10 2-6 2-9 1 3 4-2-3-1 1-7 4-12 3-8 4-15 1-17 2 1 1 3v15l-2 15-3 16v5l10 5 1 2h9l3-2h33l-1-13-6-20-5-13-10-16-11-12-2-1v-2h-3v-2l-3-1-3-4-15-1-7-2-4-5-8-4-16-5-7-4-12-3h-19l-20 5-15 8-3 1v2l-6 5-5 7-4 8-1 5v23l3 12 7 4 5 3 3 7 5 5 1 3h-2l-1 6 2 5 6 1 2 4-1 8h3l4 6 1 3 6 3 5 3 15 4 11 1 14-1-1 5-7 14-2 9v33l8 62 5 26 3 10 6 5 12 20 5 11 5 13v6l-5 4h-25l-4-11-3-8-4-9-9-10-10-8-13-8-16-7-11-7-9-5v-2l-3-1-3-5-1-4 4-6 8-9 8-15 4-12 2-17 2-3 6-3-1-10-5-7v-2l-4-2-8-6-18-8-15-4-14-2h-20l-16 3-12 5-5 2 1-5-6-2-36-18-3-5-2-6v-8l-1-3 3-3v-8l-1-4v-8h-2v-10l30 2 3-27h1l1 5 3-11 1-8v-21l3-18 3-28 3-5 9-2 40-2 41-2 21-2 31-7 17-6 28-6z" fill="#FBF0EB"/>
<path transform="translate(592,282)" d="m0 0h5l-2 23-4 44-8 84-2 16-1 2h-20l-9-1-1 9h2l2 12v8l-3 4 1 4 1 9 3 7 16 8 23 11 3 2v6l-3 4-1 3v13l5 9 4 8-1 7-1 21 1 13 2 15 5 13 5 7 10 5 6 2h16l1 5-10 6-8 8-3 11-8 16-5 19-5 25-6 14-8 9-6 3-11 1-9-3-1 7-1 1-18 2-34 6-4 2-6-1-15-6-10-3-7-3-10-3-24-8-1-1v-5h-2l-5-50-4-27v-6l4-4 4-10 8-12 8-10 5-9 8-27 12-38 6-14 9-13 6-4h3l-3-5-9-10-6-7-10-14-5-6-6-14v-8l5-12 7-11 4-2v-2l14-10 2-2-1-9-1-38-1-12-3-63v-12l28-3 39-3 20-2z" fill="#D3D1D3"/>
<path transform="translate(379,452)" d="m0 0h10l8 3 3 2 4 31 2 14 1 14 3 17 3 28 4 26 9 74 2 21 4 27 3 35 2 14 2 24v14l-4 8-6 3 10 6-3 1-21-11-12-8-16-12-21-16-13-10-13-11-6-9-5-22-4-18-2-15-1-5-2-1-2 9-3 8-3 13-6 21-11 46-5 29-1 15 1 1h8l48-7 38-7 1-1 10-1 15 10 14 9 5 3v2l-20 4-52 9-4 1h-9v2l-16 3-2 1 12-1h13l9 4 8 7 10 7 8 7-2 2-13 2-4 2h-35l-18-1-26-3-24-6-18-8-11-7-14-10-11-10-7-8-10-13-9-14v-2h-2l-3-9h-2l-4-10-10-23-12-36-2-4-5-22-1-10h70l5 1 2-10 4-11 5-41 4-6 13-13 10-7 5 1 1 1v53l-1 45 12 4 5 3 9 3 7 1 3-8 7-23 3-7 4-10 6-9 1-5-3-64v-48l4-8 12-14 13-17 9-10 11-14 10-12z" fill="#825234"/>
<path transform="translate(630,518)" d="m0 0h20l18 3 16 5 16 8 9 7 6 9 1 10-4 3-3 1-1 2-2 17-6 16-7 12-9 10-2 4 1 4 3 5 2 1v2l5 2-2 1-4 1-16 15-7 8-6 7-4 6 1 7 5 6v7l-7 15-1 3v26l4 20 4 16 2 7 3 12v3h2v3l22 4 2 9v9l-4 13-2 2h-9l-8-2-1 2v-4l-10-1h-18l-9 2-6 1v2l-14 7-10 2-6 3-23 7-40 10h-11l-1-6-3-2-7-1-12 2-17 5-12 3-15 2-20 4-19 3-72-1v-1l25-1 7-3 10-1v-2l-6-5-10-7-9-8-8-3h-13l-6 1h-8l4-3 10-2h6v-2l19-3 63-11h3v-2l-5-2-14-9-15-10-10 1-1 1-28 5-36 6-22 3h-8l-2-2 2-22 6-31 11-44 4-14 5-19 4-11 3 1 2 9 2 16 5 21 3 14 6 9 14 12 20 15 21 16 10 7 13 8 17 9h2l-11-6 3-2 5-1 1-4 2-4v-14l-2-24v-6h1l1 5 24 8 16 5 7 3 17 6 5 2 6-1 7-2 33-6 13-1 2-7 6 1 9 1 9-3 7-6 7-14 5-22 4-19 6-15 4-7 3-11 10-10 7-4h2l-1-4h-16l-11-4-7-5-6-10-4-14-2-18v-13l1-13 1-7-4-8-5-9v-13l3-6 7-6 15-5z" fill="#F69474"/>
<path transform="translate(821,469)" d="m0 0h8l21 6 21 10 13 10 8 10 6 10 5 11 5 17 7 32 6 32 5 20 6 18 5 13 9 17 7 15 5 13 3 9 2 13 1 17v54l-5 62-3 24-2 4h-72l-1-27-1-7-7 1-23 2-3-13-1-9 1-1 21-3 9-1 1-10 6-44 7-40 2-13-16-2 1-7 3-14 6-24 2-11 8-86v-32l-1-14-4-15-7-12-9-9-8-6-9-3-9 1-8 6-7 11-4 10-3 15-2 17v76l-2 24v50l-2 7-1 9-5-1-3-2-2-9-3-16v-11l-4-13-6-11-7-9-10-14-9-14-9-16-3-4-3-15v-15l1-13v-22l3-16 3-6h1l2 13 7 21 2-5 2-18 7-9h7l9 6 5 3 1 4 4 1 3-15 4-15z" fill="#825234"/>
<path transform="translate(379,452)" d="m0 0h10l8 3 3 2 4 31 2 14 1 14 3 17 3 28 4 26 9 74 2 21 4 27 3 35 2 14 2 24v14l-4 8-6 3 10 6-3 1-21-11-12-8-16-12-21-16-13-10-13-11-6-9-5-22-4-18-2-15-1-8v-11l3-9-1-1v-5h-2l-1-2-3-4-3-64v-48l4-8 12-14 13-17 9-10 11-14 10-12z" fill="#2E2440"/>
<path transform="translate(688,639)" d="m0 0 8 1 8 6 24 11 10 7 9 7 8 8 3 4 3 8 4 10 3 11 4 30 1 19v49l-4 16-4 13-7 10-5 6h-2l-2 4-1 1-1 10-5 8-3 2h-9l-19-5-15-4-32-8 1-9 2-15 1-2 8 1h9l4-10 1-4v-9l-1-9-12-1-10-3v-3h-2l-5-21-2-5-6-26-1-6v-26l5-12 3-6v-7l-5-6-1-7 7-10 9-9 7-8z" fill="#2E243F"/>
<path transform="translate(320,676)" d="m0 0 3 1 2 9 2 16 5 21 3 14 6 9 14 12 20 15 21 16 10 7 13 8 17 9h2l-11-6 3-2 5-1 1-4 8-6 27-8 4-1h8l5 2 12 1 2 6h-2l4 4 10 2 12 1 4 3-1 2 7 1 8 2v4l5 2 14 11 5 5 8 9 10 4 7-1 10 3-4 3-24 8-44 11h-11l-1-6-3-2-7-1-12 2-17 5-12 3-15 2-20 4-19 3-72-1v-1l25-1 7-3 10-1v-2l-6-5-10-7-9-8-8-3h-13l-6 1h-8l4-3 10-2h6v-2l19-3 63-11h3v-2l-5-2-14-9-15-10-10 1-1 1-28 5-36 6-22 3h-8l-2-2 2-22 6-31 11-44 4-14 5-19z" fill="#B17754"/>
<path transform="translate(767,710)" d="m0 0h25l18 2 5 2 8 1 4 3v4l6 1 7 2 22 4h6l4-11 3-1 7 2 12 1-8 50-4 24-3 24-2 10-21 4-9 1 1 9 2 13 2-1 21-2 7-1 1 1 1 7v27h-74l-17-1-7-3-38-3-4-1 4-8 1-10 4-5h2l2-4 6-7 3-5 7-23 1-6v-49l-1-19-4-30z" fill="#F79474"/>
<path transform="translate(592,282)" d="m0 0h5l-2 23-4 44-8 84-2 16-1 2h-20l-9-1v19h1v11l-5-5-7-9-11-9-5-5-1-4-6 9-14 11-18 11-5 6-6 9-6-5-7-14-1-3v-8l5-12 7-11 4-2v-2l14-10 2-2-1-9-1-38-1-12-3-63v-12l28-3 39-3 20-2z" fill="#C18466"/>
<path transform="translate(482,320)" d="m0 0 1 4 1 6-1 18-4 8-2 8-3 28v12l-3 12-10 14-6 5-5 9-3 13 6-16 10-11h3l5 1 1 2 3-3v-3h-2l2-11 1-9 4-30 3-18 1-12 1-7 2-4 2 5 1 25 1 12 1 38 1 10-14 10-3 1v2l-5 5-8 14-2 6v8l4 9 4 8 7 8 10 14 9 9 4 5v3l-7 4h-2l-2 4-8 13-7 19-11 35-7 24-10 14-7 9-10 20-2-1-11-89-3-19-4-36-2-9-2-23-3-21-2-15-6-3-4-1h-10l-7 5-8 10-13 16-10 12-11 14-10 12-4 8v48l3 68-6 8-4 8-3 10-3 8-7 23-2 2-7-1-9-3-5-3-12-4-1-1v-12l1-12 2-3 5 12 2 6 5 3 2-1 10 1h3l6-7 5-9 5-16 2-13-1-13v-79l1-14 3-10 6-10 7-8 14-20 7-9 5-5h2l2-5 6-5 4-6h2v-2l9-5 12-3 9 2-5-2h-11l-8 2-13 6-7 5-9 11-1-3 8-10 9-9 8-5 3-2 2-2 5-2h12l5 3v2h2l3 8 9-1 34 10v-42l2-1v2l7-4h2v-2l2-2 2-3v4h4l1-5 2-7-1-5 2-4h2v-2l4-2-1-1-2 1 1-5 2-6 2-14 2-1-1-5 2-6v-6h2v-2l-2-1 2-4h2l1-15z" fill="#FBF0EB"/>
<path transform="translate(256,593)" d="m0 0 5 1 1 1v53l-1 45 12 4 5 3 9 3 7 1 3-8 7-23 3-7 4-10 6-9 3-4 1 2 2 1-1 2h2l2 7-3 8v14l-3-1-2 9-3 8-3 13-6 21-11 46-5 29-1 16-2 5v13l3 7 5 2h15v1l-7 1h-17l-9-1-5-4-4-8-2 1-5-5-6-9-7-17-4-15v-5l6-4 8-3 2-1-1-5-7-8-14-11-10-8-15-10-2-4 4-2h7l7-2 21-4 3-5-5-1-14 1-16 3h-2l-1-4 2-30-4 16-1 16-1 5-9-3-9-6-5-1h-27l-6 1 1 5 2 6-1 4-5-13-3-4-5-22-1-10h70l5 1 2-10 4-11 5-41 4-6 13-13z" fill="#B07754"/>
<path transform="translate(951,705)" d="m0 0h6l2 2h1l3 18 1 17v54l-5 62-3 24-2 4h-72l-1-27-1-7-7 1-23 2-3-13-1-9 1-1 21-3 9-1 1-10 6-44 7-40 2-13 3-2 25-5z" fill="#564E6B"/>
<path transform="translate(647,654)" d="m0 0 5 1 1 4 2-1-2 4-11 11-3 6-4 20-1 7v41l1 53h22l9 1 1-2v3l22 4 2 9v9l-4 13-2 2h-9l-8-2-1 2v-4l-10-1h-18l-9 2-6 1v2l-14 7-7 1-10-3-7 1-10-4-17-17-10-8-5-3v-4l-13-1-3-3 1-1-5-2-17-2-6-3v-4l-1-5h-12l-5-2h-8l-25 7-9 4-3 2v-17l-2-24v-6h1l1 5 24 8 16 5 7 3 17 6 5 2 6-1 7-2 33-6 13-1 2-7 6 1 9 1 9-3 7-6 7-14 5-22 4-19 6-15 4-7 3-11 10-10z" fill="#F69575"/>
<path transform="translate(728,350)" d="m0 0h19l14 4 8 4 18 6 7 6v2l22 2 4 5 2 1v2h3v2l4 2 7 7 10 15 4 8 6 16 4 14v13l-33 1-3 2h-9l-1-3-5-2-6-3 1-10 3-16 1-10v-15l-1-3-1 16-3 9-4-1-5-2-1-2-4-1h-7l-10 3h-7l-10-10-3-7-4-15h-1l-1 15-3 4-7 2-14 7-19 7-16 6h-6l-5-4-3-12v-23l2-7 5-9 8-9h2v-2l18-10z" fill="#491C1F"/>
<path transform="translate(688,639)" d="m0 0 8 1 8 6 24 11-1 2 8 5-3 7h-2l-2 4-10 12-5 8-4 14v34l2 20 4 20 2 9-1 9-9 2-19 1v2l-16-2-5-2v-3h-2l-5-21-2-5-6-26-1-6v-26l5-12 3-6v-7l-5-6-1-7 7-10 9-9 7-8z" fill="#554E6B"/>
<path transform="translate(592,282)" d="m0 0h5l-2 23-4 44-8 84-2 16-1 2h-20l-9-1v19h1v11l-5-5-7-9-11-9-5-5-1-4-6 9-14 11-18 11-5 6-6 9-6-5-7-14-1-3v-8l5-12 7-11 4-2v-2l14-10h4v-2h31l13 2 4 2 19 3 2-22 2-21 1-4 1-15h-6l-1-4-1-8v-4l3-8 6-4 3-15 1-7v-12l-4-1h-16l-7-1-3-2 1-4 2-5-1-4-7-1-6-1 4-2 38-4z" fill="#B27956"/>
<path transform="translate(379,452)" d="m0 0h10l8 3 3 2 4 31 2 14 1 14 3 17 3 28 4 26 9 74 2 21 4 27 3 35 2 14 2 24v14l-4 8-6 3 10 6-3 1-11-6v-2l-3-1-4-21-5-36-7-57-11-82-6-46-8-60-5-35-2-9-3 1 2-4z" fill="#574F6A"/>
<path transform="translate(523,447)" d="m0 0h1l2 7 9 7 9 8 7 10v-9l-1-3 1-8h1l2 12v8l-3 4 1 4 1 9 5 14 1 8v12l-2 22-3 14-6 37-1 11-4 8h-2l-2 5-3 1-4-9-12-48-5-18-2-7h-2l-3-8-11-14-11-12-7-9-6-9 6-9 7-8 14-8 12-9 3-3h2l2-4z" fill="#F69474"/>
<path transform="translate(767,710)" d="m0 0h25l18 2 5 2 8 1 4 3-1 9-12 68-6 25-9 25-3 6h-2l-2 5-5 10-2 16-39-3-4-1 4-8 1-10 4-5h2l2-4 6-7 3-5 7-23 1-6v-49l-1-19-4-30z" fill="#BDABA4"/>
<path transform="translate(603,691)" d="m0 0h9l3 2v13l-7 34-6 14-8 9-6 3-11 1-9-3-1 7-1 1-18 2-34 6-2 1-5-39-4-39v-5l16 2 3 2 8 1h29l30-8z" fill="#BCABA4"/>
<path transform="translate(492,628)" d="m0 0 2 1 9 69 3 24 4 36 2 15v8l-5 1-14-5-10-4-11-4-10-3-24-8-2-6-2-20-1-21h6l2-4 7-12 27-41 8-16-2-1 7-2 3-3z" fill="#FAEFEA"/>
<path transform="translate(475,785)" d="m0 0h8l5 2 12 1 2 6h-2l4 4 10 2 12 1 4 3-1 2 7 1 8 2v4l5 2 14 11 5 5 8 9 10 4 7-1 10 3-4 3-24 8-44 11h-11l-1-6-3-2-11-1 1-2-11-6-16-11-17-12-21-13-14-8 3-2 5-1 1-4 8-6 27-8z" fill="#BCABA4"/>
<path transform="translate(747,389)" d="m0 0 2 1 5 19 3 5 6 5v2h9l10-3h7l5 2v4l3 1-1 6-6 12-2 2v6l3 2-3 10-3 7-8 10-11 12-3 5-1-2 1-3-14 2-11-1-15-4-5-3-7-4-3-6-1-3h-3v-8l-1-4-6-1-3-5 1-4 1-2h2l-4-6-3-2-3-7-4-3 17-6 18-7 16-7 3-2 6-2 1-2 1-15z" fill="#F69475"/>
<path transform="translate(1124,469)" d="m0 0h27l2 5 5 36 3 13 3 18 5-30 5-37 2-5h27l2 19 4 59 1 29h-20l-2-34-2-46-1-2-3 21-2 15-3 13-3 22-18-1-3-1-4-20-3-16-2-18-3-13v-3h-2l1 4v34l-2 34v11h-21l1-23 2-26 3-51z" fill="#0A0708"/>
<path transform="translate(643,506)" d="m0 0h16l12 3 12 7 10 4 12 2 9 4 8 7 3 5 1 5v10l-1 12-1 3-1 16-4 16-2 23v2l6 1 5-3 5 1 10 11 4 5 8 7 9 8 9-1 7 10 9 16 4 9 4 11v6l-5 4h-25l-4-11-3-8-4-9-9-10-10-8-13-8-16-7-11-7-9-5v-2l-3-1-3-5-1-4 4-6 8-9 8-15 4-12 2-17 2-3 6-3-1-10-5-7v-2l-4-2-8-6-18-8-15-4-14-2h-20l-16 3-8 3-5-1 1-4 13-7 9-4z" fill="#FEF6ED"/>
<path transform="translate(630,518)" d="m0 0h20l18 3 16 5 16 8 9 7 6 9 1 10-4 3-3 1-1 2-2 17-6 16-7 12-9 10-3 1-5-4v-3l6-2 5-2 1-2v-15l-4-5-7-1-4 2-4-1-3-14-3-4-8-4-7 1-3 2-5-1-12-4-4-2h-8v2l7 2v2l-7 1-5-3-10-2-3-6-5-9v-13l3-6 7-6 15-5z" fill="#2E2C30"/>
<path transform="translate(1358,292)" d="m0 0h19l3 1v115l-5 1h-11l-3-6v-2l-5 2-4 6-8 2-11-1-6-4-6-8-4-9-2-11v-21l2-12 6-11 4-5 8-5h12l11 5z" fill="#0A0708"/>
<path transform="translate(1580,659)" d="m0 0h13l5 3 6 7 6 15 1 6v23l-3 11-5 12-6 7-8 3-14-1-9-5 1 13v20l-2 4h-18l-1-1v-114l1-1h15l4 6 4-1 8-6z" fill="#0A0708"/>
<path transform="translate(1410,652)" d="m0 0 5 1 2 4v10l-1 1-12 1 4 7 3 4 1 3v15l-5 10-6 6-7 3h-22l2 11h23l8 2 6 4 6 12 1 8-3 9-5 6-15 7-8 2h-11l-16-4-6-4-4-10v-7l1-1h15l2 7 1 2 5 1h16l4-2 2-4-1-9-3-2-23-2-6-4-6-7-1-2v-8l2-5 4-5-5-5-5-11v-16l5-10 6-7 7-3 27-3z" fill="#0A0708"/>
<path transform="translate(1716,484)" d="m0 0h4l3 8-1 6-7 1h-5l2 6 5 12 1 9-3 9-4 6-5 4-7 4-5 1h-14v10h19l9 2 7 4 6 8 2 8-1 8-4 8-7 7-13 4h-24l-10-3-5-5-5-10v-6h16l4 4 2 5 1 1h15l7-2 1-4v-12l-4-1-19-1-11-3-4-8-1-4v-7l3-1v-12l-5-6-1-4v-18l4-10 5-5 13-5 26-4z" fill="#0A0708"/>
<path transform="translate(432,336)" d="m0 0h3l2 12 4 53 2 38v20l-1 2-7-1-34-10-3-5-3-28-3-31-1-16v-23l15-4 8-3z" fill="#D3D1D3"/>
<path transform="translate(1302,659)" d="m0 0h17l9 4 5 4 5 7 3 9 2 11v19l-4 14-4 7-7 7-11 5h-14l-11-4-9-9-5-11-2-7v-23l2-8 5-12 7-8 8-4z" fill="#080607"/>
<path transform="translate(1443,491)" d="m0 0h13l9 3 6 4 7 8 4 9 1 6v25l-3 13-6 9-7 6-11 4h-14l-9-4-8-7-5-8-3-12v-25l2-8 6-12 9-8z" fill="#090708"/>
<path transform="translate(647,654)" d="m0 0 5 1 1 4 2-1-2 4-11 11-3 6-4 20-1 7v93l-34 1-13 2-7 1-2-6-1-11-3-6-6-7-1-7 1-2 6 1 9 1 9-3 7-6 7-14 5-22 4-19 6-15 4-7 3-11 10-10z" fill="#33263F"/>
<path transform="translate(1638,626)" d="m0 0h7v29l-1 11-1 3 12-9 2-1h12l8 5 4 6 2 5v68h-20l-1-2v-66l-10 2-6 6-1 15v45h-21v-116z" fill="#0A0707"/>
<path transform="translate(377,439)" d="m0 0h12l5 3v2h2l3 8h6l-3 2 11 6 6 7 1 7-3 5-2 3-3 1-1 3 1 28 1 14 8 56 6 29 2 23 2 8 5-2h5l-1 5-6 10-4 10-3 3-1-1-11-89-3-19-4-36-2-9-2-23-3-21-2-15-6-3-4-1h-10l-7 5-8 10-13 16-10 12-11 14-10 12-4 8v48l3 68-6 8-4 8-3 10-3 8-7 23-2 2-7-1-9-3-5-3-12-4-1-1v-12l1-12 2-3 5 12 2 6 5 3 2-1 10 1h3l6-7 5-9 5-16 2-13-1-13v-79l1-14 3-10 6-10 7-8 14-20 7-9 5-5h2l2-5 6-5 4-6h2v-2l9-5 12-3 9 2-5-2h-11l-8 2-13 6-7 5-9 11-1-3 8-10 9-9 8-5 3-2 2-2z" fill="#FAF8F7"/>
<path transform="translate(1137,299)" d="m0 0h21l11 4 6 4 2 2-1 9-2 3h-6l-12-6h-11l-4 5v13l4 5 24 12 8 8 4 8 1 4v12l-2 8-6 10-8 6-6 3-8 2h-12l-12-4-13-7-1-3 3-9 2-2 5 1 11 5 6 2h9l6-5 3-7v-8l-5-6-19-11-11-8-4-5-4-11v-9l4-11 8-9z" fill="#080607"/>
<path transform="translate(1486,660)" d="m0 0h29l6 3 7 10 2 9 1 48 1 1v11l-1 2h-10l-4-4-1-5-6 4-4 4-5 2h-16l-6-3-4-4-4-13v-12l3-9 6-5 9-4 9-2h10l-1-15-1-2h-29v-14z" fill="#090707"/>
<path transform="translate(1419,323)" d="m0 0h11l10 3 8 7 5 8 2 6 1 7v19h-43l2 9 6 10 4 2h10l5-2 2-2 5 1 5 3 1 6-9 7-9 3h-17l-8-3-7-6-4-6-5-13-1-6v-17l4-15 5-10 5-6 8-4z" fill="#090708"/>
<path transform="translate(1246,491)" d="m0 0h15l10 5 7 8 4 8 2 9v19l-1 1h-35l-6-1 2 13 4 7 4 3h9l6-4h9l3 3v7l-8 6-8 3h-14l-9-2-6-4-6-7-6-13-1-6v-22l3-11 5-10 5-6z" fill="#0A0708"/>
<path transform="translate(1245,325)" d="m0 0h14l5 1 1 67 4 1 7-2 4-5 1-60 1-1h19l1 1 1 80-1 1h-18l-2-4h-5l-3 5-4 1h-17l-4-4-5-9-2-14v-57z" fill="#0B0809"/>
<path transform="translate(1334,490)" d="m0 0 9 1 9 8 4 8v69h-21l-1-68-5-1-8 6-2 3-1 60h-22v-80l2-2 4-1h8l5 3 4 5 9-7 3-3z" fill="#0D0A0A"/>
<path transform="translate(482,320)" d="m0 0 1 4 1 6-1 18-4 8-2 8-3 28v12l-3 12-10 14-6 5-5 9-3 13 6-16 10-11h3l5 1 1 2 3-3v-3h-2l2-11 1-9 4-30 3-18 1-12 1-7 2-4 2 5 1 25 1 12 1 38 1 10-14 10-3 1v2l-5 5-8 14-2 6v8l4 9 4 8 7 8 10 14 9 9 4 5v3l-7 1-3-3-3-6-9-2-11-9-11-12-6-7-4-11-4-10-2-6 4-2 1-28-1-3v-12l1 2 7-4h2v-2l2-2 2-3v4h4l1-5 2-7-1-5 2-4h2v-2l4-2-1-1-2 1 1-5 2-6 2-14 2-1-1-5 2-6v-6h2v-2l-2-1 2-4h2l1-15z" fill="#FCFAFA"/>
<path transform="translate(1621,491)" d="m0 0h11l5 3 6 7 3 6v68l-1 1h-21v-71l-6 2-9 7-2 4-1 57h-20v-81l4-1h12l3 4v6h3l2-4 8-6z" fill="#0D0909"/>
<path transform="translate(392,802)" d="m0 0 4 1 28 18 5 3v2l-20 4-52 9-31 5-7 1-24 1-5-2-3-4-1-4v-13l2-5h10l48-7 38-7 1-1z" fill="#2E243F"/>
<path transform="translate(1508,322)" d="m0 0 10 3 5 4 5 10v69h-20v-69l-11 4-5 4h-2l-1 61h-20v-82l1-1h13l5 4 2 3 4-1 7-6z" fill="#080506"/>
<path transform="translate(1198,658)" d="m0 0 7 1 7 4 4 7 1 4v69h-20l-1-67-9 1-4 2-3 9-1 55h-20v-83h10l5 2 4 5v2l5-3 8-6z" fill="#060506"/>
<path transform="translate(494,425)" d="m0 0h31l13 2 4 2 2 3 3 10 2 3 2 14v10h1v11l-5-5-7-9-11-9-5-5-1-4-6 9-14 11-18 11-5 6-6 9-6-5-7-14-1-3v-8l5-12 7-11 4-2v-2l14-10h4z" fill="#26202E"/>
<path transform="translate(319,643)" d="m0 0 4 3-1 2h2l2 7-3 8v14l-3-1-2 9-3 8-3 13-6 21-11 46-5 29-1 16-2 5v13l3 7 5 2h15v1l-7 1h-17l-9-1-5-4-4-8v-20l4-19 8-32 2-6 3-16 8-32 11-36 3-7 4-10 6-9z" fill="#584E67"/>
<path transform="translate(256,593)" d="m0 0h4l-2 12v40l1 4v65l-4 1v-2l-9-3-8-7-10-9-5-5-4-6 3-17 2-6 5-41 4-6 13-13z" fill="#2F2540"/>
<path transform="translate(729,346)" d="m0 0h16l24 7 12 5 12 4 8 5 12 2 7 4 6 5 6 4 5 4 7 8 7 10 9 17 4 10v13l1 9v9l-2 2-11 2v3l14 9 15 9 11 11 6 8 6 12 4 10 1 5v11l-2-1-5-17-8-17-12-15-13-9-19-9-29-8-1-1-10-2-10 4-3 1-2 4-7 8h-2l-2 7-6 8-6-1 2-5 6-8 7-10 2-6 2-9 1 3 4-2-3-1 1-7 4-12 3-8 4-15 1-17 2 1 1 3v15l-2 15-3 16v5l10 5 1 2h9l3-2h33l-1-13-6-20-5-13-10-16-11-12-2-1v-2h-3v-2l-3-1-3-4-15-1-7-2-4-5-8-4-16-5-7-4-12-3h-19l-20 5-15 8-3 1v2l-6 5-5 7-4 8-1 5v23l3 12 9 6v5l-10 1-6-4-5-8v-13l4-24 3-10 8-11 12-9 14-8 11-4z" fill="#F9F6F5"/>
<path transform="translate(873,717)" d="m0 0 9 2 12 1-8 50-4 24-3 24-2 10-21 4-9 1-2 1v-9l3-21 12-45 6-23 6-18z" fill="#BCABA4"/>
<path transform="translate(1254,626)" d="m0 0h16l9 3 1 1v6l-2 5-2 1-16 1-1 2-2 17h15l2 2-1 6-3 5-2 1h-11v68h-20l-1-66-8-4-2-2v-8l4-3 7-2v-15l6-11 7-6z" fill="#070507"/>
<path transform="translate(650,664)" d="m0 0h2l2 5v12l3 6 3 3v7l-7 15-1 3v26l4 20 4 16 2 7 4 15v2l-31-1-1-4-1-49v-41l4-22 3-9 7-8z" fill="#FBF9F9"/>
<path transform="translate(1815,659)" d="m0 0h16l10 4 5 4-1 6-3 5-6-1-5-1h-14l-1 8 4 6 18 8 8 6 4 8v12l-3 9-6 7-8 4-5 1h-17l-11-3-5-6v-7l2-4 7 1 7 3 5 1h9l3-4v-9l-4-4-19-10-7-8-3-8v-9l4-9 7-7z" fill="#090608"/>
<path transform="translate(1555,306)" d="m0 0h8l5 3-1 17 13 1 3 3-1 6-2 3-3 1h-10l1 53 1 1h14l2 2v10l-1 3-2 1h-18l-10-2-5-6-2-6-1-8v-47h-8l-3-2v-8l2-4 8-4h2v-15z" fill="#0C090A"/>
<path transform="translate(1385,474)" d="m0 0h7l2 1 1 3v16l16 1-1 9-4 4h-11v43l1 9 2 1 14 1 2 4-1 6-6 5-3 1h-14l-8-4-5-6-4-11-1-46-1-2-5-3-2-5 1-5 6-4h2v-16l1-1z" fill="#0A0708"/>
<path transform="translate(1203,306)" d="m0 0h11l3 2-1 17 14 1v13l-1 2h-13l1 53 15 1 2 3v9l-4 3h-21l-6-3-4-5-3-7-1-9-1-44-8-4-1-2v-6l6-4 3-1 1-15 3-3z" fill="#0A0708"/>
<path transform="translate(794,422)" d="m0 0 9 3-3 13-3 8-3 7-1 5h6l-3 2-4 1-1-1-2 10-4 8-9 11-4 7h6l6-9 2-5 5-5 6-7 9-5 5-1 9 2 5 2-3 2-3 21-7 28-1 2-5-1-2-5-8-4-4-3h-7l-6 8-2 18-2 6-3-2-5-18-1-2v-13l2-6h-6l-2 6-3 8-2 14v32l1 9v9h-1l-3-24v-33l3-12 6-11 3-3 7-8 11-13 4-6 4-12v-2l-3-2v-6l4-5 5-11v-4l-2-1z" fill="#C18263"/>
<path transform="translate(456,621)" d="m0 0 5 2 10 9 8 5 4 1-1 5-9 16-28 42-4 7-4 4-4-1 1 3 2 29v9h-1l-5-50-4-27v-6l4-4 4-10 8-12 8-10 5-9z" fill="#F59575"/>
<path transform="translate(1761,659)" d="m0 0h13l11 4 3 4v8l-2 2h-10l-6-1h-8l-5 10-1 8v17l2 10 4 6 1 1h13l9-1 3 3v7l-5 6-9 3h-11l-10-2-6-3-7-8-5-12-1-6v-23l3-12 5-10 8-7z" fill="#090607"/>
<path transform="translate(220,671)" d="m0 0h1l-1 12 6 9 5 4v2l-4 1h-8v-14l-2 1-4 16-1 16-1 5-9-3-9-6-5-1h-27l-6 1 1 5 2 6-1 4-5-13-3-4-5-22-1-10h70l5 1z" fill="#B17854"/>
<path transform="translate(527,362)" d="m0 0h3v2l16 1 8 4 13 2v14l-2 14-3 29-1 4h-8l-13-3-9-2-6-1-1-3 2-47z" fill="#FAEFEA"/>
<path transform="translate(1121,636)" d="m0 0h21v107l-10 1h-13l1-107z" fill="#0F0C0C"/>
<path transform="translate(1459,659)" d="m0 0h8l2 1v14l-2 5-13 4-3 4-2 8-1 15-1 33-6 1h-16l1-82 2-2h8l9 2 1 1v6h6l3-8z" fill="#0D0909"/>
<path transform="translate(1530,491)" d="m0 0h7l3 2-1 16-2 2-12 3-5 6-2 5-1 50-1 1h-20v-49l1-32 2-2h11l4 2 4 7 3 1 2-4 5-7z" fill="#0B0808"/>
<path transform="translate(490,348)" d="m0 0 2 4 2 16h2l1 2 3-4 5-1 5 3v2l10-2 3-4h2l1-2v42l-1 21h-31v2l-2-1-1-10-1-38z" fill="#B27855"/>
<path transform="translate(709,483)" d="m0 0 4 2 7 11 5 3 6 1h12l6 3 4 4v46l3 24v8l-1 4-4-2-3-8-2-6-3-20-1-18 2-10 3-5-4 1-3 6v17l7 37 4 11v2l-3 1-4-11-6-25-1-2-5 1-4 10-2-1 2-17v-9l-4-8-9-9-8-4-10-3-2-2 3-1-2-2h7l11 4 8 5 5 5 4-1 3-3 1-3v-10l1-3-8 6h-5l-7-6-3-5-2-13z" fill="#FEF6ED"/>
<path transform="translate(377,439)" d="m0 0h12l5 3v2h2l3 8h6l-3 2 11 6 6 7 1 7-3 5-2 3-3 1-1 3 1 28 1 14 8 56 6 29 2 23 2 8 5-2h5l-1 5-6 10-4 10-3 3-1-1-11-89-3-19-4-36-2-9-2-23-3-21-2-15-6-3-14-2 3-3 6-1 8 2-5-2h-11l-8 2-13 6-7 5-9 11-1-3 8-10 9-9 8-5 3-2 2-2z" fill="#FBF9F9"/>
<path transform="translate(668,837)" d="m0 0 16 2-1 2 2 4 9 2 4 2 15 3 16 4 9 1 11-1v3l-1 1-1 10-5 8-3 2h-9l-19-5-15-4-32-8 1-9 2-15z" fill="#554E6A"/>
<path transform="translate(688,639)" d="m0 0 8 1 9 7 1 2h-2l-3 9-5 13h-2l-1 5-2 5-7 10-6 2-6 3-12 16-4 4-4 2 1-9 6-12v-7l-5-6-1-7 7-10 9-9 7-8z" fill="#2F243F"/>
<path transform="translate(1550,493)" d="m0 0 20 1v82h-21v-82z" fill="#080607"/>
<path transform="translate(1700,661)" d="m0 0h20v82h-21v-81z" fill="#040304"/>
<path transform="translate(879,819)" d="m0 0 9 1 24 8 8 4 1 4-3 5-9 3-19 4-7 2-1 2h-7l-9 2-16 1-3-13-1-9 1-1 21-3 9-1v-6z" fill="#312640"/>
<path transform="translate(554,520)" d="m0 0h1v11l-2 30-7 43-1 10h-9l-4-2-3-14-8-30v-12l3 2 5-1 9-6 7-9 5-11 3-10z" fill="#D2CFD1"/>
<path transform="translate(625,691)" d="m0 0 2 3v7l2 10 3 2 1-3 1 37v52h-27v-1h7l1-19 2-15 2-42 2-17 3-13z" fill="#59506A"/>
<path transform="translate(647,654)" d="m0 0 5 1 1 4 2-1-2 4-11 11-3 6-4 20-3 14-4-2-2-10v-7l-1-2-3 13-2 17-2 42-4 34h-1v-22l-7 2-2 2h-5l-1-1 1-8 5-11 3-10 4-5 3-11v-4h2l-1-6 2-16 2-12 1-7 5-9 3-11 10-10z" fill="#382E45"/>
<path transform="translate(479,841)" d="m0 0 4 1 17 11 7 4-2 2-25 7-12 3-15 2-20 4-19 3h-7v-1l-22-1 3-1 1-5 7-2h28l25-4 9-8 9-11 6-3z" fill="#C18364"/>
<path transform="translate(436,752)" d="m0 0h1l1 5 24 8 16 5 7 3 17 6 2 2-2 1-3 5-1 1h-10l-5-2h-8l-25 7-9 4-3 2v-17l-2-24z" fill="#C18365"/>
<path transform="translate(635,511)" d="m0 0h26l23 10 15 5 10 4 7 6 6 20v8l-3 7h-5l-2 11-2 6-2 10-4 7-3 8-11 4v-3l7-11 5-11 3-9 2-17 2-3 6-3-1-10-5-7v-2l-4-2-8-6-18-8-15-4-14-2h-20l-16 3-8 3h-3l1-4 12-5 13-4z" fill="#FBF9F9"/>
<path transform="translate(875,851)" d="m0 0h5l1 1 1 7v27h-2v-2h-56l1-7h2v-2l11-3 3-1v-2l4-4 4-10 3-1 21-2z" fill="#BCAAA3"/>
<path transform="translate(702,613)" d="m0 0h3l5 17 11 8 9 8 10 5 7 4 4 5 16 32 4 12-1 5-4-1-5-16-3-5-2-5-9-10-10-8-13-8-16-7-11-7-6-4 1-4 3-2 2-10z" fill="#FCFAF9"/>
<path transform="translate(257,596)" d="m0 0h1v49l1 4v65l-4 1v-2l-9-3-8-7-5-4v-4l7-3 1-3 3-1 4 4h1l-2-12v-33l2-14 1-2v-11l2-9 1-10z" fill="#392E45"/>
<path transform="translate(555,503)" d="m0 0 2 3 2 12v12l-2 22-3 14-6 37-1 11-4 8h-2l-2 5-3 1-4-9-12-48-5-18-2-7h-2l-1-6 2-4 4-1v-2l4 2 3 5 14-1 9-8 6-12 2-7zm-1 17-2 3-4 13-5 9-7 8-9 5-4-1-2-1v12l8 30 3 14 4 2h9l3-24 5-29 2-30v-11z" fill="#BDAAA3"/>
<path transform="translate(517,307)" d="m0 0 17 1v21l-2 20-15-1-11-2-2-4-1-13v-17l1-3z" fill="#F9EEEA"/>
<path transform="translate(696,563)" d="m0 0 7 1 3 9v10l-6 16-7 12-9 10-3 1-5-4v-3l6-2 5-2 1-2v-15l-4-5-7-1-4 2-4-1-3-14-5-7 5-1h9l8 1 5 1z" fill="#27202D"/>
<path transform="translate(1305,675)" d="m0 0h9l4 4 3 7 1 8v21l-4 11-4 4h-7l-6-5-3-7v-31l2-7z" fill="#FAF8F7"/>
<path transform="translate(726,658)" d="m0 0 4 1 7 4 8 6-3 1-4-2-5 5-3 4h-2l-2 4h-2l-2 10-6 9-2 14v30l-1 8-1 4 2 17 4 17v11l-2 3 5 3v5l-5 7-5 3-3 3-5 1-6-1-7 2v-12l-2-11 4-1 24-2v-9l-5-23-2-12-1-14v-34l4-14 8-12 9-10 4-5v-4l-7-5z" fill="#392E45"/>
<path transform="translate(1447,505)" d="m0 0 7 1 5 6 2 7v26l-1 10-4 6-3 2h-6l-5-4-3-7-1-6v-22l4-13z" fill="#FBFAF9"/>
<path transform="translate(1576,674)" d="m0 0h6l4 5 3 9v31l-3 8-3 2h-11l-5-3v-43l7-8z" fill="#FBFAF9"/>
<path transform="translate(758,593)" d="m0 0 2 2 5 15 3 6 2 7 4 8 2 6h2l3 7 2 11 6 7v3l4 2v2h2l7 11 3 7v18l-1 2h-5v2l-7 2v-2l4-3-1-10-6-13-8-16-8-12-5-4-5-19-5-32z" fill="#C38567"/>
<path transform="translate(794,852)" d="m0 0 11 1 12 6 4 5 2 7v14l-1 1h-14l-17-1-5-2-1-1v-12l4-11z" fill="#491C1F"/>
<path transform="translate(1344,338)" d="m0 0 10 3 4 1v49l-4 3h-10l-5-5-2-5v-29l4-13z" fill="#FBF9F8"/>
<path transform="translate(819,477)" d="m0 0h1l-1 14-7 28-1 2-5-1-2-5-8-4-4-3h-7l-6 8-2 18-2 6-3-2-5-18 1-2 3 5 1 4 2-1 3-16 6-16 3-4h2l1-4 5-4 8-1 2 5 6-1 2 13 2-1z" fill="#B27854"/>
<path transform="translate(482,320)" d="m0 0 1 4 1 6-1 18-4 8-2 8-3 28v12l-3 12-10 14-6 5-5 9-4 15-2 2v-28l-1-3v-12l1 2 7-4h2v-2l2-2 2-3v4h4l1-5 2-7-1-5 2-4h2v-2l4-2-1-1-2 1 1-5 2-6 2-14 2-1-1-5 2-6v-6h2v-2l-2-1 2-4h2l1-15z" fill="#FEFDFD"/>
<path transform="translate(333,581)" d="m0 0 2 1 1 16 2 8 1 16 3 3 2 5 3 2 5-1 1 4h3l1-3 4 1 3 3 1 7 3 10-4 1-2 6 1 5 6 1 1 5-3 5 1 4-3 7-4 1-6-9-4-15-1-12-3-6v-7l-11-2-2-12v-5l-1-2 1-9-1-5z" fill="#382E45"/>
<path transform="translate(709,588)" d="m0 0h1v12h2v24l5 5 6 3h13l8 8 7 8 3 4v2h2v7l-2 5-3-3-3-6-5-4-9-4-9-6-9-8-7-5-4-14v-3h-3l-2 6-3 5-1 8-4 3-2 3-2-1v-2l-3-1-3-5-1-4 4-6 4-3 10-3 2-1 3-9 4-7z" fill="#FBF0EB"/>
<path transform="translate(766,660)" d="m0 0 5 1 3 3-4 1-2 10-2 3 1 6 4 9 2 8 5 3 1 2 1-2h2l2 3 2-1-8-6-2-5-1-12v-11l6 2h5l6 13 5 13v6l-5 4h-25l3-2-1-6-2-13-4-7-1-5v-7l3-6z" fill="#FAEFEA"/>
<path transform="translate(806,399)" d="m0 0 2 1 1 3v15l-2 15-3 16v5l10 5 1 2 7 1v1h-5l1 3-8-1-10 4-3 1-2 4-7 8h-2l-2 7-6 8-6-1 2-5 6-8 7-10 2-6 2-9 1 3 4-2-3-1 1-7 4-12 3-8 4-15z" fill="#F59576"/>
<path transform="translate(617,646)" d="m0 0 10 3 3 1h16l1 5-10 6-8 8-3 11-6 11-2 1-4-14-2-16v-11z" fill="#FAEFEA"/>
<path transform="translate(143,680)" d="m0 0h70l5 1-3 2-26 1-8 3-14 2v2l-5 1 1 6 2 3-3 3-6 4-5 1-5-10-3-14z" fill="#C1866A"/>
<path transform="translate(1114,857)" d="m0 0 4 1 2 8 14 2 1-9 1-2h2v16h3v-6l5-2 4-4 4 1 6 3 5 1v15l-3 4h-13l-4-2-2-9-3 2-2 7h-2l-1-9-2-4-2 2h-6l-6-3-1 14-5 1 1-7z" fill="#F0ECEA"/>
<path transform="translate(568,306)" d="m0 0 4 1-2 22-2 4h-10l-13-2-2-1v-16l2-6 3-1z" fill="#BDADA6"/>
<path transform="translate(692,442)" d="m0 0 3 1 3 4v2h-2l-1 6 2 5 6 1 2 4-1 8h3l4 6 1 3 6 3 5 3 15 4 11 1 14-1-1 5-7 14-2 9h-1v-13l-6-5-3-1h-14l-8-3-7-9-3-5-8-7-5-6-2-8-2-1-1-5v-8z" fill="#F7EDE9"/>
<path transform="translate(436,810)" d="m0 0 12 6 10 6 9 6 10 5 10 7 10 4 11 6 8 6 18 4 9-1h13l17-5 8-2h7l-3 2-33 9-21 5h-11l-1-6-3-2-11-1 1-2-11-6-16-11-17-12-21-13-5-3z" fill="#D3D0D2"/>
<path transform="translate(904,506)" d="m0 0 3 3 2 8 3-4 2 8v26l1 3v-5l6-2 1-7 2-13h1l1 7v21l-5 5-2 1v18l-1 2h2l1 7v2l1 2v2l2 3-1 6 2-1-1 5-2 1v-3h-2l-1 2-8-43-3-13v-14l-3-10-2-5 1-3 2 4z" fill="#FEF5ED"/>
<path transform="translate(253,592)" d="m0 0m-2 1h2l-1 4-9 7-11 11-2 4-5 41-5 13-1 6h-6l-1-2 2-7 3-25 4-16 5-15 3-5 12-9z" fill="#FBF9F9"/>
<path transform="translate(218,685)" d="m0 0h1v14l13-2 12 11 11 5v2l3 1-4 1-13-1-23 4h-2l-1-4 2-28z" fill="#AD7451"/>
<path transform="translate(1683,505)" d="m0 0h10l4 5 1 3v16l-4 6-3 2h-6l-4-2-2-3-1-7v-14l3-5z" fill="#F8F5F4"/>
<path transform="translate(702,651)" d="m0 0 1 3-7 17h-2l-1 5-2 5-7 10-6 2-6 3-12 16-4 4-4 2 1-9 1 2h4v-2h2l2-5 3-6 4-13 3-5h3l1-3 9-6h2l2-4 12-14z" fill="#3A2F46"/>
<path transform="translate(726,658)" d="m0 0 4 1 7 4 8 6-3 1-4-2-5 5-3 4h-2l-2 4h-2l-2 10-6 9-2 14v30l-1 8-1 4 2 17 4 17v11l-2 2-3-1 3-1v-9l-5-23-2-12-1-14v-34l4-14 8-12 9-10 4-5v-4l-7-5z" fill="#392F46"/>
<path transform="translate(828,378)" d="m0 0 5 1 11 9 10 13 11 19 4 12-1 9-2 8 3 13v6l-3 4 2 6-6-1-11-8v-3l4-2 8-1 1-1v-9l-1-13v-9l-8-18-8-14-10-11v-2l-4-2-5-4z" fill="#FDF5ED"/>
<path transform="translate(1376,674)" d="m0 0h10l5 3 1 1v20l-4 5-2 1h-8l-4-4-2-7v-11l2-6z" fill="#FAF7F7"/>
<path transform="translate(553,465)" d="m0 0 1 3 3 1 3 8 6 5 1 2v11l4 5 10 5 5 1-5 5-12-6h-6l-10-6-2-6v-8l-1-3 3-3z" fill="#FEF6ED"/>
<path transform="translate(696,838)" d="m0 0h5l2 2 12 2 5 6 12 3 14 1 7 2-2 1v2l-14 1-18-3-15-4-9-2-4-2-7-2-2-5 9 1 5-1z" fill="#392F45"/>
<path transform="translate(411,351)" d="m0 0 2 1 3 15 3 4 9 3 1 2v7l-2 1-2-1v-2l-6-2-3-2h-9l-11-1-1-3v-21h2l4 7 9 1z" fill="#BDACA5"/>
<path transform="translate(1251,504)" d="m0 0 7 1 5 6 2 6v10l-4 2h-18l-1-1 1-13 4-8z" fill="#F9F7F6"/>
<path transform="translate(1705,620)" d="m0 0 13 1 2 3v17l-7 2h-10l-4-4-2-7v-7l4-4z" fill="#0D0909"/>
<path transform="translate(680,628)" d="m0 0 4 2 2 4 2 1v2l5 2-2 1-4 1-16 15-7 8-6 7-4 6-1-3v-5l-2-6 10-9 14-16 4-6z" fill="#F09374"/>
<path transform="translate(1422,336)" d="m0 0h6l5 5 5 13 1 5-3 1h-23v-8l4-10z" fill="#F9F7F7"/>
<path transform="translate(1655,861)" d="m0 0 7 1 4 5 1 2v10l-2 8-3 4h-7l-4-3-2-6-2-5 1-8 5-7z" fill="#F3EFEE"/>
<path transform="translate(1557,452)" d="m0 0 10 1 3 3 1 4v7l-3 7-6 2-9-1-4-5-1-2v-11l6-4z" fill="#0C0909"/>
<path transform="translate(923,614)" d="m0 0h2l5 17 8 21 10 21 8 16 8 21 2 14 1 14v14l-1 1-1 21h-1l-1-32-2-25-2-10-4-10-7-16-10-19-9-22-5-18z" fill="#F9F5F4"/>
<path transform="translate(593,537)" d="m0 0h2l4 4 9 3 3 6 6 5 2 6h-3v4l7 2v2l-7 1-5-3-10-2-3-6-5-9z" fill="#241E2C"/>
<path transform="translate(886,828)" d="m0 0 13 1 5 1h7l-2-2 5 1 6 3 1 4-3 5-9 3-19 4-7 2-1 2-4-1 2-4 4-6 10-4 4-1 7 1h6l-7-2-11-2v-2h-6z" fill="#392F46"/>
<path transform="translate(217,685)" d="m0 0 1 3-2 32 9-2 16-3 13 1-3 6-5 2-23 4h-7l-4-1 1-28 3-13z" fill="#451A1E"/>
<path transform="translate(320,676)" d="m0 0 3 1 2 9 2 16 2 10v4l-8-1-10-2v-7l5-19z" fill="#F8F5F4"/>
<path transform="translate(397,775)" d="m0 0 7 2 7 10v3l6 2v6l-1 2 5 3v2l-6-2-12-8-16-12-7-5v-2l8 1z" fill="#271F2D"/>
<path transform="translate(556,520)" d="m0 0h1v21l-4 31-5 31-1 11-4 8h-2l-2 5-3 1-4-9-12-48-3-11 1-4 3 7 11 42 1 7 12 2v-10l8-50 2-15z" fill="#C48C73"/>
<path transform="translate(264,695)" d="m0 0 9 2 5 3 9 3 7 1 1 2-1 3h-2l-1 4-6 2-15-1-5-2-2-9-1-7z" fill="#C18467"/>
<path transform="translate(436,752)" d="m0 0h1l1 5 12 4v16l3 3v2l-6 5-4 9-5 3v-17l-2-24z" fill="#B27956"/>
<path transform="translate(1502,704)" d="m0 0h6v23l-7 3-7-1-3-6v-11l5-6z" fill="#F8F7F6"/>
<path transform="translate(806,399)" d="m0 0 2 1 1 3v15l-2 15-3 16v5l10 5v3l-9-1-12-3 1-7 4-12 3-8 4-15z" fill="#F5EEEA"/>
<path transform="translate(630,518)" d="m0 0h20l18 3 16 5 16 8 9 7 6 9 1 10-4 3-3 1-2 2-1-3-1-12-2-5 1-5-8-6-11-4-10-4-18-5-8-1v-2h-19z" fill="#6F4138"/>
<path transform="translate(421,586)" d="m0 0h2l6 16 2 4 3 18 2 11 8 2v2l2 1-5 4v-2l-7 2h-4l-2-8-2-23-5-24z" fill="#FAEFEA"/>
<path transform="translate(1306,862)" d="m0 0 5 1 8 2 4 5v8l-3 6-5 2h-7l-4-2v-6l3-9 1-4-3-1z" fill="#1D1617"/>
<path transform="translate(770,749)" d="m0 0h2l1 12v49l-4 16-2 3-1-1 2-28v-47z" fill="#2D2532"/>
<path transform="translate(232,636)" d="m0 0h3l3 1 1 9-2 5-5 1-3-2-1-4-1 16 2 7-1 18h-2v5l-4-4-3-5 3-17 2-6 3-23h2l2 5z" fill="#493644"/>
<path transform="translate(327,695)" d="m0 0 5 1v2l2 1 2 9 1 8 2 7 2 9 1 5-1 7h-3l-5-10-4-19-2-7z" fill="#271F2E"/>
<path transform="translate(377,439)" d="m0 0h12l5 3v2h2l3 8h-2l-3-3-3-1h-11l-8 2-13 6-7 5-9 11-1-3 8-10 9-9 8-5 3-2 2-2z" fill="#FDFCFC"/>
<path transform="translate(433,711)" d="m0 0 5 1v19l2 18 1 4 10 3 26 12v1l-10-1-13-5-16-5-2-6-2-20z" fill="#FCF9F9"/>
<path transform="translate(797,852)" d="m0 0 11 2 9 5 4 5 2 7v14l-1 1h-14l-17-1-5-2 3-1 4 1 25 1-1-9-5-8-4-4-2-5-9-2z" fill="#2A1F2B"/>
<path transform="translate(647,654)" d="m0 0 5 1 1 4 2-1-2 4-12 12-8 1v2l-4 1-1-1v-8l10-10z" fill="#31242D"/>
<path transform="translate(604,411)" d="m0 0h1l1 29-2 8-5 13-4 2-3-1h-11l-3-2v-8l2 2v3h6l6-4 5-5 3-7z" fill="#FFF7EE"/>
<path transform="translate(418,552)" d="m0 0h1l2 8 2 16 2 9 6 15 4 17 2 10 5 5 7-4 6-8 1 4-5 9-5 6-10-3-1-1-2-11-4-21-5-11-4-15-2-18z" fill="#FDF5ED"/>
<path transform="translate(740,670)" d="m0 0h6l9 9 3 4 3 8 4 10 1 9-4-4-4-9-5-5v-2l-4-2-2-5-4-2-4-9z" fill="#2A1F2A"/>
<path transform="translate(260,594)" d="m0 0 2 1v53l-1 1-1 28h-1l-1-30-1-5v-37l1-9z" fill="#685C70"/>
<path transform="translate(1114,857)" d="m0 0 4 1 2 8 14 2 1-9 1-2h2v16h3v-6l5-2 2-1-2 6-5 5-3 8h-2l-1-9-2-4-2 2h-6l-6-3-1 14-5 1 1-7z" fill="#312526"/>
<path transform="translate(697,614)" d="m0 0h4l-1 5-3 5-1 8-4 3-2 3-2-1v-2l-3-1-3-5-1-4 4-6 4-3z" fill="#FEF6ED"/>
<path transform="translate(543,446)" d="m0 0h5l-1 12-1 6 4 9-1 3v-2l-4-2-6-7-10-8-4-3v-5l5 2v2l8 1z" fill="#080405"/>
<path transform="translate(411,814)" d="m0 0 5 2 13 8v2l-14 3-3-1-11-3-2-6 3-3z" fill="#291F2D"/>
<path transform="translate(678,627)" d="m0 0h2l-1 7-9 11-7 7-7 8h-3-1v-5l-4-2 6-4 9-8 11-9z" fill="#C08061"/>
<path transform="translate(334,637)" d="m0 0 7 3v2h2l-2 5-5-1-9 12-2 6-1 18h-1l-1-8v-11l3-9-1-1v-5h-2l-1-2-1-3 5-2z" fill="#392F46"/>
<path transform="translate(601,338)" d="m0 0 3 1-5 5-1 2-2 20-2 14v28l-4 18-3 2 1-10 1-8v-21l3-18 2-18 3-12z" fill="#FDF4EC"/>
<path transform="translate(1606,857)" d="m0 0h5v25l4 1 4-4v-15l5 2 4 5-1 6-5 4-4 5h-8l-4-2z" fill="#231C20"/>
<path transform="translate(310,708)" d="m0 0h1v5l10 1 9 1v6l-1 3v3l-3 1-16-3-2-1v-7z" fill="#C18365"/>
<path transform="translate(1212,862)" d="m0 0 3 1-2 2-1 13 2-13 5 1-2 9-1 7v2l7-2 4-5-1-9-4-6 5 1 3 3 2 7v11l-1 2-21-1-1-13 2-9z" fill="#2D2224"/>
<path transform="translate(1217,861)" d="m0 0h8l-2 2 4 5 1 9-5 6-7 1-1-7 4-11-5-1v9l-2 5h-1v-8l2-7z" fill="#F5F2F1"/>
<path transform="translate(627,671)" d="m0 0h1l1 6h4v-2l2-1h6l-3 10-4 18-2 4-2-1-1-5v-9l-1-1 1-7-5 1 2-6z" fill="#362941"/>
<path transform="translate(641,557)" d="m0 0 5 1 5 2 1 3 2 2-9 5-5-1-12-4-5-3 2-2 6-2z" fill="#28202C"/>
<path transform="translate(836,510)" d="m0 0 3 1 1 4-4 17-1 11-4 9h-2v-17l3-17 3-7z" fill="#C28263"/>
<path transform="translate(1325,860)" d="m0 0 4 2 2 3 4 1 2 5 1 8 3 1 1 2 2-3v-12l-1-4-3-1v-2l5 2 5 5-1 16-1 2h-12l-4-8-2-10-5-5z" fill="#382926"/>
<path transform="translate(698,804)" d="m0 0h9l3 3-2 7-3 1-5 1-7 4-2 4-2-18z" fill="#281F2D"/>
<path transform="translate(1183,861)" d="m0 0 4 1 5 4 1 6-1 11-2 3-11-1-3-7-1-10 4-3 2 12 5 3 1-1v-12l-2-3-3-2z" fill="#4C3B40"/>
<path transform="translate(561,428)" d="m0 0h1v10l-3 5-1 1h-10l-3-4-3-10 11 1 8 1z" fill="#BE886D"/>
<path transform="translate(400,361)" d="m0 0 9 1 4 1v6l9 5 5 2v6l-6-2-6-4-5-4h-10l-2-4z" fill="#B07652"/>
<path transform="translate(288,818)" d="m0 0 2 1-1 6h2l2 3 2 9 1 3 5 2 2 1 16 1v1l-24 1-5-2-3-4-1-4v-13z" fill="#3A2F46"/>
<path transform="translate(879,819)" d="m0 0 9 1 21 7v2l4 2h-9l-15-3h-10l-1-2v-6z" fill="#231E2D"/>
<path transform="translate(517,556)" d="m0 0 3 4 10 38 3 14v2l5 1v3h-2v2h6l-2 6-4 2-4-9-12-48-3-11z" fill="#BB7D5C"/>
<path transform="translate(482,320)" d="m0 0 1 4 1 6-1 18-4 8-2 8-1 11-4 1v-8l1-5 2-1-1-5 2-6v-6h2v-2l-2-1 2-4h2l1-15z" fill="#FDFCFC"/>
<path transform="translate(1656,861)" d="m0 0 6 1 4 5 1 2v10l-2 8-3 4h-7l-3-3v-3l9-4 1-1v-8l-5-9z" fill="#33272D"/>
<path transform="translate(526,407)" d="m0 0 2 2 2 12 15 4 14 3 1 3-7 1-13-3-9-2-6-1-1-3z" fill="#FBF3EA"/>
<path transform="translate(664,652)" d="m0 0 5 4-1 4-9 9-5 8-1-3v-5l-2-6 11-10z" fill="#BBA69C"/>
<path transform="translate(1513,860)" d="m0 0 3 1v19l1 2v6l-2 2h-5l-2-2v-6l2-3v-3l-2 2 2-10z" fill="#443432"/>
<path transform="translate(924,523)" d="m0 0h1l1 7v21l-5 5-2 1-1 8h-1l-2-15v-5l6-2 1-7z" fill="#FFF7EE"/>
<path transform="translate(688,639)" d="m0 0 8 1 9 7 1 2-5-2h-4l-2 2h-4v-2l-7-1-25 25v-3l10-10 7-8z" fill="#271E2C"/>
<path transform="translate(631,652)" d="m0 0 1 2-1 6h2l1-5 3-1 3 3v2l-8 7-4 5-2 9-3 5-2 1 1-6 4-16 2-11z" fill="#F7F5F4"/>
<path transform="translate(749,547)" d="m0 0h2v6h2l2 16v13l-4-2-2-6-2-21 1-5z" fill="#FCFAF9"/>
<path transform="translate(540,802)" d="m0 0h17l8 4-3 3-12 2-5-2-6-1v-5z" fill="#C18162"/>
<path transform="translate(555,503)" d="m0 0 2 3 2 12v12l-2 22-1 6h-1l1-19-2 15h-1l1-33-3 3 2-9z" fill="#BDACA5"/>
<path transform="translate(1530,855)" d="m0 0 5 1-1 7-1 6v15l-5 1-2-4v-9z" fill="#161113"/>
<path transform="translate(588,389)" d="m0 0h1l1 5v16l-3 17-3 4v-18l2-22z" fill="#FBF9F8"/>
<path transform="translate(760,498)" d="m0 0h2l-1 5-4 10-2 14v32l1 9v9h-1l-3-24v-33l3-12z" fill="#BF9582"/>
<path transform="translate(1547,861)" d="m0 0 4 1 3 4v12l-2 8h-8l1-5 2-4z" fill="#32292F"/>
<path transform="translate(323,625)" d="m0 0h4l2 8-1 6 2 1-5 2-1 1h-5v-17z" fill="#241F2E"/>
<path transform="translate(1162,866)" d="m0 0h3v15l-3 4h-13l-4-2v-11l5 5 2 3v3l8-2 1-14z" fill="#191316"/>
<path transform="translate(830,883)" d="m0 0h44l6 1v2h-53z" fill="#876153"/>
<path transform="translate(1582,861)" d="m0 0 5 1-1 6v12l2 1-2 5-7-2 1-22z" fill="#312730"/>
<path transform="translate(1460,861)" d="m0 0 4 1-1 5v12l1 7h-7l-1-9 1-11z" fill="#281F25"/>
<path transform="translate(618,694)" d="m0 0h2l-1 11-2 13-2 9-3 5-2 3v-9l5-24z" fill="#352934"/>
<path transform="translate(1416,860)" d="m0 0h4l4 13v10l-1 2h-10l-3-1v-2l6-3 3-3v-13l-5 2z" fill="#402F2E"/>
<path transform="translate(637,662)" d="m0 0 3 1-1 3 4 1 1 4-3 3-8 1v2l-4 1-1-1v-6z" fill="#060405"/>
<path transform="translate(1313,865)" d="m0 0 6 6v8l-2 3-8 2v-9l2-7z" fill="#F4F1F0"/>
<path transform="translate(626,683)" d="m0 0h3v7l1 1v11l2 3 2-3-1 8-1 3-4-2-2-10v-7l-4-4-2 1 2-6z" fill="#3D3146"/>
<path transform="translate(232,636)" d="m0 0h3l3 1 1 9-2 5-5 1-3-2-2-4v-9h2l2 5z" fill="#3B3045"/>
<path transform="translate(1366,859)" d="m0 0h5l1 3v23h-5z" fill="#2D201E"/>
<path transform="translate(292,812)" d="m0 0 13 1h14l1 3-22 3h-8l-1-4z" fill="#BD7E5F"/>
<path transform="translate(672,804)" d="m0 0 12 1 5 1 2 9v9l-2 4v-3l-3-1v-5h-2l2-4 1-5-3 1-9-4z" fill="#C08161"/>
<path transform="translate(1181,862)" d="m0 0 5 2 2 3v12l-3 2-5-4-2-13z" fill="#F2EDEB"/>
<path transform="translate(483,640)" d="m0 0h2l-1 3-2 4 3 3v2h-2l1 8-2 11h-1l-1-14h-1l-1 9-2 3v-7l-1-8z" fill="#FEF6ED"/>
<path transform="translate(1441,858)" d="m0 0 4 1 1 1 1 8v14l-4 4h-2l1-17-3-10z" fill="#181213"/>
<path transform="translate(1634,860)" d="m0 0 4 1 3 6-1 18-1 1h-6l1-7 1-1v-13z" fill="#2B1F1D"/>
<path transform="translate(1379,856)" d="m0 0 6 1 2 3v15l-2 8-1 1h-5l3-8v-13l-3-5z" fill="#251D1E"/>
<path transform="translate(733,422)" d="m0 0h15v4l-2 2-9 2v2h-2l-1-2-5-3 2-4z" fill="#C28263"/>
<path transform="translate(1480,860)" d="m0 0h4l1 4v8l-6 12-3 1-4-2-2-7-1-9 5 1v13l4-2 3-5v-7z" fill="#34262A"/>
<path transform="translate(766,660)" d="m0 0 5 1 3 3-4 1-2 10-2 3 1 6 2 4-1 3-5-9-1-5v-7l3-6z" fill="#FBF0EB"/>
<path transform="translate(703,542)" d="m0 0 4 2 6 9 2 5-4 3 1 2-3 1-2 2-1-3-1-12-2-5z" fill="#554D69"/>
<path transform="translate(403,392)" d="m0 0h9v15h-6l-3-9z" fill="#BDACA5"/>
<path transform="translate(1564,858)" d="m0 0h4l1 3v23l-5 1z" fill="#130F11"/>
<path transform="translate(1675,855)" d="m0 0 3 3 3 7v21l-5-1v-22z" fill="#151113"/>
<path transform="translate(797,423)" d="m0 0 6 2-3 13-3 8-1 3-4 3-1-4h-2l2-5 5-8 2-4z" fill="#8A5B3D"/>
<path transform="translate(236,717)" d="m0 0h15l-2 4-16 4h-9l2-3 8-3z" fill="#040304"/>
<path transform="translate(535,530)" d="m0 0 5 1 4-1v2l-8 6-5 1h-9l1-4 8-4z" fill="#C28263"/>
<path transform="translate(1278,856)" d="m0 0 5 1 1 4-2 1-1 3-1 20h-3l-1-13-1-6h2v-9z" fill="#161115"/>
<path transform="translate(418,552)" d="m0 0h1l2 8 2 16 2 9 6 15 1 8-2-2-7-17-3-12-2-18z" fill="#FFF7EE"/>
<path transform="translate(1710,860)" d="m0 0 4 1 2 13v11h-10l4-5 1-2v-9l-2-8z" fill="#241C21"/>
<path transform="translate(933,630)" d="m0 0 2 2 8 16 5 6 6 3v2h2l3 5-9-2-7-8-8-15-2-3h-2z" fill="#FFF7EE"/>
<path transform="translate(613,345)" d="m0 0 2 1-4 6-3 16v17l-3 20h-1l1-25 1-21 2-9z" fill="#FFF7EE"/>
<path transform="translate(1256,864)" d="m0 0 6 1 5 8 1 2v10l-4-2-4-11-3-2z" fill="#1A1212"/>
<path transform="translate(1325,860)" d="m0 0 4 2 2 3 4 1 2 5 1 8 3 1-1 4h-5l-3-7-2-10-5-5z" fill="#261C1C"/>
<path transform="translate(1690,862)" d="m0 0 5 1 3 6 1 5v11h-5l-1-14z" fill="#382929"/>
<path transform="translate(456,621)" d="m0 0 5 2 10 9 2 1v2l-8 1-6-6v-2l-4-1z" fill="#BE8263"/>
<path transform="translate(728,350)" d="m0 0h19l7 2v2l-4 1-9-3-5-1v2l-5-1v3l-5 1h-12l1-3z" fill="#8A593B"/>
<path transform="translate(548,445)" d="m0 0h1l2 14v10h1v11l-5-5 2-2-4-9 1-11z" fill="#4E2120"/>
<path transform="translate(794,422)" d="m0 0 4 2 1 7-2 4-5 8-3 5 3-1 1 3 2-1-2 9h6l-3 2-4 1-1-7-4-3v-6l4-5 5-11v-4l-2-1z" fill="#C58E75"/>
<path transform="translate(806,399)" d="m0 0 2 1 1 3v15l-2 15h-1v-5l-4 3 1-8 2-7z" fill="#D9C0B2"/>
<path transform="translate(646,454)" d="m0 0 3 1v8l5 15h-2l-1-2-3-1-1 3-1-2-1-6-2-5 1-6z" fill="#FFF7EE"/>
<path transform="translate(727,344)" d="m0 0h19l2 2-19 1-16 3-8 4-4-1 8-5 10-3z" fill="#FDF5ED"/>
<path transform="translate(556,520)" d="m0 0h1v21l-4 31-3 16-2 1 1-11 5-29z" fill="#B27854"/>
<path transform="translate(827,718)" d="m0 0 9 4 19 4 10 1 2-1 1-4h2l1-2-1 7-2 3-13-1-20-4-8-3z" fill="#C28263"/>
<path transform="translate(639,833)" d="m0 0h18l10 2-1 2h-11l-5-2-13 1-11 4-3 2h-5l3-3h3v-2l8-3z" fill="#F5ECE8"/>
<path transform="translate(566,771)" d="m0 0h2l6 9-4-1-4-3-19 1 1-4z" fill="#C18162"/>
<path transform="translate(726,658)" d="m0 0 4 1 7 4 8 6-3 1-4-2-5 5-3 4h-2l-2 4-3-1 7-9 3-3v-4l-7-5z" fill="#382E45"/>
<path transform="translate(1401,857)" d="m0 0h2l-1 12v15h-5v-12l2-12z" fill="#221B1F"/>
<path transform="translate(1494,860)" d="m0 0 4 1-1 16-2 7-5 1 2-6z" fill="#271E1E"/>
<path transform="translate(920,581)" d="m0 0 1 3v2l1 2v2l2 3-1 6 2-1-1 5-2 1v-3h-2l-1 2-3-17 1-4z" fill="#FEF7F0"/>
<path transform="translate(622,689)" d="m0 0 2 1-1 10-2 11h-2l-1 9-2 2 1-14 2-12v-5z" fill="#312641"/>
<path transform="translate(219,685)" d="m0 0 3 1 4 6 5 4v2l-4 1h-8z" fill="#BD8468"/>
<path transform="translate(892,822)" d="m0 0 5 1 12 4v2l4 2h-9l-12-2-2-2 2-1z" fill="#2D2933"/>
<path transform="translate(483,483)" d="m0 0h3v5l-1 3h-3v3h-2l-1 5 2 5-5-5-3-5 5-5 2-3z" fill="#BB7E5E"/>
<path transform="translate(701,436)" d="m0 0h10l-1 6-4 1-3-2v2l-11-2v-2z" fill="#BB7D5E"/>
<path transform="translate(1296,865)" d="m0 0h3v11l-1 7-3 2h-3l2-17z" fill="#1A1416"/>
<path transform="translate(666,645)" d="m0 0h2l-2 4-10 11h-3-1v-5l-4-2 5-3 2 1-1 2 4-1 1-3z" fill="#865536"/>
<path transform="translate(678,528)" d="m0 0 6 1 8 4 7 3 6 5-2 6-2-1-1-4-5-2v-2l-16-8z" fill="#3C2B3E"/>
<path transform="translate(241,851)" d="m0 0 6 2 18 8 14 4 6 2v1l-9-1-13-4-1 2-3-2 1-1-17-8z" fill="#B07753"/>
<path transform="translate(392,802)" d="m0 0 4 1 2 2-1 5-12-1v-2h-3v-2l3-2z" fill="#2C2434"/>
<path transform="translate(640,650)" d="m0 0h6l1 5-7 3-1-3h-5l-1 5h-2v-9z" fill="#F7EBE6"/>
<path transform="translate(1663,881)" d="m0 0h2v6l-3 4h-7l-3-3v-3z" fill="#29222E"/>
<path transform="translate(1137,864)" d="m0 0h1v9h3v-6l5-2 2-1-2 6-5 5-3 8h-2l-1-15z" fill="#7F7371"/>
<path transform="translate(734,563)" d="m0 0 3 1 5 18 2 11-1 4-5-21-3-7-3 3-2 8h-1v-7l3-8z" fill="#FFF7EE"/>
<path transform="translate(1178,865)" d="m0 0h1l2 12 3 3-1 4h-5l-3-10v-6z" fill="#201819"/>
<path transform="translate(349,499)" d="m0 0v3l-8 11-13 15h-2l2-5 10-11 9-11z" fill="#392F46"/>
<path transform="translate(650,664)" d="m0 0h2l2 5-1 11h-1l-1-5h-5l-1-3-4 3 2-4z" fill="#F6EBE6"/>
<path transform="translate(747,389)" d="m0 0 2 1 2 9v8l-2-2-1-3-2 7-7 3-4-1 3-2 6-2 1-2 1-15z" fill="#D89982"/>
<path transform="translate(1249,867)" d="m0 0 5 4h2l-2 15h-3l-1-2-2-16z" fill="#533D36"/>
<path transform="translate(1315,865)" d="m0 0 5 1 3 4v8l-3 6-4-1 2-4v-8l-3-4z" fill="#1C1414"/>
<path transform="translate(818,876)" d="m0 0 4 2v8h-14l-17-1-5-2 3-1 4 1 25 1z" fill="#382E45"/>
<path transform="translate(1587,864)" d="m0 0 1 2 3 1 1 6-4 8-3-1v-12z" fill="#E8E1DF"/>
<path transform="translate(414,757)" d="m0 0h1l5 33 3 15 2 2-4-1-4-16-3-24z" fill="#392F46"/>
<path transform="translate(694,656)" d="m0 0 2 1-5 4-5 5-5 4-4 6-6 2 1-3 5-5 9-10z" fill="#392F46"/>
<path transform="translate(717,875)" d="m0 0h16l7 1v3l-1 1h-9l-13-4z" fill="#3C3148"/>
<path transform="translate(714,571)" d="m0 0h4l1 3v8l-3 2-3-1-2 5-1-3z" fill="#FBF0EB"/>
<path transform="translate(494,775)" d="m0 0h16l2 2v4l-5 1-12-5z" fill="#FBF9F9"/>
<path transform="translate(442,708)" d="m0 0h1v14l-1 11h-1l-1-7-3-1 1-13z" fill="#FEF6ED"/>
<path transform="translate(532,613)" d="m0 0 6 2v3h-2v2h6l-2 6-4 2-4-9z" fill="#865536"/>
<path transform="translate(506,307)" d="m0 0h11v1l-13 1v33h-1l-2-18v-16z" fill="#C0B1AB"/>
<path transform="translate(504,496)" d="m0 0h4v2h2l-1 5-4 1-9 1 3-6z" fill="#C28263"/>
<path transform="translate(486,430)" d="m0 0 2 2-1 4-7 4-6 3-5 4 2-4 3-4h2v-2z" fill="#3B3234"/>
<path transform="translate(1214,865)" d="m0 0 5 1-4 18h-4v-5l2-5z" fill="#251B1A"/>
<path transform="translate(688,609)" d="m0 0 1 4-4 6-3 3-5-3-1-4 6-2 5-2z" fill="#784830"/>
<path transform="translate(718,453)" d="m0 0 4 2v14h-5l-1-5 1-1z" fill="#AD7254"/>
<path transform="translate(879,485)" d="m0 0 5 2 8 8 9 12 2 5-1 3-7-12-12-13z" fill="#FDF4ED"/>
<path transform="translate(436,810)" d="m0 0 12 6 10 6 8 6-1 2-19-12-10-6z" fill="#CDC6C5"/>
<path transform="translate(339,746)" d="m0 0 4 2 17 14 8 6h-3l-12-8-7-6-5-4z" fill="#BE7F5F"/>
<path transform="translate(647,654)" d="m0 0 5 1 1 4 2-1-2 4-3 2v-2l-4-1v-2h-6l3-3z" fill="#502221"/>
<path transform="translate(1145,872)" d="m0 0 5 5 2 3v3h5l-3 2-8-1-1-1z" fill="#251E26"/>
<path transform="translate(400,361)" d="m0 0h3v2l2 1-2 3h5v3l-1 2h-7l-2-4z" fill="#935F3F"/>
<path transform="translate(581,852)" d="m0 0h7l-3 2-25 7h-5l1-2 17-5z" fill="#D4D2D4"/>
<path transform="translate(330,612)" d="m0 0h2l2 15v11l-4 1z" fill="#241F2E"/>
<path transform="translate(1650,867)" d="m0 0 2 3 1 9-1 5-4-4-1-8z" fill="#3A2B2D"/>
<path transform="translate(551,459)" d="m0 0h1l2 12v8l-3 4 1 4-2 3-3-12-1-2 4 2 1 1v-9l-1-3z" fill="#B9907D"/>
<path transform="translate(425,657)" d="m0 0 2 1 6-1-1 5-4 8-2-1z" fill="#F6EDE8"/>
<path transform="translate(595,426)" d="m0 0h1l-1 9-3 6-6 8-2-1 1-4 3-7h3z" fill="#FEF6ED"/>
<path transform="translate(945,677)" d="m0 0 4 4 8 18 2 10-2-4-3-1 1-3-10-22z" fill="#5C2F28"/>
<path transform="translate(1547,861)" d="m0 0 4 1 3 4v12l-2 1-2-6h-1l-1-9z" fill="#281C17"/>
<path transform="translate(657,687)" d="m0 0 5 2 1 2v8l-6 8h-2l2-6 2-4v-7z" fill="#35242C"/>
<path transform="translate(237,609)" d="m0 0h2l-2 10-5 3-2-5z" fill="#2A222E"/>
<path transform="translate(690,594)" d="m0 0h1v6l6-1 2-2-1 6-3 5-5-1z" fill="#0C0808"/>
<path transform="translate(1583,871)" d="m0 0h1v9l4 1-2 5-7-2v-6l3-1z" fill="#1B1311"/>
<path transform="translate(1183,861)" d="m0 0 4 1 5 4 1 6-2 5h-2l-3-12-4-3z" fill="#261C1C"/>
<path transform="translate(239,701)" d="m0 0 5 1 7 4-1 4-6-1-6-7z" fill="#2B1F30"/>
<path transform="translate(694,463)" d="m0 0h2l4 9 4 5v3l-4-1-5-6z" fill="#FCF2EC"/>
<path transform="translate(596,283)" d="m0 0 1 3-2 19h-1v-7h-2v-12z" fill="#C0896F"/>
<path transform="translate(444,703)" d="m0 0 2 2 3 8 2 20-2-3-4-20-1-4-2-1z" fill="#FEF6ED"/>
<path transform="translate(783,677)" d="m0 0 3 1-3 4v15l4 5-4-2-3-4-1-16 1-2z" fill="#FFF7EE"/>
<path transform="translate(688,616)" d="m0 0v3l-3 3 2 1-1 7 3 4-1 3v-2l-3-1-3-5-1-4 4-6z" fill="#F1E7E2"/>
<path transform="translate(705,542)" d="m0 0 5 1 5 7 1 10-2 2-4-1 4-4-6-11z" fill="#553031"/>
<path transform="translate(703,461)" d="m0 0 3 1v7l5 1 1 8 1 5-2-1-3-6-1-3h-3v-8z" fill="#BFB0A9"/>
<path transform="translate(847,832)" d="m0 0h15l-14 7-2-1v-5z" fill="#231C27"/>
<path transform="translate(627,671)" d="m0 0h1l1 6h4v-2l2-1h6l-1 3-4 1-2 5h-2l-3-3-2-1z" fill="#2B2332"/>
<path transform="translate(679,647)" d="m0 0h2l-2 4-20 20v-3l10-10 7-8z" fill="#4C292D"/>
<path transform="translate(527,362)" d="m0 0h3v2h3l-1 5-2 3-2 7h-1z" fill="#FAF4ED"/>
<path transform="translate(263,621)" d="m0 0 2 2 1 8v10l-2 5h-1z" fill="#FEFDFD"/>
<path transform="translate(1118,868)" d="m0 0h1l-1 15-5 1 2-12z" fill="#1A1418"/>
<path transform="translate(1619,864)" d="m0 0 5 2 4 5-1 6-2 1-1-8h-3l-1 2-1-2z" fill="#1B1415"/>
<path transform="translate(669,578)" d="m0 0 5 5 2 5-3 2-4-1z" fill="#070405"/>
<path transform="translate(1415,880)" d="m0 0h7l1 5h-10l-3-1v-2z" fill="#492B2F"/>
<path transform="translate(1513,860)" d="m0 0 3 1v7l-1 1-1 7-2 1-1-12z" fill="#1B1416"/>
<path transform="translate(794,422)" d="m0 0 4 2 1 7-2 4-5 8h-2l2-6 4-8v-4l-2-1z" fill="#C18162"/>
<path transform="translate(791,644)" d="m0 0 3 2 1 5-2 2h-4v-2h-2l1-6z" fill="#C28263"/>
<path transform="translate(688,529)" d="m0 0 5 1 10 6 6 5v2l-5-2-8-6-8-5z" fill="#8F5E40"/>
<path transform="translate(558,480)" d="m0 0 3 3 1 7-4 6h-3z" fill="#FBF0EB"/>
<path transform="translate(476,360)" d="m0 0 1 4-1 11-4 1v-8l1-5z" fill="#FDFBFA"/>
<path transform="translate(1696,871)" d="m0 0 3 3v11h-5l1-8z" fill="#241A18"/>
<path transform="translate(1460,861)" d="m0 0 4 1-2 15h-1v-8h-2l-2 3v-6z" fill="#3D3038"/>
<path transform="translate(1153,862)" d="m0 0 7 3v3l-5 4h-2z" fill="#2B2228"/>
<path transform="translate(689,596)" d="m0 0h1v11l4 1-2 4-6 7-2-1 4-5z" fill="#512524"/>
<path transform="translate(307,826)" d="m0 0 2 3-1 6 2 1 11 1v1l-5 1h-8l-2-2v-7z" fill="#382E45"/>
<path transform="translate(722,346)" d="m0 0h7v1l-16 3-8 4-4-1 8-5z" fill="#FCF3EC"/>
<path transform="translate(765,830)" d="m0 0h1l-1 9-5 7h-2l3-10z" fill="#2F2634"/>
<path transform="translate(438,730)" d="m0 0h1l2 14 3 7 7 2-4 1-6-1-2-4-1-8z" fill="#FDF5ED"/>
<path transform="translate(1469,867)" d="m0 0 5 1v13h3v2l-4 1-3-8z" fill="#52302F"/>
<path transform="translate(632,834)" d="m0 0h7l-2 2-11 4-3 2h-5l3-3h3v-2z" fill="#EDE3DE"/>
<path transform="translate(614,564)" d="m0 0 9 3v2l-7 1-5-3-5-1v-1z" fill="#74452F"/>
<path transform="translate(579,791)" d="m0 0 1 2 3 1 3 5v2l-3 2h-3z" fill="#1B141B"/>
<path transform="translate(528,593)" d="m0 0h1l3 12 1 8-2 2-4-16v-5z" fill="#BB7D5C"/>
<path transform="translate(865,455)" d="m0 0h1l1 7-2 4-4 1h-8l-2 2v-3l4-2 8-1 1-1z" fill="#FBF0EB"/>
<path transform="translate(738,436)" d="m0 0 5 1v6l-2 3h-3z" fill="#C28263"/>
<path transform="translate(1446,868)" d="m0 0h1v14l-4 4h-2l1-9 3 1z" fill="#412F30"/>
<path transform="translate(1413,865)" d="m0 0 1 2-4 9h-3l1-8z" fill="#503D3D"/>
<path transform="translate(688,639)" d="m0 0 8 1 9 7 1 2-5-2-7-4-6-1-2-1z" fill="#5F3029"/>
<path transform="translate(550,449)" d="m0 0 6 1-1 5-2 4h-3z" fill="#F7ECE3"/>
<path transform="translate(1457,878)" d="m0 0 2 3 4-2 1 7h-7z" fill="#21191A"/>
<path transform="translate(1582,861)" d="m0 0 5 1-1 6-1-2h-4v8h-1v-12z" fill="#604C48"/>
<path transform="translate(726,658)" d="m0 0 4 1 7 4 8 6-3 1-16-11z" fill="#683930"/>
<path transform="translate(1509,880)" d="m0 0 5 2 1 6h-7v-6z" fill="#383038"/>
<path transform="translate(1136,857)" d="m0 0h2v7l-2 4v6l-2-1-2-3-2-2h4l1-9z" fill="#433130"/>
<path transform="translate(263,863)" d="m0 0 9 2 9 3v2l-17-4z" fill="#8B5A3C"/>
<path transform="translate(538,615)" d="m0 0h7l-1 5-2 2v-2l-4 1-2-1v-2h2z" fill="#BB7F61"/>
<path transform="translate(334,504)" d="m0 0h5v2l-6 4-8 8-2-1z" fill="#413346"/>
<path transform="translate(1621,870)" d="m0 0h3l1 2v6l-3 2v-2h-2v-6z" fill="#2D2839"/>
<path transform="translate(631,652)" d="m0 0 1 2-2 8-4 4 2-13z" fill="#FEFDFD"/>
<path transform="translate(528,511)" d="m0 0 3 3v4l-3 1-1-3-5-1v-2z" fill="#C38263"/>
<path transform="translate(1253,874)" d="m0 0h1v12h-3l-1-7z" fill="#181216"/>
<path transform="translate(244,854)" d="m0 0 16 7 1 2-6-1-12-6z" fill="#926346"/>
<path transform="translate(1348,869)" d="m0 0h1v14l-1 2h-4v-2l2-1v-11h2z" fill="#1F1719"/>
<path transform="translate(1212,862)" d="m0 0 3 1-2 2-2 19h-1l-1-12 2-9z" fill="#A58474"/>
<path transform="translate(708,554)" d="m0 0 4 4v4l-5 4v-11z" fill="#8C5E43"/>
<path transform="translate(760,498)" d="m0 0h2l-1 5-4 8-3 4 1-7z" fill="#C29580"/>
<path transform="translate(1139,493)" d="m0 0h2l2 9h-1l-1 17h-1z" fill="#C8B4AC"/>
<path transform="translate(922,590)" d="m0 0 2 3-1 6 2-1-1 5-2 1-2-12h2z" fill="#FEF6ED"/>
<path transform="translate(793,453)" d="m0 0h2v2l8 2 2 3h-5l-7-2z" fill="#F1E8E4"/>
<path transform="translate(797,423)" d="m0 0 6 2-2 9-3-3z" fill="#8A5839"/>
<path transform="translate(524,406)" d="m0 0h1v19l-9-1 3-3h2v2l2-1z" fill="#BF8B72"/>
<path transform="translate(354,755)" d="m0 0 5 2 5 5 1 2-5-1-6-5z" fill="#2E2433"/>
<path transform="translate(320,676)" d="m0 0 3 1 1 8h-6z" fill="#E8DEDB"/>
<path transform="translate(527,426)" d="m0 0 11 1 2 2-8-1-1 3-7-2z" fill="#5F4345"/>
<path transform="translate(1634,879)" d="m0 0h4 1v7h-6z" fill="#130F12"/>
<path transform="translate(725,877)" d="m0 0h12l2 1v2h-9l-5-2z" fill="#372A40"/>
<path transform="translate(640,650)" d="m0 0h6l1 5-10-2-4-2z" fill="#C6BAB5"/>
<path transform="translate(753,617)" d="m0 0 3 3 3 1 1 4-1 2-4-1-2-5z" fill="#FFF7EE"/>
<path transform="translate(542,532)" d="m0 0m-1 1m-1 1v3l-3 3-14 1-1-2 14-2z" fill="#F89575"/>
<path transform="translate(1345,873)" d="m0 0h1l1 9-3 1v2h-8l4-2 4-4z" fill="#7F6F77"/>
<path transform="translate(475,669)" d="m0 0h1l1 14-1 9h-1l-1-13z" fill="#FFF7EE"/>
<path transform="translate(661,645)" d="m0 0 3 2-5 2-1 4-4 1v-3-2h3z" fill="#B27854"/>
<path transform="translate(916,574)" d="m0 0 2 1v2h2l-1 7-3-1-1-7z" fill="#FCF4ED"/>
<path transform="translate(583,424)" d="m0 0h1l1 5 2-2h2v3l-5 4-1 8h-1v-9z" fill="#F5ECE7"/>
<path transform="translate(1620,878)" d="m0 0h2l-1 5-3 3h-8v-1h5v-2z" fill="#221B22"/>
<path transform="translate(669,838)" d="m0 0h7l4 2v1l-12 1z" fill="#392D43"/>
<path transform="translate(418,790)" d="m0 0h2l3 15 2 2-4-1-3-12z" fill="#3E2E40"/>
<path transform="translate(923,614)" d="m0 0h2l3 10-1 5-2-2-2-9z" fill="#FAF6F5"/>
<path transform="translate(920,601)" d="m0 0h2l2 9-1 6h-1l-2-9z" fill="#F2EEED"/>
<path transform="translate(746,399)" d="m0 0h1v8l-2 3-6 2-4-1 3-2 6-2z" fill="#C28263"/>
<path transform="translate(790,360)" d="m0 0 5 1 13 5v1h-6l-9-4z" fill="#FEF6ED"/>
<path transform="translate(1664,869)" d="m0 0 1 4v5l2-1-1 8-1-4-4 1 1-2v-10z" fill="#4B3C3E"/>
<path transform="translate(1123,868)" d="m0 0h7l2 1-1 3h-6l-2-1z" fill="#1D1617"/>
<path transform="translate(636,588)" d="m0 0 5 1-2 5h-4z" fill="#C28263"/>
<path transform="translate(523,447)" d="m0 0h1v7l-4 1-5 5v-3h2l2-4z" fill="#D4B2A3"/>
<path transform="translate(692,442)" d="m0 0 3 1 3 4v2h-2l-1 3h-2z" fill="#E3DAD7"/>
<path transform="translate(806,423)" d="m0 0h2l-1 10h-1v-5l-4 3 1-6z" fill="#E3D0C4"/>
<path transform="translate(741,350)" d="m0 0 9 1 4 1v2l-4 1-7-3z" fill="#906042"/>
<path transform="translate(606,795)" d="m0 0h5l1 3-5 1h-8l3-2z" fill="#2D1D29"/>
<path transform="translate(1314,882)" d="m0 0 3 1 1 2-3 1h-7l-3-2z" fill="#524243"/>
<path transform="translate(1677,869)" d="m0 0h1l1 5v10h-2l-1-7z" fill="#2E282E"/>
<path transform="translate(1188,871)" d="m0 0h1v6h2l1-3v7l-4 2-1-2z" fill="#A58D87"/>
<path transform="translate(1278,856)" d="m0 0 5 1 1 4-3 1v-3h-3v6h-1v-8z" fill="#56403E"/>
<path transform="translate(651,663)" d="m0 0 3 1 2 2-1 9-2 2v-8z" fill="#D0C6C3"/>
<path transform="translate(602,565)" d="m0 0 7 1-1 4-5 2z" fill="#C17F60"/>
<path transform="translate(1660,882)" d="m0 0h2l-2 4-5 2h-3v-3z" fill="#130F12"/>
<path transform="translate(1136,874)" d="m0 0h5l-3 9h-2z" fill="#2E2324"/>
<path transform="translate(634,569)" d="m0 0 3 3-4 3-3-1-1 3v-5z" fill="#C28263"/>
<path transform="translate(547,451)" d="m0 0h1v16l-3-3 1-11z" fill="#241F2E"/>
<path transform="translate(917,589)" d="m0 0 1 2h2l1 10-2 2z" fill="#F7F4F3"/>
<path transform="translate(590,417)" d="m0 0h1l-1 9-3 2 1-10z" fill="#FDF4ED"/>
<path transform="translate(601,338)" d="m0 0 3 1-5 5-2 7h-1v-7l3-5z" fill="#FFF7EE"/>
<path transform="translate(1306,862)" d="m0 0 5 1 6 1-4 3-1-2h-3l-1 2v-2l-3-1z" fill="#543C3A"/>
<path transform="translate(426,807)" d="m0 0 5 1 8 5-3 1-10-6z" fill="#5D322B"/>
<path transform="translate(318,701)" d="m0 0 3 1 1 4-2 2h-3v-6z" fill="#FBF0EB"/>
<path transform="translate(517,556)" d="m0 0 3 4 1 3v8l-2-3-2-8z" fill="#B37955"/>
<path transform="translate(587,430)" d="m0 0 1 2-4 11h-1v-9z" fill="#FFF7EE"/>
<path transform="translate(804,428)" d="m0 0h2v6l-3 3-1-6z" fill="#FDFBFB"/>
</svg>
