<?xml version="1.0" encoding="UTF-8"?>
<svg version="1.1" xmlns="http://www.w3.org/2000/svg" width="300" height="168">
<path d="M0 0 C99 0 198 0 300 0 C300 55.44 300 110.88 300 168 C201 168 102 168 0 168 C0 112.56 0 57.12 0 0 Z " fill="#FDFDFD" transform="translate(0,0)"/>
<path d="M0 0 C1.32451172 0.01353516 1.32451172 0.01353516 2.67578125 0.02734375 C3.67158203 0.04474609 3.67158203 0.04474609 4.6875 0.0625 C4.97295428 8.19794686 3.87146883 16.03899696 2.6875 24.0625 C1.3675 24.0625 0.0475 24.0625 -1.3125 24.0625 C-0.8175 28.0225 -0.8175 28.0225 -0.3125 32.0625 C3.11231935 33.88907032 5.71475788 34.11247267 9.5 33.9375 C14.91250462 33.79143541 18.07086319 35.32671522 22.6875 38.0625 C22.17224397 43.34387429 20.43272883 46.63471156 17.6875 51.0625 C18.22375 51.330625 18.76 51.59875 19.3125 51.875 C20.09625 52.266875 20.88 52.65875 21.6875 53.0625 C22.71875 53.536875 23.75 54.01125 24.8125 54.5 C27.6875 56.0625 27.6875 56.0625 29.6875 59.0625 C29.6875 60.0525 29.6875 61.0425 29.6875 62.0625 C30.6775 61.7325 31.6675 61.4025 32.6875 61.0625 C32.34522428 58.09184491 32.34522428 58.09184491 31.6875 55.0625 C31.0275 54.7325 30.3675 54.4025 29.6875 54.0625 C28.63218394 48.90538943 28.56274659 43.85907487 28.625 38.625 C28.62951172 37.89345703 28.63402344 37.16191406 28.63867188 36.40820312 C28.65031852 34.62626581 28.66824809 32.84437137 28.6875 31.0625 C27.718125 30.794375 26.74875 30.52625 25.75 30.25 C24.739375 29.858125 23.72875 29.46625 22.6875 29.0625 C22.1925 27.5775 22.1925 27.5775 21.6875 26.0625 C21.0275 26.0625 20.3675 26.0625 19.6875 26.0625 C16.1987388 21.76864007 16.41895978 18.34379105 16.6875 13.0625 C22.74810606 9.0625 22.74810606 9.0625 26.5625 9.0625 C39.30288462 13.13942308 39.30288462 13.13942308 42.6875 19.0625 C43.4375 22.375 43.4375 22.375 43.6875 25.0625 C40.3125 25.6875 40.3125 25.6875 36.6875 26.0625 C35.6975 25.0725 35.6975 25.0725 34.6875 24.0625 C34.3575 25.3825 34.0275 26.7025 33.6875 28.0625 C34.6775 27.5675 34.6775 27.5675 35.6875 27.0625 C39.53769902 26.62497738 41.4138638 26.91763378 44.875 28.75 C50.96529789 33.75757827 51.68526542 39.84763069 53.06054688 47.20507812 C53.85922663 51.16505931 54.74857762 54.36567827 56.796875 57.86328125 C59.62264161 63.14772093 59.1588309 68.58546362 59 74.4375 C58.99033203 75.52933594 58.98066406 76.62117188 58.97070312 77.74609375 C58.85702328 85.72345344 58.85702328 85.72345344 57.6875 88.0625 C53.7500162 88.09196879 49.81256144 88.10945407 45.875 88.125 C44.77478516 88.13337891 43.67457031 88.14175781 42.54101562 88.15039062 C33.05168849 88.17838274 23.75399406 88.08466469 14.6875 85.0625 C14.6875 83.4125 14.6875 81.7625 14.6875 80.0625 C10.9478399 81.07532461 7.4341105 82.15802481 3.875 83.6875 C-0.0944265 85.22183601 -3.48739768 85.18215456 -7.69921875 85.03515625 C-10.42030997 85.06362806 -12.78169964 85.4851521 -15.4375 86.0625 C-26.15425452 88.15727638 -38.65643344 88.88754178 -48.3125 83.0625 C-56.04678905 76.6368893 -60.2637909 68.02523647 -61.3125 58.0625 C-57.6825 58.0625 -54.0525 58.0625 -50.3125 58.0625 C-50.2196875 55.95875 -50.2196875 55.95875 -50.125 53.8125 C-50.01953125 51.421875 -50.01953125 51.421875 -49.3125 49.0625 C-47.6625 47.7425 -46.0125 46.4225 -44.3125 45.0625 C-43.9825 50.0125 -43.6525 54.9625 -43.3125 60.0625 C-41.6625 60.3925 -40.0125 60.7225 -38.3125 61.0625 C-37.6532376 57.18479122 -37.25637009 53.50971705 -37.27734375 49.57421875 C-37.2735296 40.28771908 -36.98324139 33.82724274 -30.515625 26.58203125 C-27.8633736 24.75273019 -26.45976395 24.93597192 -23.3125 25.0625 C-22.80634729 28.93672208 -22.30867279 32.81198817 -21.8125 36.6875 C-21.66941406 37.78191406 -21.52632812 38.87632813 -21.37890625 40.00390625 C-21.17587891 41.59912109 -21.17587891 41.59912109 -20.96875 43.2265625 C-20.84306641 44.20061035 -20.71738281 45.1746582 -20.58789062 46.17822266 C-20.30343981 49.15739105 -20.26594993 52.07165797 -20.3125 55.0625 C-19.6525 55.0625 -18.9925 55.0625 -18.3125 55.0625 C-18.03664062 54.21429688 -17.76078125 53.36609375 -17.4765625 52.4921875 C-16.29795009 49.01963146 -15.01319594 45.60640005 -13.6875 42.1875 C-13.24148437 41.03507812 -12.79546875 39.88265625 -12.3359375 38.6953125 C-11.99820313 37.82648438 -11.66046875 36.95765625 -11.3125 36.0625 C-10.6525 36.0625 -9.9925 36.0625 -9.3125 36.0625 C-10.09380071 33.56697516 -10.09380071 33.56697516 -11.3125 31.0625 C-12.3025 30.7325 -13.2925 30.4025 -14.3125 30.0625 C-14.5 27.25 -14.5 27.25 -14.3125 24.0625 C-13.58003052 23.365802 -13.58003052 23.365802 -12.83276367 22.6550293 C-10.81884008 20.54537399 -10.89252925 19.2754186 -10.80078125 16.39453125 C-10.76533203 15.50185547 -10.72988281 14.60917969 -10.69335938 13.68945312 C-10.67080078 12.76068359 -10.64824219 11.83191406 -10.625 10.875 C-10.59083984 9.93462891 -10.55667969 8.99425781 -10.52148438 8.02539062 C-10.43901782 5.70454607 -10.36986597 3.38407852 -10.3125 1.0625 C-6.80493253 0.25986744 -3.59518248 -0.04793577 0 0 Z " fill="#D7CDD2" transform="translate(82.3125,41.9375)"/>
<path d="M0 0 C4.76478924 1.89968721 8.13492984 3.59940848 10.765625 8.203125 C11.515625 11.515625 11.515625 11.515625 11.765625 14.203125 C8.390625 14.828125 8.390625 14.828125 4.765625 15.203125 C4.105625 14.543125 3.445625 13.883125 2.765625 13.203125 C2.435625 14.523125 2.105625 15.843125 1.765625 17.203125 C2.425625 16.873125 3.085625 16.543125 3.765625 16.203125 C7.61582402 15.76560238 9.4919888 16.05825878 12.953125 17.890625 C19.04342289 22.89820327 19.76339042 28.98825569 21.13867188 36.34570312 C21.93735163 40.30568431 22.82670262 43.50630327 24.875 47.00390625 C27.70076661 52.28834593 27.2369559 57.72608862 27.078125 63.578125 C27.06362305 65.21587891 27.06362305 65.21587891 27.04882812 66.88671875 C26.93514828 74.86407844 26.93514828 74.86407844 25.765625 77.203125 C21.8281412 77.23259379 17.89068644 77.25007907 13.953125 77.265625 C12.85291016 77.27400391 11.75269531 77.28238281 10.61914062 77.29101562 C-9.56243318 77.35054829 -9.56243318 77.35054829 -16.234375 73.203125 C-16.234375 72.213125 -16.234375 71.223125 -16.234375 70.203125 C-15.244375 70.203125 -14.254375 70.203125 -13.234375 70.203125 C-13.234375 68.553125 -13.234375 66.903125 -13.234375 65.203125 C-14.224375 65.203125 -15.214375 65.203125 -16.234375 65.203125 C-18.3447185 60.92427894 -18.47566239 57.06448358 -18.359375 52.390625 C-18.35035156 51.69775391 -18.34132813 51.00488281 -18.33203125 50.29101562 C-18.30863657 48.59490105 -18.27277141 46.89896629 -18.234375 45.203125 C-18.894375 45.203125 -19.554375 45.203125 -20.234375 45.203125 C-20.564375 51.473125 -20.894375 57.743125 -21.234375 64.203125 C-23.874375 64.533125 -26.514375 64.863125 -29.234375 65.203125 C-29.894375 63.223125 -30.554375 61.243125 -31.234375 59.203125 C-30.47125 59.079375 -29.708125 58.955625 -28.921875 58.828125 C-25.10500775 56.52025178 -24.98480065 53.87301999 -23.92578125 49.69140625 C-23.13617859 46.84972888 -21.92233185 44.61449192 -20.234375 42.203125 C-21.1625 42.0175 -21.1625 42.0175 -22.109375 41.828125 C-24.234375 41.203125 -24.234375 41.203125 -26.234375 39.203125 C-26.53497443 36.83803139 -26.72952512 34.45870619 -26.859375 32.078125 C-26.93414062 30.79679687 -27.00890625 29.51546875 -27.0859375 28.1953125 C-27.13492188 27.20789063 -27.18390625 26.22046875 -27.234375 25.203125 C-23.44428818 22.67640045 -21.74240158 22.75971255 -17.234375 23.203125 C-14.43884104 24.32720334 -11.83688031 25.68894009 -9.234375 27.203125 C-9.74963103 32.48449929 -11.48914617 35.77533656 -14.234375 40.203125 C-13.698125 40.47125 -13.161875 40.739375 -12.609375 41.015625 C-11.825625 41.4075 -11.041875 41.799375 -10.234375 42.203125 C-9.203125 42.6775 -8.171875 43.151875 -7.109375 43.640625 C-4.234375 45.203125 -4.234375 45.203125 -2.234375 48.203125 C-2.234375 49.193125 -2.234375 50.183125 -2.234375 51.203125 C-0.749375 50.708125 -0.749375 50.708125 0.765625 50.203125 C0.42334928 47.23246991 0.42334928 47.23246991 -0.234375 44.203125 C-0.894375 43.873125 -1.554375 43.543125 -2.234375 43.203125 C-3.28969106 38.04601443 -3.35912841 32.99969987 -3.296875 27.765625 C-3.29236328 27.03408203 -3.28785156 26.30253906 -3.28320312 25.54882812 C-3.27155648 23.76689081 -3.25362691 21.98499637 -3.234375 20.203125 C-4.20375 19.935 -5.173125 19.666875 -6.171875 19.390625 C-7.1825 18.99875 -8.193125 18.606875 -9.234375 18.203125 C-9.564375 17.213125 -9.894375 16.223125 -10.234375 15.203125 C-10.894375 15.203125 -11.554375 15.203125 -12.234375 15.203125 C-15.7231362 10.90926507 -15.50291522 7.48441605 -15.234375 2.203125 C-9.36533972 -1.67043829 -6.78873024 -2.42115554 0 0 Z " fill="#894E2D" transform="translate(114.234375,52.796875)"/>
<path d="M0 0 C0.69538919 5.51330605 1.38909155 11.02682089 2.08129883 16.54052734 C2.31652352 18.41232904 2.55219191 20.28407504 2.78833008 22.15576172 C3.12961446 24.86150468 3.4692498 27.56745057 3.80859375 30.2734375 C3.91280136 31.09677582 4.01700897 31.92011414 4.12437439 32.7684021 C6 47.77057442 6 47.77057442 6 52 C8.01791336 53.58969247 8.01791336 53.58969247 10.5 55.125 C11.3353125 55.66382813 12.170625 56.20265625 13.03125 56.7578125 C13.6809375 57.16773438 14.330625 57.57765625 15 58 C10.10107926 62.89892074 0.56908343 62.26859607 -6 62.375 C-14.03079807 62.33062573 -20.98875866 61.3325203 -27.30859375 56.08203125 C-33.55219914 49.60930273 -37.05724829 41.95614123 -38 33 C-34.37 33 -30.74 33 -27 33 C-26.9071875 30.89625 -26.9071875 30.89625 -26.8125 28.75 C-26.70703125 26.359375 -26.70703125 26.359375 -26 24 C-24.35 22.68 -22.7 21.36 -21 20 C-20.67 24.95 -20.34 29.9 -20 35 C-18.35 35.33 -16.7 35.66 -15 36 C-14.3407376 32.12229122 -13.94387009 28.44721705 -13.96484375 24.51171875 C-13.9610296 15.22521908 -13.67074139 8.76474274 -7.203125 1.51953125 C-4.5508736 -0.30976981 -3.14726395 -0.12652808 0 0 Z " fill="#7F4D35" transform="translate(59,67)"/>
<path d="M0 0 C2.79553396 1.12407834 5.39749469 2.48581509 8 4 C7.48474397 9.28137429 5.74522883 12.57221156 3 17 C3.53625 17.268125 4.0725 17.53625 4.625 17.8125 C5.40875 18.204375 6.1925 18.59625 7 19 C8.010625 19.4125 9.02125 19.825 10.0625 20.25 C13.77355614 22.46084196 14.43827669 23.99127417 16 28 C16.43573426 30.99102724 16.46505598 33.91886713 16.4375 36.9375 C16.4674707 38.09668945 16.4674707 38.09668945 16.49804688 39.27929688 C16.49323163 44.97573544 15.17518706 48.27808816 12 53 C7.94393835 52.53199289 4.53411321 52.12046792 1 50 C1 49.01 1 48.02 1 47 C1.99 47 2.98 47 4 47 C4 45.35 4 43.7 4 42 C3.01 42 2.02 42 1 42 C-1.1103435 37.72115394 -1.24128739 33.86135858 -1.125 29.1875 C-1.11597656 28.49462891 -1.10695313 27.80175781 -1.09765625 27.08789062 C-1.07426157 25.39177605 -1.03839641 23.69584129 -1 22 C-1.66 22 -2.32 22 -3 22 C-3.33 28.27 -3.66 34.54 -4 41 C-6.64 41.33 -9.28 41.66 -12 42 C-12.66 40.02 -13.32 38.04 -14 36 C-13.236875 35.87625 -12.47375 35.7525 -11.6875 35.625 C-7.87063275 33.31712678 -7.75042565 30.66989499 -6.69140625 26.48828125 C-5.90180359 23.64660388 -4.68795685 21.41136692 -3 19 C-3.61875 18.87625 -4.2375 18.7525 -4.875 18.625 C-7 18 -7 18 -9 16 C-9.30059943 13.63490639 -9.49515012 11.25558119 -9.625 8.875 C-9.69976562 7.59367187 -9.77453125 6.31234375 -9.8515625 4.9921875 C-9.90054688 4.00476563 -9.94953125 3.01734375 -10 2 C-6.20991318 -0.52672455 -4.50802658 -0.44341245 0 0 Z " fill="#2D2242" transform="translate(97,76)"/>
<path d="M0 0 C1.98 0 3.96 0 6 0 C6 0.33 6 0.66 6 1 C4.35 1 2.7 1 1 1 C1.01571045 1.59014893 1.0314209 2.18029785 1.04760742 2.78833008 C1.10997939 5.46295586 1.14899657 8.13742864 1.1875 10.8125 C1.21263672 11.74126953 1.23777344 12.67003906 1.26367188 13.62695312 C1.27333984 14.51962891 1.28300781 15.41230469 1.29296875 16.33203125 C1.3086792 17.15421143 1.32438965 17.9763916 1.34057617 18.82348633 C0.92011541 21.51051693 -0.04488326 22.19671242 -2 24 C-2.58345476 26.95746492 -2.58345476 26.95746492 -2 30 C-0.08333079 32.25065102 -0.08333079 32.25065102 2 34 C2 34.66 2 35.32 2 36 C1.34 36 0.68 36 0 36 C-0.17015625 36.70125 -0.3403125 37.4025 -0.515625 38.125 C-2.07268862 44.22073842 -3.98006321 49.48080518 -7 55 C-7.66 55 -8.32 55 -9 55 C-9.51083558 51.68907899 -10.00663214 48.37606521 -10.5 45.0625 C-10.64308594 44.13630859 -10.78617188 43.21011719 -10.93359375 42.25585938 C-11.79167513 36.43316429 -12.14486785 30.88525633 -12 25 C-13.65 25 -15.3 25 -17 25 C-17.3403125 25.804375 -17.3403125 25.804375 -17.6875 26.625 C-19 29 -19 29 -21.5390625 31.55859375 C-24.88508342 35.52514506 -24.70707575 39.43002392 -24.6875 44.4375 C-24.7479103 50.35306259 -25.09795869 55.3696546 -27 61 C-28.66611905 61.042721 -30.33382885 61.04063832 -32 61 C-33.94090826 59.05909174 -33.39919435 55.52706098 -33.5625 52.9375 C-33.64628906 51.64714844 -33.73007812 50.35679688 -33.81640625 49.02734375 C-33.87699219 48.02832031 -33.93757813 47.02929688 -34 46 C-35.32 46.99 -36.64 47.98 -38 49 C-39.1577506 45.52674819 -39.06866652 42.63932552 -39 39 C-35.95613276 38.91773332 -33.92824652 39.02391783 -31 40 C-29.31369881 36.48966871 -29.31369881 36.48966871 -29.375 32.6875 C-29.58125 32.130625 -29.7875 31.57375 -30 31 C-27.69 30.34 -25.38 29.68 -23 29 C-23 28.34 -23 27.68 -23 27 C-22.34 27 -21.68 27 -21 27 C-21 26.34 -21 25.68 -21 25 C-21.66 24.67 -22.32 24.34 -23 24 C-20.03 23.01 -17.06 22.02 -14 21 C-13.67 21.66 -13.34 22.32 -13 23 C-13.2475 21.515 -13.2475 21.515 -13.5 20 C-14.08474517 15.97267058 -14.07132024 12.06525377 -14 8 C-12.906875 7.731875 -11.81375 7.46375 -10.6875 7.1875 C-7.21307994 6.06861896 -6.30547678 5.53602446 -4 3 C-3.01 3 -2.02 3 -1 3 C-0.67 2.01 -0.34 1.02 0 0 Z " fill="#F7EBE5" transform="translate(71,42)"/>
<path d="M0 0 C1.47906892 -0.02689216 2.95827483 -0.04634621 4.4375 -0.0625 C5.26121094 -0.07410156 6.08492188 -0.08570313 6.93359375 -0.09765625 C9 0 9 0 10 1 C10 3.64 10 6.28 10 9 C15.94 8.67 21.88 8.34 28 8 C28 9.32 28 10.64 28 12 C26.02 12.99 24.04 13.98 22 15 C21.95875 16.27875 21.9175 17.5575 21.875 18.875 C21.85179688 19.59429687 21.82859375 20.31359375 21.8046875 21.0546875 C21.81668311 23.23863645 21.81668311 23.23863645 24 25 C24 25.99 24 26.98 24 28 C24.66 28 25.32 28 26 28 C26.66 28.99 27.32 29.98 28 31 C29.98 31.33 31.96 31.66 34 32 C34 39.92 34 47.84 34 56 C34.99 56.33 35.98 56.66 37 57 C37.495 60.465 37.495 60.465 38 64 C36.68 64 35.36 64 34 64 C33.79375 63.05125 33.5875 62.1025 33.375 61.125 C32.31713145 57.74270092 32.31713145 57.74270092 29.125 56.8125 C28.09375 56.544375 27.0625 56.27625 26 56 C23.625 54.375 23.625 54.375 22 53 C23.02080734 50.44798165 24.04219733 47.90153956 25.125 45.375 C26.17285268 42.95267129 26.17285268 42.95267129 26 40 C20.79939486 37.2866408 17.20031082 36.88044663 11.37890625 37.09375 C8.07596801 36.96358495 5.76057724 35.74352247 3 34 C3 31.36 3 28.72 3 26 C4.32 26 5.64 26 7 26 C7.66 18.08 8.32 10.16 9 2 C6.36 2 3.72 2 1 2 C0.67 1.34 0.34 0.68 0 0 Z " fill="#F6E9E5" transform="translate(78,40)"/>
<path d="M0 0 C0.69538919 5.51330605 1.38909155 11.02682089 2.08129883 16.54052734 C2.31652352 18.41232904 2.55219191 20.28407504 2.78833008 22.15576172 C3.12961446 24.86150468 3.4692498 27.56745057 3.80859375 30.2734375 C3.91280136 31.09677582 4.01700897 31.92011414 4.12437439 32.7684021 C4.84147315 38.50410921 5.44858328 44.24606567 6 50 C3.875 50.75 3.875 50.75 1 51 C-2 49.375 -2 49.375 -5 47 C-5.9075 46.34 -6.815 45.68 -7.75 45 C-11.2613792 40.31816107 -11.44411769 35.73031871 -12 30 C-12.09893555 29.2251123 -12.19787109 28.45022461 -12.29980469 27.65185547 C-14.45643665 10.455204 -14.45643665 10.455204 -9.375 3.75 C-6.18535397 0.31134814 -4.59092163 -0.18063266 0 0 Z " fill="#2F233E" transform="translate(59,67)"/>
<path d="M0 0 C0.66 0 1.32 0 2 0 C3.13105854 4.24146951 3.02066626 8.26920099 2.96875 12.6171875 C3.00236689 15.18047551 3.33933512 17.52250671 4 20 C4.99 20 5.98 20 7 20 C7 21.65 7 23.3 7 25 C6.01 25 5.02 25 4 25 C4.495 26.98 4.495 26.98 5 29 C4.34 29 3.68 29 3 29 C3 27.35 3 25.7 3 24 C-1.45517991 25.20661123 -5.6638477 26.6006284 -9.91015625 28.4140625 C-14.07375277 29.58142601 -17.04861842 29.45872428 -20.95703125 27.57421875 C-21.89933594 26.95160156 -22.84164062 26.32898438 -23.8125 25.6875 C-24.76769531 25.07261719 -25.72289063 24.45773438 -26.70703125 23.82421875 C-29 22 -29 22 -30 19 C-30.03920815 17.00038436 -30.04443347 14.99950636 -30 13 C-24.555 14.485 -24.555 14.485 -19 16 C-19.33 14.35 -19.66 12.7 -20 11 C-20.03824623 8.66698014 -20.04574284 6.33288492 -20 4 C-18.87851563 4.01740234 -18.87851563 4.01740234 -17.734375 4.03515625 C-16.74953125 4.04417969 -15.7646875 4.05320312 -14.75 4.0625 C-13.77546875 4.07410156 -12.8009375 4.08570312 -11.796875 4.09765625 C-9.34241322 4.01195577 -7.33831086 3.70706066 -5 3 C-4.09020229 6.55648196 -3.76594372 8.43333744 -5.1875 11.875 C-5.785625 12.57625 -6.38375 13.2775 -7 14 C-8.32 14 -9.64 14 -11 14 C-10.00864359 16.6273026 -10.00864359 16.6273026 -8 19 C-4.41910988 19.20845768 -4.41910988 19.20845768 -1 19 C-1.01160156 17.87980469 -1.02320312 16.75960937 -1.03515625 15.60546875 C-1.04453622 14.13281417 -1.0536362 12.66015778 -1.0625 11.1875 C-1.07087891 10.44951172 -1.07925781 9.71152344 -1.08789062 8.95117188 C-1.10259828 5.70077932 -1.03531702 3.10595105 0 0 Z " fill="#CE7E68" transform="translate(94,98)"/>
<path d="M0 0 C3.50509783 2.666271 4.09912597 6.23302726 5.0625 10.3125 C7.16803757 18.94416182 7.16803757 18.94416182 10.609375 27.10546875 C12.86325918 32.26470615 12.35576644 37.78950849 12.25 43.3125 C12.24484375 44.40884766 12.2396875 45.50519531 12.234375 46.63476562 C12.15486351 54.69027297 12.15486351 54.69027297 11 57 C7.37 57 3.74 57 0 57 C0 55.35 0 53.7 0 52 C-1.65 52 -3.3 52 -5 52 C-5 51.01 -5 50.02 -5 49 C-3.35 49 -1.7 49 0 49 C-0.02320313 48.35933594 -0.04640625 47.71867187 -0.0703125 47.05859375 C-0.18440863 41.59012904 0.20208096 37.16901723 2 32 C1.34 32 0.68 32 0 32 C0.0721875 31.37996094 0.144375 30.75992188 0.21875 30.12109375 C1.84861021 15.96382338 1.84861021 15.96382338 0 2 C0 1.34 0 0.68 0 0 Z " fill="#5C5170" transform="translate(129,73)"/>
<path d="M0 0 C2 2 2 2 2 5 C3.32 5.33 4.64 5.66 6 6 C6 6.66 6 7.32 6 8 C9.3 7.67 12.6 7.34 16 7 C15.34 12.28 14.68 17.56 14 23 C12.35 23 10.7 23 9 23 C9 23.99 9 24.98 9 26 C10.65 26 12.3 26 14 26 C14 27.65 14 29.3 14 31 C11.79173622 31.02722517 9.58337362 31.04649729 7.375 31.0625 C6.14523438 31.07410156 4.91546875 31.08570313 3.6484375 31.09765625 C0.32276209 31.00863924 -2.74047588 30.63686087 -6 30 C-5.38722388 27.03824877 -4.74627478 25.61941217 -3 23 C-2.63648496 20.97457852 -2.63648496 20.97457852 -2.5859375 18.76953125 C-2.54726562 17.96708984 -2.50859375 17.16464844 -2.46875 16.33789062 C-2.4378125 15.50451172 -2.406875 14.67113281 -2.375 13.8125 C-2.33632812 12.96751953 -2.29765625 12.12253906 -2.2578125 11.25195312 C-2.16363721 9.16832476 -2.08073325 7.08419247 -2 5 C-1.34 4.67 -0.68 4.34 0 4 C0 2.68 0 1.36 0 0 Z " fill="#EE9371" transform="translate(115,99)"/>
<path d="M0 0 C0.88300781 0.00902344 1.76601562 0.01804688 2.67578125 0.02734375 C3.67158203 0.04474609 3.67158203 0.04474609 4.6875 0.0625 C4.97295428 8.19794686 3.87146883 16.03899696 2.6875 24.0625 C1.3675 24.0625 0.0475 24.0625 -1.3125 24.0625 C-1.6425 25.3825 -1.9725 26.7025 -2.3125 28.0625 C-3.6325 27.0725 -4.9525 26.0825 -6.3125 25.0625 C-6.9725 25.7225 -7.6325 26.3825 -8.3125 27.0625 C-9.3025 27.0625 -10.2925 27.0625 -11.3125 27.0625 C-11.6425 28.0525 -11.9725 29.0425 -12.3125 30.0625 C-12.9725 30.0625 -13.6325 30.0625 -14.3125 30.0625 C-14.5 27.25 -14.5 27.25 -14.3125 24.0625 C-13.58003052 23.365802 -13.58003052 23.365802 -12.83276367 22.6550293 C-10.81884008 20.54537399 -10.89252925 19.2754186 -10.80078125 16.39453125 C-10.76533203 15.50185547 -10.72988281 14.60917969 -10.69335938 13.68945312 C-10.67080078 12.76068359 -10.64824219 11.83191406 -10.625 10.875 C-10.59083984 9.93462891 -10.55667969 8.99425781 -10.52148438 8.02539062 C-10.43901782 5.70454607 -10.36986597 3.38407852 -10.3125 1.0625 C-6.80493253 0.25986744 -3.59518248 -0.04793577 0 0 Z " fill="#A67F66" transform="translate(82.3125,41.9375)"/>
<path d="M0 0 C2.79553396 1.12407834 5.39749469 2.48581509 8 4 C7.48474397 9.28137429 5.74522883 12.57221156 3 17 C3.66 17.33 4.32 17.66 5 18 C3.02 19.65 1.04 21.3 -1 23 C-1.66 22.67 -2.32 22.34 -3 22 C-3.33 28.27 -3.66 34.54 -4 41 C-6.64 41.33 -9.28 41.66 -12 42 C-12.66 40.02 -13.32 38.04 -14 36 C-13.236875 35.87625 -12.47375 35.7525 -11.6875 35.625 C-7.87063275 33.31712678 -7.75042565 30.66989499 -6.69140625 26.48828125 C-5.90180359 23.64660388 -4.68795685 21.41136692 -3 19 C-3.61875 18.87625 -4.2375 18.7525 -4.875 18.625 C-7 18 -7 18 -9 16 C-9.30059943 13.63490639 -9.49515012 11.25558119 -9.625 8.875 C-9.69976562 7.59367187 -9.77453125 6.31234375 -9.8515625 4.9921875 C-9.90054688 4.00476563 -9.94953125 3.01734375 -10 2 C-6.20991318 -0.52672455 -4.50802658 -0.44341245 0 0 Z " fill="#DD8C72" transform="translate(97,76)"/>
<path d="M0 0 C5.31647157 4.90751222 5.31647157 4.90751222 6 9 C6.06926968 11.75970408 6.0941736 14.49196042 6.0625 17.25 C6.05798828 17.99507812 6.05347656 18.74015625 6.04882812 19.5078125 C6.03709246 21.3385764 6.0191585 23.16929873 6 25 C5.34 25 4.68 25 4 25 C4 25.66 4 26.32 4 27 C3.01 26.67 2.02 26.34 1 26 C1 25.34 1 24.68 1 24 C0.34 24 -0.32 24 -1 24 C-1 24.99 -1 25.98 -1 27 C-0.34 27.33 0.32 27.66 1 28 C1.33 28.66 1.66 29.32 2 30 C0.35 30.66 -1.3 31.32 -3 32 C-3.33 30.68 -3.66 29.36 -4 28 C-4.72316406 29.13888672 -4.72316406 29.13888672 -5.4609375 30.30078125 C-6.09257813 31.29464844 -6.72421875 32.28851563 -7.375 33.3125 C-8.00148438 34.29863281 -8.62796875 35.28476563 -9.2734375 36.30078125 C-10.49651613 38.21287929 -11.7409356 40.1114034 -13 42 C-13.33 38.7 -13.66 35.4 -14 32 C-13.34 32 -12.68 32 -12 32 C-11.72414063 31.15179688 -11.44828125 30.30359375 -11.1640625 29.4296875 C-9.98545009 25.95713146 -8.70069594 22.54390005 -7.375 19.125 C-6.92898437 17.97257812 -6.48296875 16.82015625 -6.0234375 15.6328125 C-5.68570313 14.76398438 -5.34796875 13.89515625 -5 13 C-4.34 13 -3.68 13 -3 13 C-4.11854586 9.27385847 -4.11854586 9.27385847 -7 7 C-4.9413783 3.91206745 -4.1446688 3.52161393 -1 2 C-0.67 1.34 -0.34 0.68 0 0 Z " fill="#D6CAD0" transform="translate(76,65)"/>
<path d="M0 0 C3.125 0.375 3.125 0.375 6 1 C9.92621529 11.17388327 8.42553025 22.58321385 6 33 C6.66 33.33 7.32 33.66 8 34 C4.52674819 35.1577506 1.63932552 35.06866652 -2 35 C-2 34.34 -2 33.68 -2 33 C-2.66 32.67 -3.32 32.34 -4 32 C-3.34 32 -2.68 32 -2 32 C-2.01047363 31.10168457 -2.02094727 30.20336914 -2.03173828 29.27783203 C-2.0657947 25.94935553 -2.09088618 22.62106378 -2.10986328 19.29248047 C-2.11992963 17.85104453 -2.1335838 16.40962905 -2.15087891 14.96826172 C-2.17510012 12.89806066 -2.18647641 10.82812924 -2.1953125 8.7578125 C-2.20578613 7.5114502 -2.21625977 6.26508789 -2.22705078 4.98095703 C-2 2 -2 2 0 0 Z " fill="#B9744D" transform="translate(123,72)"/>
<path d="M0 0 C0.66 0 1.32 0 2 0 C2.09796875 0.61488281 2.1959375 1.22976562 2.296875 1.86328125 C3.09729068 6.96900778 3.09729068 6.96900778 6.125 10.9375 C6.74375 11.288125 7.3625 11.63875 8 12 C8 12.66 8 13.32 8 14 C8.66 14.2475 9.32 14.495 10 14.75 C16.58029934 17.49179139 22.29330986 20.7199824 28 25 C23.3100317 29.6899683 14.82079009 29.10410229 8.50830078 29.13623047 C5.33775328 29.12001464 2.16980469 29.07158906 -1 29 C-1 28.67 -1 28.34 -1 28 C2.96 27.505 2.96 27.505 7 27 C6.34 25.68 5.68 24.36 5 23 C8.63 22.67 12.26 22.34 16 22 C16 21.34 16 20.68 16 20 C9.42150508 19.04505719 3.58183362 19.1068493 -3 20 C-3.35482211 12.78528371 -2.1591338 6.87581298 0 0 Z " fill="#AE7E68" transform="translate(46,100)"/>
<path d="M0 0 C0.33 0 0.66 0 1 0 C1.495 7.92 1.495 7.92 2 16 C1.34 16 0.68 16 0 16 C-1.28134207 22.65551466 -2.33644956 29.25390382 -3 36 C-2.34773438 35.855625 -1.69546875 35.71125 -1.0234375 35.5625 C8.43175487 33.55431755 8.43175487 33.55431755 13 34 C13.99 34.66 14.98 35.32 16 36 C16 36.66 16 37.32 16 38 C12.7 38.66 9.4 39.32 6 40 C6.33 40.99 6.66 41.98 7 43 C8.485 43.495 8.485 43.495 10 44 C-7.19077023 44.80581735 -7.19077023 44.80581735 -13 40 C-15.51662707 37.46401426 -17.80913016 34.82074492 -20 32 C-16.79604584 32 -14.90600261 32.74335022 -12 34 C-11.34 33.01 -10.68 32.02 -10 31 C-9.34 32.98 -8.68 34.96 -8 37 C-7.74605469 35.865625 -7.49210937 34.73125 -7.23046875 33.5625 C-6.88310278 32.04160034 -6.53543007 30.52077071 -6.1875 29 C-6.02185547 28.25621094 -5.85621094 27.51242188 -5.68554688 26.74609375 C-4.81967143 22.98852105 -3.8348264 19.42872487 -2.40625 15.84375 C-1.05002851 12.37952127 -0.52471216 9.23493398 -0.3125 5.5 C-0.24675781 4.4584375 -0.18101563 3.416875 -0.11328125 2.34375 C-0.07589844 1.5703125 -0.03851563 0.796875 0 0 Z " fill="#7E5140" transform="translate(46,84)"/>
<path d="M0 0 C0.33 0.66 0.66 1.32 1 2 C0.34 2 -0.32 2 -1 2 C-1.309375 3.0209375 -1.309375 3.0209375 -1.625 4.0625 C-2.92931325 6.8489874 -3.91897921 7.98670834 -6.0390625 10.08984375 C-9.75414585 14.34594239 -9.82788725 18.02193028 -9.75 23.5 C-9.77800331 29.40869736 -10.09505949 34.37588992 -12 40 C-13.66611905 40.042721 -15.33382885 40.04063832 -17 40 C-18.94090826 38.05909174 -18.39919435 34.52706098 -18.5625 31.9375 C-18.64628906 30.64714844 -18.73007812 29.35679688 -18.81640625 28.02734375 C-18.87699219 27.02832031 -18.93757813 26.02929688 -19 25 C-20.32 25.99 -21.64 26.98 -23 28 C-24.1577506 24.52674819 -24.06866652 21.63932552 -24 18 C-20.95613276 17.91773332 -18.92824652 18.02391783 -16 19 C-14.31369881 15.48966871 -14.31369881 15.48966871 -14.375 11.6875 C-14.58125 11.130625 -14.7875 10.57375 -15 10 C-12.69 9.34 -10.38 8.68 -8 8 C-8 7.34 -8 6.68 -8 6 C-7.34 6 -6.68 6 -6 6 C-6 5.34 -6 4.68 -6 4 C-6.66 3.67 -7.32 3.34 -8 3 C-5.36 2.01 -2.72 1.02 0 0 Z " fill="#F2E8EA" transform="translate(56,63)"/>
<path d="M0 0 C4.76478924 1.89968721 8.13492984 3.59940848 10.765625 8.203125 C11.515625 11.515625 11.515625 11.515625 11.765625 14.203125 C9.455625 14.533125 7.145625 14.863125 4.765625 15.203125 C4.435625 13.553125 4.105625 11.903125 3.765625 10.203125 C3.1675 10.05875 2.569375 9.914375 1.953125 9.765625 C0.20412096 9.3158811 -1.52114523 8.77420159 -3.234375 8.203125 C-3.564375 7.543125 -3.894375 6.883125 -4.234375 6.203125 C-4.77707031 6.491875 -5.31976563 6.780625 -5.87890625 7.078125 C-6.95205078 7.635 -6.95205078 7.635 -8.046875 8.203125 C-8.75457031 8.574375 -9.46226563 8.945625 -10.19140625 9.328125 C-12.234375 10.203125 -12.234375 10.203125 -15.234375 10.203125 C-15.234375 7.563125 -15.234375 4.923125 -15.234375 2.203125 C-9.36533972 -1.67043829 -6.78873024 -2.42115554 0 0 Z " fill="#502929" transform="translate(114.234375,52.796875)"/>
<path d="M0 0 C0.99 0 1.98 0 3 0 C3 0.99 3 1.98 3 3 C4.0725 3.2475 5.145 3.495 6.25 3.75 C10.00466284 5.00155428 11.6002828 5.92836198 14 9 C14 9.66 14 10.32 14 11 C13.34 11 12.68 11 12 11 C11.82984375 11.70125 11.6596875 12.4025 11.484375 13.125 C9.92731138 19.22073842 8.01993679 24.48080518 5 30 C4.34 30 3.68 30 3 30 C2.48916442 26.68907899 1.99336786 23.37606521 1.5 20.0625 C1.35691406 19.13630859 1.21382812 18.21011719 1.06640625 17.25585938 C0.20832487 11.43316429 -0.14486785 5.88525633 0 0 Z " fill="#F3E8E8" transform="translate(59,67)"/>
<path d="M0 0 C3.67465632 0.39371318 6.89066548 2.08147445 10 4 C12.97861836 8.36864026 13.31306141 11.78230991 13 17 C12.34 17 11.68 17 11 17 C10.67 17.66 10.34 18.32 10 19 C8.66666667 19.66666667 7.33333333 20.33333333 6 21 C5.67 21.66 5.34 22.32 5 23 C2.70387244 13.58997722 2.70387244 13.58997722 3 9 C1.35 8.67 -0.3 8.34 -2 8 C-2.33 8.99 -2.66 9.98 -3 11 C-3.98995103 8.32713221 -4.04574968 7.14780667 -3.1875 4.375 C-2 2 -2 2 0 0 Z " fill="#2F2640" transform="translate(100,94)"/>
<path d="M0 0 C1.32 0.66 2.64 1.32 4 2 C3.67 2.66 3.34 3.32 3 4 C4.65 3.67 6.3 3.34 8 3 C8 3.99 8 4.98 8 6 C8.66 6 9.32 6 10 6 C10 6.66 10 7.32 10 8 C9.34 8 8.68 8 8 8 C8 10.64 8 13.28 8 16 C8.99 16 9.98 16 11 16 C11 16.66 11 17.32 11 18 C8.33333333 18 5.66666667 18 3 18 C2.34 18.33 1.68 18.66 1 19 C-0.9453125 18.66015625 -0.9453125 18.66015625 -3.125 18.0625 C-3.84945312 17.86785156 -4.57390625 17.67320313 -5.3203125 17.47265625 C-5.87460938 17.31667969 -6.42890625 17.16070312 -7 17 C-7 16.34 -7 15.68 -7 15 C-5.02 15 -3.04 15 -1 15 C-1 14.01 -1 13.02 -1 12 C-1.825 11.566875 -2.65 11.13375 -3.5 10.6875 C-4.325 10.130625 -5.15 9.57375 -6 9 C-6.3125 5.8125 -6.3125 5.8125 -6 3 C-4.02 2.34 -2.04 1.68 0 1 C0 0.67 0 0.34 0 0 Z " fill="#E9E9E9" transform="translate(170,42)"/>
<path d="M0 0 C0.556875 0.7115625 0.556875 0.7115625 1.125 1.4375 C3.62646962 3.52205802 5.81593418 3.64621491 9 4 C9.33 3.01 9.66 2.02 10 1 C10 2.32 10 3.64 10 5 C9.34 5 8.68 5 8 5 C7.67 7.31 7.34 9.62 7 12 C8.32 11.67 9.64 11.34 11 11 C10.67 13.31 10.34 15.62 10 18 C8.35 17.34 6.7 16.68 5 16 C5 16.66 5 17.32 5 18 C4.34 18 3.68 18 3 18 C2.67 17.01 2.34 16.02 2 15 C1.01 14.67 0.02 14.34 -1 14 C-1.99 13.67 -2.98 13.34 -4 13 C-4.33 12.01 -4.66 11.02 -5 10 C-5.66 10 -6.32 10 -7 10 C-7.66 8.35 -8.32 6.7 -9 5 C-6.03 4.01 -3.06 3.02 0 2 C0 1.34 0 0.68 0 0 Z " fill="#EB9277" transform="translate(109,58)"/>
<path d="M0 0 C1.65 0 3.3 0 5 0 C5.69538919 5.51330605 6.38909155 11.02682089 7.08129883 16.54052734 C7.31652352 18.41232904 7.55219191 20.28407504 7.78833008 22.15576172 C8.12961446 24.86150468 8.4692498 27.56745057 8.80859375 30.2734375 C8.96490517 31.50844498 8.96490517 31.50844498 9.12437439 32.7684021 C9.84147315 38.50410921 10.44858328 44.24606567 11 50 C8.525 50.495 8.525 50.495 6 51 C5.94392578 49.39898437 5.94392578 49.39898437 5.88671875 47.765625 C5.49536759 38.39978359 4.57581796 29.26918127 3.09106445 20.01318359 C2.23156938 14.64836488 1.57035352 9.3239079 1.2109375 3.8984375 C1.10121656 1.91434532 1.10121656 1.91434532 0 0 Z " fill="#5E4E66" transform="translate(54,67)"/>
<path d="M0 0 C2 2 2 2 2 5 C3.32 5.33 4.64 5.66 6 6 C6.19537335 10.88433373 5.62186627 14.42061289 4 19 C3.62468554 21.32694964 3.28082798 23.65976685 3 26 C2.34 26 1.68 26 1 26 C0.67 27.32 0.34 28.64 0 30 C-1.98 30 -3.96 30 -6 30 C-5.38722388 27.03824877 -4.74627478 25.61941217 -3 23 C-2.63648496 20.97457852 -2.63648496 20.97457852 -2.5859375 18.76953125 C-2.54726562 17.96708984 -2.50859375 17.16464844 -2.46875 16.33789062 C-2.4378125 15.50451172 -2.406875 14.67113281 -2.375 13.8125 C-2.33632812 12.96751953 -2.29765625 12.12253906 -2.2578125 11.25195312 C-2.16363721 9.16832476 -2.08073325 7.08419247 -2 5 C-1.34 4.67 -0.68 4.34 0 4 C0 2.68 0 1.36 0 0 Z " fill="#C49E98" transform="translate(115,99)"/>
<path d="M0 0 C5.31647157 4.90751222 5.31647157 4.90751222 6 9 C6.06926968 11.75970408 6.0941736 14.49196042 6.0625 17.25 C6.05798828 17.99507812 6.05347656 18.74015625 6.04882812 19.5078125 C6.03709246 21.3385764 6.0191585 23.16929873 6 25 C5.34 25 4.68 25 4 25 C4 25.66 4 26.32 4 27 C3.01 26.67 2.02 26.34 1 26 C0.85304688 24.77023438 0.85304688 24.77023438 0.703125 23.515625 C0.47882813 21.89914063 0.47882813 21.89914063 0.25 20.25 C0.11078125 19.18265625 -0.0284375 18.1153125 -0.171875 17.015625 C-1.11594972 13.577768 -2.3994495 12.34683825 -5 10 C-5 9.34 -5 8.68 -5 8 C-5.66 7.67 -6.32 7.34 -7 7 C-4.9413783 3.91206745 -4.1446688 3.52161393 -1 2 C-0.67 1.34 -0.34 0.68 0 0 Z " fill="#C6A3A1" transform="translate(76,65)"/>
<path d="M0 0 C1.32 0 2.64 0 4 0 C4.18451025 13.6332574 4.18451025 13.6332574 3 20 C0 21 0 21 -3 20 C-3 17.03 -3 14.06 -3 11 C-4.32 11 -5.64 11 -7 11 C-7 8.03 -7 5.06 -7 2 C-3.535 1.505 -3.535 1.505 0 1 C0 0.67 0 0.34 0 0 Z " fill="#B07E62" transform="translate(80,43)"/>
<path d="M0 0 C3.50509783 2.666271 4.09912597 6.23302726 5.0625 10.3125 C6.20347667 14.94514021 7.46291795 19.48032469 9 24 C9.36106097 25.66088045 9.70462173 27.32618981 10 29 C4.25 34 4.25 34 2 34 C2 33.34 2 32.68 2 32 C1.34 32 0.68 32 0 32 C0.0721875 31.37996094 0.144375 30.75992188 0.21875 30.12109375 C1.84861021 15.96382338 1.84861021 15.96382338 0 2 C0 1.34 0 0.68 0 0 Z " fill="#7D492D" transform="translate(129,73)"/>
<path d="M0 0 C0.33 0 0.66 0 1 0 C1.33675279 2.89547264 1.66951734 5.79131072 2 8.6875 C2.09539062 9.50412109 2.19078125 10.32074219 2.2890625 11.16210938 C2.73870522 15.12860052 3.13034543 19.00002463 3 23 C-1.05606165 22.53199289 -4.46588679 22.12046792 -8 20 C-8.46314325 14.22908811 -7.21934139 10.76268608 -4.0625 6.0625 C-3.68931641 5.47404297 -3.31613281 4.88558594 -2.93164062 4.27929688 C-1.99484643 2.82599993 -1.0021889 1.40899709 0 0 Z " fill="#F7ECE9" transform="translate(72,91)"/>
<path d="M0 0 C1.65 0 3.3 0 5 0 C5.33 1.65 5.66 3.3 6 5 C6.66 3.35 7.32 1.7 8 0 C9.65 0.33 11.3 0.66 13 1 C13 5.62 13 10.24 13 15 C12.01 15 11.02 15 10 15 C9.67 13.68 9.34 12.36 9 11 C8.67 11.99 8.34 12.98 8 14 C7.01 14 6.02 14 5 14 C4.67 12.68 4.34 11.36 4 10 C3.67 11.65 3.34 13.3 3 15 C2.01 15 1.02 15 0 15 C0 10.05 0 5.1 0 0 Z " fill="#0B0B0B" transform="translate(164,69)"/>
<path d="M0 0 C2 3 2 3 1.75 6.0625 C1 9 1 9 -1 11 C-5.19188572 12.3174498 -8.72282611 11.75479539 -13 11 C-14.1577506 7.52674819 -14.06866652 4.63932552 -14 1 C-12.86111328 1.01740234 -12.86111328 1.01740234 -11.69921875 1.03515625 C-10.70535156 1.04417969 -9.71148437 1.05320312 -8.6875 1.0625 C-7.70136719 1.07410156 -6.71523437 1.08570312 -5.69921875 1.09765625 C-2.90036151 1.12329862 -2.90036151 1.12329862 0 0 Z " fill="#BBA9A5" transform="translate(88,101)"/>
<path d="M0 0 C3.96 0.99 3.96 0.99 8 2 C8 9.92 8 17.84 8 26 C8.99 26.33 9.98 26.66 11 27 C11.33 29.31 11.66 31.62 12 34 C10.68 34 9.36 34 8 34 C6.74335022 31.09399739 6 29.20395416 6 26 C5.26248906 22.87064083 5.26248906 22.87064083 4 20 C3.01 19.67 2.02 19.34 1 19 C1.75 13.25 1.75 13.25 4 11 C4.6425235 8.93125966 4.6425235 8.93125966 5 7 C4.34 7 3.68 7 3 7 C3 6.34 3 5.68 3 5 C1.02 5.99 1.02 5.99 -1 7 C-2 4 -2 4 -1.0625 1.8125 C-0.5365625 0.9153125 -0.5365625 0.9153125 0 0 Z " fill="#F3E0D4" transform="translate(104,70)"/>
<path d="M0 0 C2.79553396 1.12407834 5.39749469 2.48581509 8 4 C7.38461538 9.53846154 7.38461538 9.53846154 5.4375 11.875 C4.7259375 12.431875 4.7259375 12.431875 4 13 C4 12.01 4 11.02 4 10 C3.01 10 2.02 10 1 10 C0.67 9.34 0.34 8.68 0 8 C-2.12576782 7.53348793 -2.12576782 7.53348793 -4.5625 7.375 C-5.38878906 7.30023438 -6.21507813 7.22546875 -7.06640625 7.1484375 C-7.70449219 7.09945312 -8.34257813 7.05046875 -9 7 C-9.33 5.35 -9.66 3.7 -10 2 C-6.20991318 -0.52672455 -4.50802658 -0.44341245 0 0 Z " fill="#3B322F" transform="translate(97,76)"/>
<path d="M0 0 C0.99 0 1.98 0 3 0 C3 5.61 3 11.22 3 17 C0.36 17 -2.28 17 -5 17 C-6.12256131 14.75487738 -6.13413762 13.48543351 -6.125 11 C-6.12886719 9.948125 -6.12886719 9.948125 -6.1328125 8.875 C-6 7 -6 7 -5 5 C-3.35 5 -1.7 5 0 5 C0 3.35 0 1.7 0 0 Z " fill="#151515" transform="translate(199,43)"/>
<path d="M0 0 C1.65 0.33 3.3 0.66 5 1 C5.33951619 2.56116819 5.67132544 4.12401338 6 5.6875 C6.185625 6.55761719 6.37125 7.42773438 6.5625 8.32421875 C6.98972047 10.93712964 7.07616201 13.35813038 7 16 C6.01 16 5.02 16 4 16 C3.67 16.99 3.34 17.98 3 19 C3 18.01 3 17.02 3 16 C2.01 16 1.02 16 0 16 C-2.25980539 11.48038922 -2.31983581 7.95745506 -2 3 C-1.34 2.01 -0.68 1.02 0 0 Z " fill="#5A4C6A" transform="translate(98,102)"/>
<path d="M0 0 C0 3.11257569 -0.17361624 5.10765685 -1 8 C-2.65 8.33 -4.3 8.66 -6 9 C-6 9.66 -6 10.32 -6 11 C-3.03 11.495 -3.03 11.495 0 12 C0.042721 13.66611905 0.04063832 15.33382885 0 17 C-1 18 -1 18 -2.84765625 18.09765625 C-4.8984375 18.06510417 -6.94921875 18.03255208 -9 18 C-9 17.01 -9 16.02 -9 15 C-6.03 15.495 -6.03 15.495 -3 16 C-3 15.01 -3 14.02 -3 13 C-4.65 13 -6.3 13 -8 13 C-8.77577388 9.60598928 -9.2824844 6.48397425 -9 3 C-6.31795079 0.31795079 -3.73391546 0 0 0 Z " fill="#141414" transform="translate(252,71)"/>
<path d="M0 0 C0 0.66 0 1.32 0 2 C1.32 2 2.64 2 4 2 C4 2.66 4 3.32 4 4 C5.32 4.33 6.64 4.66 8 5 C8 6.32 8 7.64 8 9 C9.32 9.33 10.64 9.66 12 10 C9.16169961 11.41915019 7.15582729 11.25854971 4 11 C1.0078125 9.609375 1.0078125 9.609375 -1.875 7.75 C-2.84179688 7.14671875 -3.80859375 6.5434375 -4.8046875 5.921875 C-5.52914062 5.28765625 -6.25359375 4.6534375 -7 4 C-7 2.68 -7 1.36 -7 0 C-3.86650268 -1.04449911 -3.01031744 -0.93423645 0 0 Z " fill="#D0B6A9" transform="translate(72,116)"/>
<path d="M0 0 C5.445 1.485 5.445 1.485 11 3 C11 2.34 11 1.68 11 1 C13.31 1 15.62 1 18 1 C15.64046906 3.35953094 14.22104383 3.49141413 11 4 C11 4.66 11 5.32 11 6 C11.99 6 12.98 6 14 6 C14 6.66 14 7.32 14 8 C14.94875 7.79375 15.8975 7.5875 16.875 7.375 C18.421875 7.189375 18.421875 7.189375 20 7 C20.66 7.66 21.32 8.32 22 9 C21.01 9.495 21.01 9.495 20 10 C22.97 10.495 22.97 10.495 26 11 C26 11.66 26 12.32 26 13 C22.52674819 14.1577506 19.63932552 14.06866652 16 14 C16 13.34 16 12.68 16 12 C15.34 11.67 14.68 11.34 14 11 C14.33 10.67 14.66 10.34 15 10 C14.01 9.67 13.02 9.34 12 9 C12 8.34 12 7.68 12 7 C10.68 7 9.36 7 8 7 C7.67 6.34 7.34 5.68 7 5 C5.02 5 3.04 5 1 5 C0.67 3.35 0.34 1.7 0 0 Z " fill="#D6A596" transform="translate(64,111)"/>
<path d="M0 0 C3.0625 0.25 3.0625 0.25 6 1 C7.52491998 4.04983996 7.23562548 6.6423369 7 10 C5.8125 12 5.8125 12 4 13 C-0.42105263 12.57894737 -0.42105263 12.57894737 -2 11 C-2.16796875 9.00390625 -2.16796875 9.00390625 -2.1875 6.5625 C-2.20167969 5.75941406 -2.21585938 4.95632812 -2.23046875 4.12890625 C-2 2 -2 2 0 0 Z " fill="#121212" transform="translate(210,72)"/>
<path d="M0 0 C1.98 0.99 1.98 0.99 4 2 C4 2.66 4 3.32 4 4 C5.65 3.34 7.3 2.68 9 2 C10.26941185 6.06211792 9.61883853 8.84677051 8.4765625 12.8828125 C7.9857654 15.06323896 7.89542446 16.95749655 7.9375 19.1875 C7.98980295 22.37797977 7.7675954 24.92961838 7 28 C6.67 28 6.34 28 6 28 C5.96132812 26.7315625 5.96132812 26.7315625 5.921875 25.4375 C5.60605569 19.12111374 5.13872508 14.26703184 1.921875 8.7890625 C0.4456278 5.92414208 0.26559169 3.18710033 0 0 Z " fill="#EEDFDD" transform="translate(135,89)"/>
<path d="M0 0 C0.33 0.66 0.66 1.32 1 2 C0.67 2.99 0.34 3.98 0 5 C-0.22797562 7.73289293 -0.41668187 10.45042204 -0.5625 13.1875 C-0.60568359 13.93708984 -0.64886719 14.68667969 -0.69335938 15.45898438 C-0.79922685 17.30578375 -0.9000976 19.15286834 -1 21 C-4.96 21.495 -4.96 21.495 -9 22 C-9.66 20.02 -10.32 18.04 -11 16 C-10.236875 15.87625 -9.47375 15.7525 -8.6875 15.625 C-5.40557901 13.64058266 -5.36365021 12.72009166 -4.375 9.125 C-4.17648438 8.26132813 -3.97796875 7.39765625 -3.7734375 6.5078125 C-2.94281412 3.8145791 -1.80333008 2.14207717 0 0 Z " fill="#4B3B48" transform="translate(94,96)"/>
<path d="M0 0 C1.42857143 8.57142857 1.42857143 8.57142857 -1 12 C-1.66 12 -2.32 12 -3 12 C-3.33 13.32 -3.66 14.64 -4 16 C-3.34 16.33 -2.68 16.66 -2 17 C-3 18 -3 18 -6.0625 18.0625 C-7.031875 18.041875 -8.00125 18.02125 -9 18 C-8.01 17.34 -7.02 16.68 -6 16 C-6.165 15.01 -6.33 14.02 -6.5 13 C-7.08474517 8.97267058 -7.07132024 5.06525377 -7 1 C-1.125 0 -1.125 0 0 0 Z " fill="#D5C5C7" transform="translate(64,49)"/>
<path d="M0 0 C1.65 0.33 3.3 0.66 5 1 C3.68 7.27 2.36 13.54 1 20 C-2 17 -2 17 -2.1875 14.3125 C-2.125625 13.549375 -2.06375 12.78625 -2 12 C-1.34 12 -0.68 12 0 12 C-2.36292656 9.47411298 -3.66462511 8.11179163 -7 7 C-7 6.34 -7 5.68 -7 5 C-4.69 4.01 -2.38 3.02 0 2 C0 1.34 0 0.68 0 0 Z " fill="#AF765E" transform="translate(38,102)"/>
<path d="M0 0 C0.33 0 0.66 0 1 0 C1.33 5.28 1.66 10.56 2 16 C1.34 16 0.68 16 0 16 C-1.50253855 23.9762419 -2.80039297 31.97284232 -4 40 C-4.66 40 -5.32 40 -6 40 C-6.31937719 31.66070659 -5.70580859 23.87922235 -2.4375 16.125 C-0.3351084 10.96458426 -0.26626419 5.50891423 0 0 Z " fill="#764E4C" transform="translate(46,84)"/>
<path d="M0 0 C3.66226912 0.39238598 6.77780124 2.31566883 10 4 C8 6 8 6 5 8 C4.26656572 11.06556598 4.26656572 11.06556598 4 14 C3.67 14 3.34 14 3 14 C3 12.35 3 10.7 3 9 C1.35 8.67 -0.3 8.34 -2 8 C-2.33 8.99 -2.66 9.98 -3 11 C-3.98995103 8.32713221 -4.04574968 7.14780667 -3.1875 4.375 C-2 2 -2 2 0 0 Z " fill="#534865" transform="translate(100,94)"/>
<path d="M0 0 C1.98 0.66 3.96 1.32 6 2 C5.67 2.66 5.34 3.32 5 4 C4.01 4 3.02 4 2 4 C2 4.99 2 5.98 2 7 C4.31 7.33 6.62 7.66 9 8 C9.33 5.69 9.66 3.38 10 1 C10.33 1 10.66 1 11 1 C11 3.97 11 6.94 11 10 C7.37 10 3.74 10 0 10 C0 8.35 0 6.7 0 5 C-1.65 5 -3.3 5 -5 5 C-5 4.01 -5 3.02 -5 2 C-3.35 2 -1.7 2 0 2 C0 1.34 0 0.68 0 0 Z " fill="#5A5365" transform="translate(129,120)"/>
<path d="M0 0 C3.125 -0.1875 3.125 -0.1875 6 0 C6.33 2.31 6.66 4.62 7 7 C5.02 7 3.04 7 1 7 C1.33 7.66 1.66 8.32 2 9 C4.52733235 9.65555119 4.52733235 9.65555119 7 10 C6.67 10.66 6.34 11.32 6 12 C3.69 11.67 1.38 11.34 -1 11 C-2.25 3.375 -2.25 3.375 0 0 Z " fill="#0E0E0E" transform="translate(206,48)"/>
<path d="M0 0 C2.97 0.495 2.97 0.495 6 1 C6.33 2.98 6.66 4.96 7 7 C5.02 7 3.04 7 1 7 C1.33 7.99 1.66 8.98 2 10 C3.32 10 4.64 10 6 10 C5.67 10.99 5.34 11.98 5 13 C0.25 12.25 0.25 12.25 -2 10 C-2.31537716 5.66356399 -2.44897847 3.67346771 0 0 Z " fill="#111111" transform="translate(181,72)"/>
<path d="M0 0 C2.367246 1.85262731 2.97542361 2.89722599 3.6875 5.875 C3.96157612 8.61576125 4.08090987 11.24906429 4 14 C1 13 1 13 -2 11 C-2 10.34 -2 9.68 -2 9 C-2.99 9.33 -3.98 9.66 -5 10 C-5 9.34 -5 8.68 -5 8 C-5.66 7.67 -6.32 7.34 -7 7 C-4.9413783 3.91206745 -4.1446688 3.52161393 -1 2 C-0.67 1.34 -0.34 0.68 0 0 Z " fill="#DF8A6E" transform="translate(76,65)"/>
<path d="M0 0 C0.33 0 0.66 0 1 0 C1.268125 0.94875 1.53625 1.8975 1.8125 2.875 C2.74986588 6.25267273 2.74986588 6.25267273 6 8 C6 8.66 6 9.32 6 10 C6.66 10 7.32 10 8 10 C8 10.66 8 11.32 8 12 C5.24921116 12.91692961 3.64051087 13.10886083 0.8125 13.0625 C-1.0746875 13.0315625 -1.0746875 13.0315625 -3 13 C-3.33 11.35 -3.66 9.7 -4 8 C-3.34 8 -2.68 8 -2 8 C-2.04125 7.05125 -2.0825 6.1025 -2.125 5.125 C-2 2 -2 2 0 0 Z " fill="#B97450" transform="translate(48,104)"/>
<path d="M0 0 C3.79303725 1.00193437 6.71536341 1.81024227 10 4 C10 4.66 10 5.32 10 6 C9.01 6.495 9.01 6.495 8 7 C6.86649466 9.01669827 6.86649466 9.01669827 6 11 C3.0280615 9.87548273 0.66559313 8.77706209 -2 7 C-1.34 4.69 -0.68 2.38 0 0 Z " fill="#854C2C" transform="translate(28,108)"/>
<path d="M0 0 C1 1 1 1 1.09765625 3.50390625 C1.08605469 4.51324219 1.07445312 5.52257812 1.0625 6.5625 C1.05347656 7.57441406 1.04445312 8.58632812 1.03515625 9.62890625 C1.02355469 10.41136719 1.01195312 11.19382812 1 12 C0.01 12 -0.98 12 -2 12 C-2 8.7 -2 5.4 -2 2 C-2.99 2 -3.98 2 -5 2 C-5 4.97 -5 7.94 -5 11 C-5.99 11 -6.98 11 -8 11 C-8 7.37 -8 3.74 -8 0 C-4.3147485 -0.92131287 -3.34188735 -1.15237495 0 0 Z " fill="#0F0F0F" transform="translate(198,73)"/>
<path d="M0 0 C6.15234375 -0.09765625 6.15234375 -0.09765625 8 0 C9 1 9 1 9.09765625 3.50390625 C9.08605469 4.51324219 9.07445312 5.52257813 9.0625 6.5625 C9.05347656 7.57441406 9.04445312 8.58632813 9.03515625 9.62890625 C9.02355469 10.41136719 9.01195312 11.19382812 9 12 C8.01 12 7.02 12 6 12 C6 8.7 6 5.4 6 2 C5.01 2.495 5.01 2.495 4 3 C3.53348793 5.12576782 3.53348793 5.12576782 3.375 7.5625 C3.30023438 8.38878906 3.22546875 9.21507812 3.1484375 10.06640625 C3.09945312 10.70449219 3.05046875 11.34257813 3 12 C2.01 12 1.02 12 0 12 C0 8.04 0 4.08 0 0 Z " fill="#171717" transform="translate(215,48)"/>
<path d="M0 0 C0 0.66 0 1.32 0 2 C-6.6 2.66 -13.2 3.32 -20 4 C-20 2.68 -20 1.36 -20 0 C-4.60273973 -3.06849315 -4.60273973 -3.06849315 0 0 Z " fill="#45292F" transform="translate(62,120)"/>
<path d="M0 0 C0.99 0 1.98 0 3 0 C3 3.3 3 6.6 3 10 C3.66 9.67 4.32 9.34 5 9 C5.46651207 6.87423218 5.46651207 6.87423218 5.625 4.4375 C5.69976562 3.61121094 5.77453125 2.78492188 5.8515625 1.93359375 C5.90054688 1.29550781 5.94953125 0.65742187 6 0 C6.99 0 7.98 0 9 0 C9 3.96 9 7.92 9 12 C6.36 12 3.72 12 1 12 C-0.26237731 9.47524538 -0.09856404 7.68799534 -0.0625 4.875 C-0.05347656 3.96492188 -0.04445312 3.05484375 -0.03515625 2.1171875 C-0.02355469 1.41851562 -0.01195312 0.71984375 0 0 Z " fill="#111111" transform="translate(182,48)"/>
<path d="M0 0 C0 0.99 0 1.98 0 3 C-1.32 2.67 -2.64 2.34 -4 2 C-4 3.32 -4 4.64 -4 6 C-3.195625 6.226875 -2.39125 6.45375 -1.5625 6.6875 C1 8 1 8 1.9375 10.4375 C2 13 2 13 0 16 C-3.07921132 16.25660094 -5.21136993 16.39431504 -8 15 C-8 14.34 -8 13.68 -8 13 C-6.02 13 -4.04 13 -2 13 C-2 12.01 -2 11.02 -2 10 C-2.825 9.566875 -3.65 9.13375 -4.5 8.6875 C-5.325 8.130625 -6.15 7.57375 -7 7 C-7.3125 3.8125 -7.3125 3.8125 -7 1 C-4.53721199 -0.231394 -2.7204945 -0.07159196 0 0 Z " fill="#0A0A0A" transform="translate(171,44)"/>
<path d="M0 0 C0.66 0 1.32 0 2 0 C2 0.66 2 1.32 2 2 C3.65 2 5.3 2 7 2 C7 3.65 7 5.3 7 7 C2.38 7 -2.24 7 -7 7 C-6.67 5.35 -6.34 3.7 -6 2 C-2.25 0.875 -2.25 0.875 0 2 C0 1.34 0 0.68 0 0 Z " fill="#C49891" transform="translate(122,123)"/>
<path d="M0 0 C0.99 0 1.98 0 3 0 C2.34 5.28 1.68 10.56 1 16 C-0.98 16 -2.96 16 -5 16 C-4.24228029 4.24228029 -4.24228029 4.24228029 0 0 Z " fill="#B49FA3" transform="translate(128,106)"/>
<path d="M0 0 C0.33 0 0.66 0 1 0 C1.06058594 0.75925781 1.12117188 1.51851563 1.18359375 2.30078125 C1.26738281 3.29464844 1.35117187 4.28851563 1.4375 5.3125 C1.51871094 6.29863281 1.59992187 7.28476563 1.68359375 8.30078125 C1.91812559 11.09375599 1.91812559 11.09375599 3 14 C-2.03511899 15.0070238 -5.23947038 14.97387813 -10 13 C-10.33 13.66 -10.66 14.32 -11 15 C-11.33 13.02 -11.66 11.04 -12 9 C-8.37 9 -4.74 9 -1 9 C-0.67 6.03 -0.34 3.06 0 0 Z " fill="#AB765B" transform="translate(33,91)"/>
<path d="M0 0 C0 3.63 0 7.26 0 11 C-0.99 11 -1.98 11 -3 11 C-3 8.03 -3 5.06 -3 2 C-3.66 2 -4.32 2 -5 2 C-5 4.97 -5 7.94 -5 11 C-5.99 11 -6.98 11 -8 11 C-8 7.37 -8 3.74 -8 0 C-4 -1 -4 -1 0 0 Z " fill="#1D1D1D" transform="translate(241,73)"/>
<path d="M0 0 C0.33 2.31 0.66 4.62 1 7 C-0.65 6.01 -2.3 5.02 -4 4 C-4.66 4.66 -5.32 5.32 -6 6 C-6.99 6 -7.98 6 -9 6 C-9.33 6.99 -9.66 7.98 -10 9 C-10.66 9 -11.32 9 -12 9 C-12.31630104 5.52068855 -12.35518036 3.57716809 -10.5 0.5625 C-6.73872372 -1.78829768 -4.27972524 -0.85594505 0 0 Z " fill="#402421" transform="translate(80,63)"/>
<path d="M0 0 C1.32 0 2.64 0 4 0 C4.33 2.64 4.66 5.28 5 8 C4.01 8.66 3.02 9.32 2 10 C2 9.01 2 8.02 2 7 C1.67 8.65 1.34 10.3 1 12 C2.65 11.34 4.3 10.68 6 10 C7.04449911 13.13349732 6.93423645 13.98968256 6 17 C4.33388095 17.042721 2.66617115 17.04063832 1 17 C0 16 0 16 -0.09765625 12.40234375 C-0.0909822 10.91403133 -0.07902183 9.42573568 -0.0625 7.9375 C-0.05798828 7.17888672 -0.05347656 6.42027344 -0.04882812 5.63867188 C-0.0370068 3.75908129 -0.01907078 1.87953101 0 0 Z " fill="#E3D8DD" transform="translate(38,86)"/>
<path d="M0 0 C-0.0625 2.8125 -0.0625 2.8125 -1 6 C-4.50954143 7.94974524 -6.97322133 9 -11 9 C-11 6.69 -11 4.38 -11 2 C-7.17679443 0.57741188 -4.08718695 -0.24042276 0 0 Z " fill="#521817" transform="translate(110,54)"/>
<path d="M0 0 C0.99 0.66 1.98 1.32 3 2 C5.06910593 2.02749478 5.06910593 2.02749478 7.1875 1.625 C9.0746875 1.315625 9.0746875 1.315625 11 1 C11.33 2.32 11.66 3.64 12 5 C8.37 5 4.74 5 1 5 C1.99 8.63 2.98 12.26 4 16 C3.34 16.33 2.68 16.66 2 17 C0.57741188 13.17679443 -0.24042276 10.08718695 0 6 C-0.99 5.67 -1.98 5.34 -3 5 C-2.67 4.34 -2.34 3.68 -2 3 C-1.34 3 -0.68 3 0 3 C0 2.01 0 1.02 0 0 Z " fill="#F7E0D8" transform="translate(20,95)"/>
<path d="M0 0 C2 2 2 2 2 5 C2.66 5.33 3.32 5.66 4 6 C3.01 6.495 3.01 6.495 2 7 C2.33 7.33 2.66 7.66 3 8 C2.91015699 9.85772162 2.75388139 11.71247985 2.5625 13.5625 C2.46066406 14.57441406 2.35882813 15.58632812 2.25390625 16.62890625 C2.17011719 17.41136719 2.08632812 18.19382812 2 19 C1.01 19.33 0.02 19.66 -1 20 C-1.84681133 14.91913204 -2.09038099 10.15171623 -2 5 C-1.34 4.67 -0.68 4.34 0 4 C0 2.68 0 1.36 0 0 Z " fill="#C5ACAA" transform="translate(115,99)"/>
<path d="M0 0 C0.99 0 1.98 0 3 0 C3 0.99 3 1.98 3 3 C3.66 3 4.32 3 5 3 C5 3.66 5 4.32 5 5 C4.34 5 3.68 5 3 5 C3 7.64 3 10.28 3 13 C3.66 13 4.32 13 5 13 C5 13.66 5 14.32 5 15 C2.03 14.505 2.03 14.505 -1 14 C-1.33 10.37 -1.66 6.74 -2 3 C-1.34 3 -0.68 3 0 3 C0 2.01 0 1.02 0 0 Z " fill="#4A4A4A" transform="translate(227,45)"/>
<path d="M0 0 C0 1.65 0 3.3 0 5 C-1.98 5.66 -3.96 6.32 -6 7 C-7.10228696 11.40914783 -7.07654536 15.48382401 -7 20 C-8.32 19.67 -9.64 19.34 -11 19 C-11.31635389 9.66756032 -11.31635389 9.66756032 -9 6 C-2.11217184 0 -2.11217184 0 0 0 Z " fill="#5F5369" transform="translate(140,101)"/>
<path d="M0 0 C0.66 0 1.32 0 2 0 C3.00926479 4.15626368 3.10239579 8.04365094 3.0625 12.3125 C3.05347656 13.56675781 3.04445313 14.82101563 3.03515625 16.11328125 C3.01775391 17.54220703 3.01775391 17.54220703 3 19 C1.68 19 0.36 19 -1 19 C-1.02697137 16.39576408 -1.04682489 13.79180756 -1.0625 11.1875 C-1.07087891 10.44951172 -1.07925781 9.71152344 -1.08789062 8.95117188 C-1.10259828 5.70077932 -1.03531702 3.10595105 0 0 Z " fill="#F1E3ED" transform="translate(94,98)"/>
<path d="M0 0 C2.97 0.495 2.97 0.495 6 1 C6 3.97 6 6.94 6 10 C3 11 3 11 0 10 C0 6.7 0 3.4 0 0 Z " fill="#F2D4BB" transform="translate(77,53)"/>
<path d="M0 0 C0.05383848 2.45862401 0.09359038 4.9160755 0.125 7.375 C0.14175781 8.07367188 0.15851562 8.77234375 0.17578125 9.4921875 C0.19344267 11.32897486 0.10303261 13.16601963 0 15 C-0.66 15.66 -1.32 16.32 -2 17 C-4.69101234 14.30898766 -4.29887549 12.80924054 -4.3125 9.0625 C-4.32925781 8.00160156 -4.34601562 6.94070312 -4.36328125 5.84765625 C-4 3 -4 3 -2.54296875 1.12109375 C-1 0 -1 0 0 0 Z " fill="#352A3F" transform="translate(38,87)"/>
<path d="M0 0 C2.475 0.495 2.475 0.495 5 1 C5 5.62 5 10.24 5 15 C4.01 15 3.02 15 2 15 C1.67 12.36 1.34 9.72 1 7 C0.67 7 0.34 7 0 7 C0 4.69 0 2.38 0 0 Z " fill="#252525" transform="translate(172,69)"/>
<path d="M0 0 C0.99 0 1.98 0 3 0 C3 0.99 3 1.98 3 3 C3.66 3 4.32 3 5 3 C5 3.66 5 4.32 5 5 C4.34 5 3.68 5 3 5 C3 7.64 3 10.28 3 13 C3.99 13 4.98 13 6 13 C6 13.66 6 14.32 6 15 C4.33388095 15.042721 2.66617115 15.04063832 1 15 C-0.71584497 13.28415503 -0.40976422 10.96799522 -0.625 8.625 C-0.72039062 7.64789063 -0.81578125 6.67078125 -0.9140625 5.6640625 C-1 3 -1 3 0 0 Z " fill="#0D0D0D" transform="translate(175,45)"/>
<path d="M0 0 C0.99 0 1.98 0 3 0 C3 0.99 3 1.98 3 3 C3.66 3.33 4.32 3.66 5 4 C4.34 4 3.68 4 3 4 C3 6.64 3 9.28 3 12 C3.99 12 4.98 12 6 12 C5.67 12.99 5.34 13.98 5 15 C1.125 14.125 1.125 14.125 0 13 C-0.26085401 11.1943106 -0.45961049 9.37942194 -0.625 7.5625 C-0.76808594 6.07943359 -0.76808594 6.07943359 -0.9140625 4.56640625 C-1 2 -1 2 0 0 Z " fill="#0C0C0C" transform="translate(201,70)"/>
<path d="M0 0 C0.33 1.32 0.66 2.64 1 4 C0.34 4 -0.32 4 -1 4 C-1.33 6.31 -1.66 8.62 -2 11 C-0.68 10.67 0.64 10.34 2 10 C1.67 12.31 1.34 14.62 1 17 C-1.475 16.01 -1.475 16.01 -4 15 C-4 15.66 -4 16.32 -4 17 C-4.66 17 -5.32 17 -6 17 C-7.2077558 13.37673261 -6.54311128 12.35853631 -5 9 C-4.34 9 -3.68 9 -3 9 C-2.67 7.02 -2.34 5.04 -2 3 C-1.34 3 -0.68 3 0 3 C0 2.01 0 1.02 0 0 Z " fill="#C4785C" transform="translate(118,59)"/>
<path d="M0 0 C0.33 0 0.66 0 1 0 C1 3.3 1 6.6 1 10 C1.99 9.67 2.98 9.34 4 9 C3.67 10.98 3.34 12.96 3 15 C2.67 14.34 2.34 13.68 2 13 C1.0409375 12.8453125 1.0409375 12.8453125 0.0625 12.6875 C-2 12 -2 12 -3.3125 9.8125 C-4.11354031 6.5355169 -3.75818361 4.26018952 -3 1 C-2.34 1.33 -1.68 1.66 -1 2 C-0.67 1.34 -0.34 0.68 0 0 Z " fill="#D8CFD2" transform="translate(64,58)"/>
<path d="M0 0 C3.55061321 2.68585068 4.18011949 6.38424305 5.1875 10.5 C5.36474609 11.17675781 5.54199219 11.85351562 5.72460938 12.55078125 C6.46404563 15.44571703 7 18.00067906 7 21 C4 20 4 20 2.875 18 C1.91495874 14.70842997 1.53546645 11.59110497 1.24609375 8.18359375 C1.00535541 6.04751865 0.53184026 4.07901192 0 2 C0 1.34 0 0.68 0 0 Z " fill="#8A5A42" transform="translate(129,73)"/>
<path d="M0 0 C0.99 0.33 1.98 0.66 3 1 C2.46644775 5.53519409 0.63658701 8.3247575 -2 12 C-2.66 12.99 -3.32 13.98 -4 15 C-4.33 11.7 -4.66 8.4 -5 5 C-4.34 5 -3.68 5 -3 5 C-2.5359375 4.0409375 -2.5359375 4.0409375 -2.0625 3.0625 C-1 1 -1 1 0 0 Z " fill="#DA9A8E" transform="translate(67,92)"/>
<path d="M0 0 C0.99 0 1.98 0 3 0 C3 3.63 3 7.26 3 11 C3.99 11.33 4.98 11.66 6 12 C4.35 12 2.7 12 1 12 C0.67 11.01 0.34 10.02 0 9 C-1.32 9.33 -2.64 9.66 -4 10 C-4.33 8.68 -4.66 7.36 -5 6 C-3.02 6 -1.04 6 1 6 C0.67 4.02 0.34 2.04 0 0 Z " fill="#DADADA" transform="translate(187,73)"/>
<path d="M0 0 C1.98 0 3.96 0 6 0 C6 0.33 6 0.66 6 1 C4.35 1 2.7 1 1 1 C1.0314209 1.88522339 1.0314209 1.88522339 1.06347656 2.78833008 C1.14663683 5.46287999 1.19865691 8.13715815 1.25 10.8125 C1.28351563 11.74126953 1.31703125 12.67003906 1.3515625 13.62695312 C1.36445312 14.51962891 1.37734375 15.41230469 1.390625 16.33203125 C1.4220459 17.56530151 1.4220459 17.56530151 1.45410156 18.82348633 C1 21 1 21 -1.02441406 22.79174805 C-2.0023291 23.38983276 -2.0023291 23.38983276 -3 24 C-4.0625 22.1875 -4.0625 22.1875 -5 20 C-4.505 18.515 -4.505 18.515 -4 17 C-2.68 16.67 -1.36 16.34 0 16 C0 10.72 0 5.44 0 0 Z " fill="#E4D6CD" transform="translate(71,42)"/>
<path d="M0 0 C0.66 0.33 1.32 0.66 2 1 C0.75023244 4.65316671 0.32901247 5.78065836 -3 8 C-3 9.32 -3 10.64 -3 12 C-3.66 12 -4.32 12 -5 12 C-5 11.34 -5 10.68 -5 10 C-5.66 10 -6.32 10 -7 10 C-7.66 8.35 -8.32 6.7 -9 5 C-6.03 4.01 -3.06 3.02 0 2 C0 1.34 0 0.68 0 0 Z " fill="#D17D6A" transform="translate(109,58)"/>
<path d="M0 0 C0.33 0 0.66 0 1 0 C1.05382106 2.62527189 1.09358313 5.24944713 1.125 7.875 C1.14175781 8.62136719 1.15851562 9.36773437 1.17578125 10.13671875 C1.1933959 12.09194461 1.10320189 14.04742021 1 16 C0.34 16.66 -0.32 17.32 -1 18 C-1.33 17.67 -1.66 17.34 -2 17 C-4.05396726 17.40929986 -4.05396726 17.40929986 -6 18 C-6 16.35 -6 14.7 -6 13 C-5.34 12.67 -4.68 12.34 -4 12 C-4 12.99 -4 13.98 -4 15 C-2.23107476 10.07227969 -1.0681847 5.11365014 0 0 Z " fill="#FBEFF5" transform="translate(45,80)"/>
<path d="M0 0 C0.66 0.66 1.32 1.32 2 2 C3.98356483 2.71408334 5.98315437 3.38617742 8 4 C8.042721 5.66611905 8.04063832 7.33382885 8 9 C7 10 7 10 5.15234375 10.09765625 C3.1015625 10.06510417 1.05078125 10.03255208 -1 10 C-1 9.01 -1 8.02 -1 7 C1.97 7.495 1.97 7.495 5 8 C5 7.01 5 6.02 5 5 C3.35 5 1.7 5 0 5 C-0.33 4.01 -0.66 3.02 -1 2 C-0.67 1.34 -0.34 0.68 0 0 Z " fill="#202020" transform="translate(244,79)"/>
<path d="M0 0 C0.99 0 1.98 0 3 0 C3 5.61 3 11.22 3 17 C2.34 17 1.68 17 1 17 C-0.53266582 13.93466836 -0.10276471 10.73245728 -0.0625 7.375 C-0.05798828 6.66859375 -0.05347656 5.9621875 -0.04882812 5.234375 C-0.03703875 3.48954725 -0.01910324 1.744763 0 0 Z " fill="#050505" transform="translate(199,43)"/>
<path d="M0 0 C1.65 0 3.3 0 5 0 C5.19129582 4.78239552 5.08122634 8.6393353 3 13 C0.375 14.875 0.375 14.875 -2 16 C-2 15.34 -2 14.68 -2 14 C-1.34 13.67 -0.68 13.34 0 13 C0.50776965 10.48368593 0.50776965 10.48368593 0.6875 7.5625 C0.77386719 6.57378906 0.86023438 5.58507812 0.94921875 4.56640625 C1.19869877 2.01004708 1.19869877 2.01004708 0 0 Z " fill="#D4A695" transform="translate(116,105)"/>
<path d="M0 0 C0.33 0 0.66 0 1 0 C0.67 4.62 0.34 9.24 0 14 C-1.65 14.33 -3.3 14.66 -5 15 C-5.66 13.02 -6.32 11.04 -7 9 C-6.21625 8.814375 -5.4325 8.62875 -4.625 8.4375 C-1.60623658 7.16038373 -1.60623658 7.16038373 -0.6875 3.375 C-0.460625 2.26125 -0.23375 1.1475 0 0 Z " fill="#422738" transform="translate(90,103)"/>
<path d="M0 0 C1.98 0 3.96 0 6 0 C5.67 0.66 5.34 1.32 5 2 C4.92966231 3.87379605 4.9156978 5.75001102 4.9375 7.625 C4.95103516 9.12933594 4.95103516 9.12933594 4.96484375 10.6640625 C4.97644531 11.43492188 4.98804688 12.20578125 5 13 C4.34 12.67 3.68 12.34 3 12 C3 11.34 3 10.68 3 10 C2.01 10 1.02 10 0 10 C0 6.7 0 3.4 0 0 Z " fill="#D3D3D3" transform="translate(204,72)"/>
<path d="M0 0 C0.33 0.66 0.66 1.32 1 2 C1.99 2 2.98 2 4 2 C4 3.65 4 5.3 4 7 C3.01 7 2.02 7 1 7 C1.33 8.32 1.66 9.64 2 11 C1.34 11 0.68 11 0 11 C-1.125 5.25 -1.125 5.25 0 3 C-2.97 3 -5.94 3 -9 3 C-6.23776722 0.23776722 -3.79293383 0.42143709 0 0 Z " fill="#D29084" transform="translate(97,116)"/>
<path d="M0 0 C0.33 0 0.66 0 1 0 C1.01417969 0.61488281 1.02835937 1.22976562 1.04296875 1.86328125 C1.18882744 4.33499473 1.39493183 6.59677148 2 9 C4.38987933 11.1386077 4.38987933 11.1386077 7 12 C5.25 16.875 5.25 16.875 3 18 C3 17.34 3 16.68 3 16 C2.34 15.67 1.68 15.34 1 15 C0.4375 13.0625 0.4375 13.0625 0 11 C-0.33 10.34 -0.66 9.68 -1 9 C-0.91348369 7.45386986 -0.75997364 5.91090613 -0.5625 4.375 C-0.46066406 3.55773437 -0.35882813 2.74046875 -0.25390625 1.8984375 C-0.17011719 1.27195312 -0.08632812 0.64546875 0 0 Z " fill="#EBC6C0" transform="translate(87,83)"/>
<path d="M0 0 C1.32 0.33 2.64 0.66 4 1 C4.66 0.67 5.32 0.34 6 0 C6 0.99 6 1.98 6 3 C5.34 3 4.68 3 4 3 C3.67 5.97 3.34 8.94 3 12 C2.01 12 1.02 12 0 12 C0 8.04 0 4.08 0 0 Z " fill="#222222" transform="translate(219,72)"/>
<path d="M0 0 C0.33 0 0.66 0 1 0 C0.67 7.59 0.34 15.18 0 23 C-1.65 23.33 -3.3 23.66 -5 24 C-5 23.01 -5 22.02 -5 21 C-4.34 20.67 -3.68 20.34 -3 20 C-2.43759058 17.97179493 -2.43759058 17.97179493 -2.1484375 15.52734375 C-2.01953125 14.62822266 -1.890625 13.72910156 -1.7578125 12.80273438 C-1.63148437 11.85720703 -1.50515625 10.91167969 -1.375 9.9375 C-1.2409375 8.98810547 -1.106875 8.03871094 -0.96875 7.06054688 C-0.63774352 4.70803655 -0.31521928 2.35466906 0 0 Z " fill="#9B6F53" transform="translate(85,43)"/>
<path d="M0 0 C6.76342282 6.29697987 6.76342282 6.29697987 7.18359375 11.09765625 C7.18706535 13.06605266 7.09995897 15.03414022 7 17 C5 14 5 14 4 11.875 C3.14139842 9.82955462 3.14139842 9.82955462 1 9 C0.5859375 6.93359375 0.5859375 6.93359375 0.375 4.4375 C0.30023438 3.61121094 0.22546875 2.78492187 0.1484375 1.93359375 C0.09945312 1.29550781 0.05046875 0.65742187 0 0 Z " fill="#AF7256" transform="translate(111,87)"/>
<path d="M0 0 C0.33 0.66 0.66 1.32 1 2 C1.99 2 2.98 2 4 2 C4.625 3.8125 4.625 3.8125 5 6 C4.01 7.485 4.01 7.485 3 9 C3.66 9.33 4.32 9.66 5 10 C2.03 12.475 2.03 12.475 -1 15 C-1.6875 12.6875 -1.6875 12.6875 -2 10 C-1.505 9.54625 -1.01 9.0925 -0.5 8.625 C-0.005 8.08875 0.49 7.5525 1 7 C0.76522801 3.35458155 0.76522801 3.35458155 0 0 Z " fill="#BD7D6B" transform="translate(97,84)"/>
<path d="M0 0 C0.66 0 1.32 0 2 0 C2.77249145 5.40744018 3.09752461 10.53862186 3 16 C2.34 16 1.68 16 1 16 C0.44435129 13.71168328 -0.09414974 11.41919635 -0.625 9.125 C-0.92664063 7.84882812 -1.22828125 6.57265625 -1.5390625 5.2578125 C-1.69117188 4.18273437 -1.84328125 3.10765625 -2 2 C-1.34 1.34 -0.68 0.68 0 0 Z " fill="#F4DDD0" transform="translate(133,72)"/>
<path d="M0 0 C0.33 0.66 0.66 1.32 1 2 C2.32 2 3.64 2 5 2 C5 4.64 5 7.28 5 10 C3.35 10 1.7 10 0 10 C0 6.7 0 3.4 0 0 Z " fill="#AF6F4B" transform="translate(72,52)"/>
<path d="M0 0 C2.64 0.99 5.28 1.98 8 3 C5.1709277 5.8290723 4.61855575 6.37611108 1 7 C0.67 6.34 0.34 5.68 0 5 C-1.97888961 4.27306096 -3.97954558 3.60183749 -6 3 C-6 2.67 -6 2.34 -6 2 C-4.02 2 -2.04 2 0 2 C0 1.34 0 0.68 0 0 Z " fill="#B2744F" transform="translate(62,120)"/>
<path d="M0 0 C3.45101522 4.24740335 6.73279209 8.61105071 10 13 C8.02 13.99 8.02 13.99 6 15 C5 13.33333333 4 11.66666667 3 10 C2.443125 9.175 1.88625 8.35 1.3125 7.5 C-0.13675817 4.73950824 -0.26315654 3.07015965 0 0 Z " fill="#F4E9DE" transform="translate(24,112)"/>
<path d="M0 0 C0.99 0.66 1.98 1.32 3 2 C2.94004678 3.79260132 2.8512759 5.58425795 2.75 7.375 C2.70359375 8.37273437 2.6571875 9.37046875 2.609375 10.3984375 C2.40828125 11.25695312 2.2071875 12.11546875 2 13 C0.02 13.99 0.02 13.99 -2 15 C-1.34 10.05 -0.68 5.1 0 0 Z " fill="#8A4E2D" transform="translate(131,88)"/>
<path d="M0 0 C2.49505962 2.49505962 2.35948376 3.67328888 2.625 7.125 C2.69976562 8.03507812 2.77453125 8.94515625 2.8515625 9.8828125 C2.90054688 10.58148438 2.94953125 11.28015625 3 12 C3.99 12.33 4.98 12.66 6 13 C4.68 13 3.36 13 2 13 C1.67 12.34 1.34 11.68 1 11 C0.01 10.67 -0.98 10.34 -2 10 C-2 7.36 -2 4.72 -2 2 C-1.34 2 -0.68 2 0 2 C0 1.34 0 0.68 0 0 Z " fill="#E7E7E7" transform="translate(180,48)"/>
<path d="M0 0 C5.94 0.99 5.94 0.99 12 2 C11.67 3.32 11.34 4.64 11 6 C6.94393835 5.53199289 3.53411321 5.12046792 0 3 C0 2.01 0 1.02 0 0 Z " fill="#5A5066" transform="translate(98,123)"/>
<path d="M0 0 C0.99 0.66 1.98 1.32 3 2 C1.68 2 0.36 2 -1 2 C-1 3.65 -1 5.3 -1 7 C-1.66 6.67 -2.32 6.34 -3 6 C-2.67 4.68 -2.34 3.36 -2 2 C-5.63 2.66 -9.26 3.32 -13 4 C-8.67440818 -0.6239085 -6.21178708 -1.42353454 0 0 Z " fill="#613D3D" transform="translate(112,52)"/>
<path d="M0 0 C1.43836751 0.11458693 2.87570966 0.24209116 4.3125 0.375 C5.51326172 0.47941406 5.51326172 0.47941406 6.73828125 0.5859375 C9 1 9 1 12 3 C12.1875 5.625 12.1875 5.625 12 8 C11.01 8.495 11.01 8.495 10 9 C10 8.01 10 7.02 10 6 C9.01 6 8.02 6 7 6 C6.67 5.34 6.34 4.68 6 4 C4.02111039 3.27306096 2.02045442 2.60183749 0 2 C0 1.34 0 0.68 0 0 Z " fill="#38271B" transform="translate(91,80)"/>
<path d="M0 0 C0.33 2.64 0.66 5.28 1 8 C0.01 8.33 -0.98 8.66 -2 9 C-2 8.34 -2 7.68 -2 7 C-3.32 7 -4.64 7 -6 7 C-6 5.35 -6 3.7 -6 2 C-1.125 0 -1.125 0 0 0 Z " fill="#C7B4B2" transform="translate(64,49)"/>
<path d="M0 0 C1.485 0.99 1.485 0.99 3 2 C3.29296875 4.6015625 3.29296875 4.6015625 3.1875 7.625 C3.16042969 8.62789062 3.13335937 9.63078125 3.10546875 10.6640625 C3.07066406 11.43492188 3.03585938 12.20578125 3 13 C2.01 13 1.02 13 0 13 C-0.19397476 11.02145742 -0.38001321 9.0421352 -0.5625 7.0625 C-0.66691406 5.96035156 -0.77132812 4.85820313 -0.87890625 3.72265625 C-0.91886719 2.82417969 -0.95882812 1.92570312 -1 1 C-0.67 0.67 -0.34 0.34 0 0 Z " fill="#282828" transform="translate(196,72)"/>
<path d="M0 0 C0.33 0.66 0.66 1.32 1 2 C0.01 3.485 0.01 3.485 -1 5 C-3.1640625 5.29296875 -3.1640625 5.29296875 -5.625 5.1875 C-6.44226563 5.16042969 -7.25953125 5.13335937 -8.1015625 5.10546875 C-9.04128906 5.05326172 -9.04128906 5.05326172 -10 5 C-10 4.34 -10 3.68 -10 3 C-6.55549263 0.70366176 -4.06187717 0.45983515 0 0 Z " fill="#322746" transform="translate(112,120)"/>
<path d="M0 0 C1.80411967 2.75924185 2.0127245 3.88972103 1.625 7.25 C1.41875 8.1575 1.2125 9.065 1 10 C0.34 10 -0.32 10 -1 10 C-3.74375671 7.04518508 -4 6.22528092 -4 2 C-2.68 1.34 -1.36 0.68 0 0 Z " fill="#F6EDEB" transform="translate(143,91)"/>
<path d="M0 0 C0.99 0 1.98 0 3 0 C2.34 2.31 1.68 4.62 1 7 C0.01 7 -0.98 7 -2 7 C-2.33 8.32 -2.66 9.64 -3 11 C-3.98995103 8.32713221 -4.04574968 7.14780667 -3.1875 4.375 C-2 2 -2 2 0 0 Z " fill="#3D2133" transform="translate(100,94)"/>
<path d="M0 0 C0.99 0 1.98 0 3 0 C3 3.96 3 7.92 3 12 C2.01 12 1.02 12 0 12 C0 8.04 0 4.08 0 0 Z " fill="#0F0F0F" transform="translate(227,72)"/>
<path d="M0 0 C1.98 0.66 3.96 1.32 6 2 C5.67 4.97 5.34 7.94 5 11 C4.67 10.01 4.34 9.02 4 8 C3.34 8 2.68 8 2 8 C-0.1519437 4.77208445 -0.20086443 3.71599191 0 0 Z " fill="#D0C6C6" transform="translate(82,75)"/>
<path d="M0 0 C1.65 0 3.3 0 5 0 C4.67 0.99 4.34 1.98 4 3 C4.33 3.33 4.66 3.66 5 4 C5.33 4.99 5.66 5.98 6 7 C4.34385343 7.38218767 2.67542976 7.71395102 1 8 C0 7 0 7 -0.0625 3.4375 C-0.041875 2.303125 -0.02125 1.16875 0 0 Z " fill="#531B1A" transform="translate(111,54)"/>
<path d="M0 0 C0 0.66 0 1.32 0 2 C0.99 2.33 1.98 2.66 3 3 C-1.29 3 -5.58 3 -10 3 C-9.67 2.01 -9.34 1.02 -9 0 C-5.62182575 -0.84454356 -3.32534757 -1.10844919 0 0 Z " fill="#77482E" transform="translate(53,125)"/>
<path d="M0 0 C0.33 1.98 0.66 3.96 1 6 C-2.45925163 4.7508258 -5.14693203 3.32472205 -8 1 C-4.93251126 -0.86240388 -3.40254489 -1.2151946 0 0 Z " fill="#CBADA0" transform="translate(72,116)"/>
<path d="M0 0 C3 1 3 1 4.16796875 2.84765625 C4.50441406 3.57855469 4.84085937 4.30945313 5.1875 5.0625 C5.53167969 5.79597656 5.87585938 6.52945313 6.23046875 7.28515625 C6.48441406 7.85105469 6.73835938 8.41695312 7 9 C6.01 9.495 6.01 9.495 5 10 C3.02 8.35 1.04 6.7 -1 5 C-0.67 3.35 -0.34 1.7 0 0 Z " fill="#F8EEF2" transform="translate(105,89)"/>
<path d="M0 0 C0.99 0.33 1.98 0.66 3 1 C2.34 1 1.68 1 1 1 C1 4.63 1 8.26 1 12 C1.66 12.33 2.32 12.66 3 13 C1.35 12.67 -0.3 12.34 -2 12 C-2 8.37 -2 4.74 -2 1 C-1.34 0.67 -0.68 0.34 0 0 Z " fill="#BBBBBB" transform="translate(232,72)"/>
<path d="M0 0 C-0.99 0.33 -1.98 0.66 -3 1 C-3 1.99 -3 2.98 -3 4 C-3.99 4.495 -3.99 4.495 -5 5 C-5.72159424 6.64363134 -6.39351421 8.31050386 -7 10 C-7.66 10 -8.32 10 -9 10 C-9.32523926 6.42236811 -9.42956587 4.60457419 -7.3125 1.625 C-4.61209763 -0.27258004 -3.22939919 -0.35882213 0 0 Z " fill="#372A2F" transform="translate(77,62)"/>
<path d="M0 0 C3.3 0.33 6.6 0.66 10 1 C9.67 1.99 9.34 2.98 9 4 C4.66726186 4.92844389 1.33273814 4.92844389 -3 4 C-2.01 3.67 -1.02 3.34 0 3 C0 2.01 0 1.02 0 0 Z " fill="#F1936D" transform="translate(87,118)"/>
<path d="M0 0 C1 3 1 3 1 5 C1.66 4.34 2.32 3.68 3 3 C3.99 4.485 3.99 4.485 5 6 C2 8 2 8 -0.1875 7.625 C-0.785625 7.41875 -1.38375 7.2125 -2 7 C-2.33 8.65 -2.66 10.3 -3 12 C-3.33 12 -3.66 12 -4 12 C-4.33292585 7.75519536 -4.43885872 5.64457375 -2 2.0625 C-1.34 1.381875 -0.68 0.70125 0 0 Z " fill="#40344D" transform="translate(50,72)"/>
<path d="M0 0 C0.33 0 0.66 0 1 0 C1.99 5.28 2.98 10.56 4 16 C3.34 16.33 2.68 16.66 2 17 C0.57741188 13.17679443 -0.24042276 10.08718695 0 6 C-0.99 5.67 -1.98 5.34 -3 5 C-2.67 4.34 -2.34 3.68 -2 3 C-1.34 3 -0.68 3 0 3 C0 2.01 0 1.02 0 0 Z " fill="#F9F0E7" transform="translate(20,95)"/>
<path d="M0 0 C-0.33 0.99 -0.66 1.98 -1 3 C-1.66 3 -2.32 3 -3 3 C-2.67 4.32 -2.34 5.64 -2 7 C-4.4375 6.25 -4.4375 6.25 -7 5 C-7.8125 2.875 -7.8125 2.875 -8 1 C-2.25 -1.125 -2.25 -1.125 0 0 Z " fill="#F18767" transform="translate(113,64)"/>
<path d="M0 0 C0.99 0.33 1.98 0.66 3 1 C3 1.66 3 2.32 3 3 C3.99 3.33 4.98 3.66 6 4 C6.33 4.66 6.66 5.32 7 6 C5.3125 7.125 5.3125 7.125 3 8 C0.25 7.125 0.25 7.125 -2 6 C-2 5.34 -2 4.68 -2 4 C-1.34 3.67 -0.68 3.34 0 3 C0 2.01 0 1.02 0 0 Z " fill="#F2E3DF" transform="translate(112,46)"/>
<path d="M0 0 C1.98 0.66 3.96 1.32 6 2 C5.67 2.66 5.34 3.32 5 4 C2.71484375 4.4140625 2.71484375 4.4140625 -0.0625 4.625 C-0.98160156 4.69976562 -1.90070313 4.77453125 -2.84765625 4.8515625 C-3.91306641 4.92503906 -3.91306641 4.92503906 -5 5 C-5 4.01 -5 3.02 -5 2 C-3.35 2 -1.7 2 0 2 C0 1.34 0 0.68 0 0 Z " fill="#362139" transform="translate(129,120)"/>
<path d="M0 0 C0.33 0 0.66 0 1 0 C1.33 5.28 1.66 10.56 2 16 C1.34 16 0.68 16 0 16 C-0.33 17.32 -0.66 18.64 -1 20 C-1.33 20 -1.66 20 -2 20 C-1.855625 18.9275 -1.71125 17.855 -1.5625 16.75 C-0.8615969 11.18282682 -0.43811078 5.5929036 0 0 Z " fill="#71687B" transform="translate(46,84)"/>
<path d="M0 0 C1.32 0 2.64 0 4 0 C4 2.31 4 4.62 4 7 C2.68 7.33 1.36 7.66 0 8 C0 5.36 0 2.72 0 0 Z " fill="#B3A099" transform="translate(78,104)"/>
<path d="M0 0 C1.98362069 2.91708924 1.9876191 4.12380904 1.625 7.75 C1.41875 8.8225 1.2125 9.895 1 11 C0.01 11 -0.98 11 -2 11 C-2.94693195 7.2983569 -3.30443767 5.60887535 -1.5625 2.125 C-1.046875 1.42375 -0.53125 0.7225 0 0 Z " fill="#2F2F2F" transform="translate(171,72)"/>
<path d="M0 0 C2.97 0.495 2.97 0.495 6 1 C6.33 2.32 6.66 3.64 7 5 C5.02 5.33 3.04 5.66 1 6 C0.67 4.02 0.34 2.04 0 0 Z " fill="#5F5F5F" transform="translate(181,72)"/>
<path d="M0 0 C2.29013653 3.4352048 2.17842973 4.985331 2 9 C1.4225 8.690625 0.845 8.38125 0.25 8.0625 C-1.84294184 7.07416636 -3.74535275 6.4831387 -6 6 C-6 5.34 -6 4.68 -6 4 C-4.02 4 -2.04 4 0 4 C0 2.68 0 1.36 0 0 Z " fill="#E7E7E7" transform="translate(213,51)"/>
<path d="M0 0 C0.33 0 0.66 0 1 0 C2.43687342 5.11886156 3.53695997 9.63040026 3 15 C2.01 15.66 1.02 16.32 0 17 C0 11.39 0 5.78 0 0 Z " fill="#DCDCDC" transform="translate(202,43)"/>
<path d="M0 0 C0.99 0.66 1.98 1.32 3 2 C2.01 2.495 2.01 2.495 1 3 C3.97 3.495 3.97 3.495 7 4 C7 4.66 7 5.32 7 6 C4.36 6 1.72 6 -1 6 C-1.66 4.35 -2.32 2.7 -3 1 C-2.01 0.67 -1.02 0.34 0 0 Z " fill="#DD967E" transform="translate(83,118)"/>
<path d="M0 0 C0.33 0 0.66 0 1 0 C1.268125 0.94875 1.53625 1.8975 1.8125 2.875 C2.74986588 6.25267273 2.74986588 6.25267273 6 8 C6 8.66 6 9.32 6 10 C6.66 10 7.32 10 8 10 C8 10.66 8 11.32 8 12 C4.79424013 11.65652573 4.02483241 11.0292146 1.875 8.5 C1.25625 7.675 0.6375 6.85 0 6 C-0.66 5.67 -1.32 5.34 -2 5 C-1 2 -1 2 0 0 Z " fill="#A36D5F" transform="translate(48,104)"/>
<path d="M0 0 C0.66 0.66 1.32 1.32 2 2 C1.9375 3.875 1.9375 3.875 1 6 C-3.33333333 10 -3.33333333 10 -6 10 C-6 9.34 -6 8.68 -6 8 C-5.34 8 -4.68 8 -4 8 C-3.71125 7.4225 -3.4225 6.845 -3.125 6.25 C-2.08333333 4.16666667 -1.04166667 2.08333333 0 0 Z " fill="#795244" transform="translate(137,97)"/>
<path d="M0 0 C1.04449911 3.13349732 0.93423645 3.98968256 0 7 C-1.65 7 -3.3 7 -5 7 C-5.1875 4.625 -5.1875 4.625 -5 2 C-2 0 -2 0 0 0 Z " fill="#F1E1E4" transform="translate(44,96)"/>
<path d="M0 0 C0 0.66 0 1.32 0 2 C-1.32 2.33 -2.64 2.66 -4 3 C-4 3.66 -4 4.32 -4 5 C-3.34 5.33 -2.68 5.66 -2 6 C-2.99 6.495 -2.99 6.495 -4 7 C-3.67 8.32 -3.34 9.64 -3 11 C-3.99 11.33 -4.98 11.66 -6 12 C-6.22893102 8.96666395 -6.35414522 6.02633186 -6 3 C-3.95583718 0.7514209 -3.03707969 0 0 0 Z " fill="#F7F3F2" transform="translate(71,56)"/>
<path d="M0 0 C0.66 0 1.32 0 2 0 C2 3.3 2 6.6 2 10 C1.01 10 0.02 10 -1 10 C-1.02689216 8.52093108 -1.04634621 7.04172517 -1.0625 5.5625 C-1.07410156 4.73878906 -1.08570313 3.91507813 -1.09765625 3.06640625 C-1 1 -1 1 0 0 Z " fill="#DDDDDD" transform="translate(219,50)"/>
<path d="M0 0 C1.98 0 3.96 0 6 0 C5.01 0.495 5.01 0.495 4 1 C4.33 2.32 4.66 3.64 5 5 C2.69 5 0.38 5 -2 5 C-1.34 3.35 -0.68 1.7 0 0 Z " fill="#616161" transform="translate(206,48)"/>
<path d="M0 0 C2.97 0 5.94 0 9 0 C8.67 0.99 8.34 1.98 8 3 C5.36 3.33 2.72 3.66 0 4 C0 2.68 0 1.36 0 0 Z " fill="#3B202E" transform="translate(42,120)"/>
<path d="M0 0 C0.33 0 0.66 0 1 0 C1.33 4.29 1.66 8.58 2 13 C0.68 13 -0.64 13 -2 13 C-2 11.02 -2 9.04 -2 7 C-1.67 7 -1.34 7 -1 7 C-0.67 4.69 -0.34 2.38 0 0 Z " fill="#E2D4E0" transform="translate(95,104)"/>
<path d="M0 0 C0.33 0 0.66 0 1 0 C1.06058594 0.75925781 1.12117188 1.51851563 1.18359375 2.30078125 C1.26738281 3.29464844 1.35117187 4.28851563 1.4375 5.3125 C1.55931641 6.79169922 1.55931641 6.79169922 1.68359375 8.30078125 C1.91812559 11.09375599 1.91812559 11.09375599 3 14 C1.68 14 0.36 14 -1 14 C-2.59789351 9.04653013 -1.28306814 4.86717585 0 0 Z " fill="#836167" transform="translate(33,91)"/>
<path d="M0 0 C0 0.99 0 1.98 0 3 C-2.97 2.505 -2.97 2.505 -6 2 C-6.33 2.66 -6.66 3.32 -7 4 C-7.33 3.34 -7.66 2.68 -8 2 C-8.99 1.34 -9.98 0.68 -11 0 C-6.94952424 -1.35015859 -4.2079832 -0.62084998 0 0 Z " fill="#D2D2D2" transform="translate(249,84)"/>
<path d="M0 0 C0.66 0 1.32 0 2 0 C2.33 0.66 2.66 1.32 3 2 C3.845625 2.495 4.69125 2.99 5.5625 3.5 C6.366875 3.995 7.17125 4.49 8 5 C8 5.66 8 6.32 8 7 C7.01 7.495 7.01 7.495 6 8 C4.86649466 10.01669827 4.86649466 10.01669827 4 12 C3.896875 10.906875 3.79375 9.81375 3.6875 8.6875 C3.00272798 5.01463192 2.72080696 4.24762314 0 2 C0 1.34 0 0.68 0 0 Z " fill="#D29F92" transform="translate(72,74)"/>
<path d="M0 0 C0.66 1.32 1.32 2.64 2 4 C4.64 4 7.28 4 10 4 C9.01 4.495 9.01 4.495 8 5 C7.67 5.66 7.34 6.32 7 7 C4 7 1 7 -2 7 C-1.34 4.69 -0.68 2.38 0 0 Z " fill="#E7B5A4" transform="translate(117,63)"/>
<path d="M0 0 C1.98 0.495 1.98 0.495 4 1 C4 2.32 4 3.64 4 5 C5.32 5.33 6.64 5.66 8 6 C5.29120665 7.35439668 2.99066732 7.06501451 0 7 C0.66 6.67 1.32 6.34 2 6 C1.01 4.68 0.02 3.36 -1 2 C-0.67 1.34 -0.34 0.68 0 0 Z " fill="#D2BDB9" transform="translate(76,120)"/>
<path d="M0 0 C1.31534494 3.65857532 0.65468309 6.08026481 -0.4375 9.75 C-0.86869141 11.22726563 -0.86869141 11.22726563 -1.30859375 12.734375 C-1.53675781 13.48203125 -1.76492187 14.2296875 -2 15 C-2.66 14.67 -3.32 14.34 -4 14 C-3.53328373 8.58609132 -2.75702189 4.79482068 0 0 Z " fill="#DBA08E" transform="translate(127,107)"/>
<path d="M0 0 C0.66 0 1.32 0 2 0 C2.28571429 8.57142857 2.28571429 8.57142857 0 12 C-0.66 12 -1.32 12 -2 12 C-1.85831863 10.56208484 -1.71148957 9.1246763 -1.5625 7.6875 C-1.48128906 6.88699219 -1.40007813 6.08648437 -1.31640625 5.26171875 C-1 3 -1 3 0 0 Z " fill="#BA9894" transform="translate(46,100)"/>
<path d="M0 0 C0 1.65 0 3.3 0 5 C-0.928125 5.268125 -1.85625 5.53625 -2.8125 5.8125 C-5.76240366 6.91148371 -7.05615186 7.62418561 -9 10 C-9 8.68 -9 7.36 -9 6 C-7.28515625 4.296875 -7.28515625 4.296875 -5.0625 2.75 C-4.33160156 2.22921875 -3.60070312 1.7084375 -2.84765625 1.171875 C-1 0 -1 0 0 0 Z " fill="#684F58" transform="translate(140,101)"/>
<path d="M0 0 C0.33 0 0.66 0 1 0 C1 2.97 1 5.94 1 9 C1.66 9 2.32 9 3 9 C3 10.98 3 12.96 3 15 C2.01 15 1.02 15 0 15 C0 10.05 0 5.1 0 0 Z " fill="#333333" transform="translate(164,69)"/>
<path d="M0 0 C1.65 0 3.3 0 5 0 C5 1.98 5 3.96 5 6 C3.68 6 2.36 6 1 6 C0.67 4.02 0.34 2.04 0 0 Z " fill="#F4D3BD" transform="translate(73,45)"/>
<path d="M0 0 C0.33 0 0.66 0 1 0 C1.40178571 8.03571429 1.40178571 8.03571429 -2 12 C-2.05395478 10.37536158 -2.09277195 8.75021459 -2.125 7.125 C-2.14820313 6.22007813 -2.17140625 5.31515625 -2.1953125 4.3828125 C-2 2 -2 2 0 0 Z " fill="#F9EFF0" transform="translate(64,84)"/>
<path d="M0 0 C0.99 0 1.98 0 3 0 C3 2.97 3 5.94 3 9 C2.01 9 1.02 9 0 9 C0 6.03 0 3.06 0 0 Z " fill="#D8D8D8" transform="translate(193,75)"/>
<path d="M0 0 C0.33 0.66 0.66 1.32 1 2 C1.66 2 2.32 2 3 2 C3.33 1.34 3.66 0.68 4 0 C4.33 1.32 4.66 2.64 5 4 C4.34 4 3.68 4 3 4 C3 4.66 3 5.32 3 6 C2.34 6 1.68 6 1 6 C1 8.31 1 10.62 1 13 C0.67 13 0.34 13 0 13 C0 8.71 0 4.42 0 0 Z " fill="#84553C" transform="translate(111,74)"/>
<path d="M0 0 C2.97 0.495 2.97 0.495 6 1 C5.625 2.9375 5.625 2.9375 5 5 C4.01 5.495 4.01 5.495 3 6 C2.01 5.67 1.02 5.34 0 5 C0 3.35 0 1.7 0 0 Z " fill="#7A7A7A" transform="translate(246,74)"/>
<path d="M0 0 C2 0.3125 2 0.3125 4 1 C5.35439668 3.70879335 5.06501451 6.00933268 5 9 C4.01 9 3.02 9 2 9 C2 6.69 2 4.38 2 2 C1.01 1.67 0.02 1.34 -1 1 C-0.67 0.67 -0.34 0.34 0 0 Z " fill="#090909" transform="translate(212,72)"/>
<path d="M0 0 C1.98 0.495 1.98 0.495 4 1 C4.33 2.32 4.66 3.64 5 5 C3.02 5 1.04 5 -1 5 C-0.67 3.35 -0.34 1.7 0 0 Z " fill="#522E2F" transform="translate(116,125)"/>
<path d="M0 0 C0.66 0 1.32 0 2 0 C3.125 1.75 3.125 1.75 4 4 C3.125 6.25 3.125 6.25 2 8 C0.35 6.68 -1.3 5.36 -3 4 C-2.01 4 -1.02 4 0 4 C0 2.68 0 1.36 0 0 Z " fill="#E2E2E2" transform="translate(177,80)"/>
<path d="M0 0 C0.66 0 1.32 0 2 0 C2 2.31 2 4.62 2 7 C3.65 7.33 5.3 7.66 7 8 C6.67 8.99 6.34 9.98 6 11 C2.125 10.125 2.125 10.125 1 9 C0.76807135 7.48530552 0.58784762 5.96245438 0.4375 4.4375 C0.35371094 3.61121094 0.26992187 2.78492187 0.18359375 1.93359375 C0.12300781 1.29550781 0.06242188 0.65742187 0 0 Z " fill="#363636" transform="translate(200,74)"/>
<path d="M0 0 C1.64936913 0.78427352 3.29441127 1.57765259 4.9375 2.375 C5.85402344 2.81585938 6.77054688 3.25671875 7.71484375 3.7109375 C10 5 10 5 11 7 C6.61110675 6.33501617 3.0188515 4.81242323 -1 3 C-0.67 2.01 -0.34 1.02 0 0 Z " fill="#9B746B" transform="translate(57,115)"/>
<path d="M0 0 C2.97 0.99 5.94 1.98 9 3 C9 3.66 9 4.32 9 5 C6.36 5 3.72 5 1 5 C0.67 3.35 0.34 1.7 0 0 Z " fill="#AD8371" transform="translate(64,111)"/>
<path d="M0 0 C0.33 0 0.66 0 1 0 C1 4.29 1 8.58 1 13 C0.01 13 -0.98 13 -2 13 C-2 10.69 -2 8.38 -2 6 C-1.67 6 -1.34 6 -1 6 C-0.67 4.02 -0.34 2.04 0 0 Z " fill="#935532" transform="translate(120,91)"/>
<path d="M0 0 C2.31 0.33 4.62 0.66 7 1 C6.67 2.98 6.34 4.96 6 7 C5.67 6.34 5.34 5.68 5 5 C2.97536745 4.34786708 2.97536745 4.34786708 1 4 C0.67 2.68 0.34 1.36 0 0 Z " fill="#E2DEDE" transform="translate(61,66)"/>
<path d="M0 0 C0 1.98 0 3.96 0 6 C-1.65 5.67 -3.3 5.34 -5 5 C-5 3.68 -5 2.36 -5 1 C-2 0 -2 0 0 0 Z " fill="#F1DDCE" transform="translate(82,58)"/>
<path d="M0 0 C1.32 0.66 2.64 1.32 4 2 C3.67 3.32 3.34 4.64 3 6 C1.35 5.67 -0.3 5.34 -2 5 C-1.34 3.35 -0.68 1.7 0 0 Z " fill="#E1E1E1" transform="translate(166,52)"/>
<path d="M0 0 C0.33 0 0.66 0 1 0 C1 2.64 1 5.28 1 8 C1.99 8 2.98 8 4 8 C4 8.66 4 9.32 4 10 C2.35 9.67 0.7 9.34 -1 9 C-1.09765625 2.84765625 -1.09765625 2.84765625 -1 1 C-0.67 0.67 -0.34 0.34 0 0 Z " fill="#030303" transform="translate(228,50)"/>
<path d="M0 0 C0.66 1.32 1.32 2.64 2 4 C0.71034824 5.37562854 -0.62689293 6.70766393 -2 8 C-2.66 8 -3.32 8 -4 8 C-2.87548273 5.0280615 -1.77706209 2.66559313 0 0 Z " fill="#FBDDD0" transform="translate(69,96)"/>
<path d="M0 0 C1.60080151 4.00200378 0.29279692 7.04556236 -1 11 C-3 8 -3 8 -2.625 5.3125 C-2.41875 4.549375 -2.2125 3.78625 -2 3 C-1.34 3 -0.68 3 0 3 C0 2.01 0 1.02 0 0 Z " fill="#DDC7CA" transform="translate(80,78)"/>
<path d="M0 0 C1.98 0.99 3.96 1.98 6 3 C5.67 4.98 5.34 6.96 5 9 C0.57142857 3.85714286 0.57142857 3.85714286 0 0 Z " fill="#585554" transform="translate(99,77)"/>
<path d="M0 0 C1.32 0 2.64 0 4 0 C4.33 1.65 4.66 3.3 5 5 C2.69 5 0.38 5 -2 5 C-2 4.34 -2 3.68 -2 3 C-1.34 3 -0.68 3 0 3 C0 2.01 0 1.02 0 0 Z " fill="#2F2E26" transform="translate(95,77)"/>
<path d="M0 0 C0.99 0.33 1.98 0.66 3 1 C3.125 7.75 3.125 7.75 2 10 C1.34 10 0.68 10 0 10 C0 6.7 0 3.4 0 0 Z " fill="#EBEBEB" transform="translate(241,73)"/>
<path d="M0 0 C1.32 0 2.64 0 4 0 C4 1.65 4 3.3 4 5 C2.02 5.99 2.02 5.99 0 7 C0 4.69 0 2.38 0 0 Z " fill="#0B0B0B" transform="translate(172,69)"/>
<path d="M0 0 C0.99 0 1.98 0 3 0 C3 2.64 3 5.28 3 8 C2.01 7.67 1.02 7.34 0 7 C0 4.69 0 2.38 0 0 Z " fill="#EBEBEB" transform="translate(196,50)"/>
<path d="M0 0 C0 0.99 0 1.98 0 3 C-1.98 3 -3.96 3 -6 3 C-6 5.31 -6 7.62 -6 10 C-6.33 10 -6.66 10 -7 10 C-7 7.03 -7 4.06 -7 1 C-2.25 0 -2.25 0 0 0 Z " fill="#927664" transform="translate(79,42)"/>
<path d="M0 0 C0.33 0.99 0.66 1.98 1 3 C-0.32 3 -1.64 3 -3 3 C-3.33 3.66 -3.66 4.32 -4 5 C-4 4.34 -4 3.68 -4 3 C-4.99 3 -5.98 3 -7 3 C-7 2.34 -7 1.68 -7 1 C-4.53721199 -0.231394 -2.7204945 -0.07159196 0 0 Z " fill="#DF9075" transform="translate(82,114)"/>
<path d="M0 0 C0.99 0 1.98 0 3 0 C3 2.31 3 4.62 3 7 C2.01 7 1.02 7 0 7 C0 4.69 0 2.38 0 0 Z " fill="#EFEFEF" transform="translate(211,75)"/>
<path d="M0 0 C-0.33 2.31 -0.66 4.62 -1 7 C-2.32 6.34 -3.64 5.68 -5 5 C-5 4.01 -5 3.02 -5 2 C-2 0 -2 0 0 0 Z " fill="#B4724E" transform="translate(120,69)"/>
<path d="M0 0 C0.99 0 1.98 0 3 0 C3 1.32 3 2.64 3 4 C3.99 4 4.98 4 6 4 C6 4.66 6 5.32 6 6 C4.33388095 6.042721 2.66617115 6.04063832 1 6 C0 5 0 5 -0.0625 2.4375 C-0.041875 1.633125 -0.02125 0.82875 0 0 Z " fill="#1A1A1A" transform="translate(175,54)"/>
<path d="M0 0 C0.33 0 0.66 0 1 0 C1 3.3 1 6.6 1 10 C0.01 10.33 -0.98 10.66 -2 11 C-2.24042276 6.91281305 -1.42258812 3.82320557 0 0 Z " fill="#C4A9A6" transform="translate(127,111)"/>
<path d="M0 0 C0.33 0 0.66 0 1 0 C1 4.29 1 8.58 1 13 C0.01 13 -0.98 13 -2 13 C-1.34 8.71 -0.68 4.42 0 0 Z " fill="#705F73" transform="translate(92,104)"/>
<path d="M0 0 C1.65 0 3.3 0 5 0 C3.25 4.875 3.25 4.875 1 6 C1 5.34 1 4.68 1 4 C0.34 3.67 -0.32 3.34 -1 3 C-0.67 2.01 -0.34 1.02 0 0 Z " fill="#F0D7DE" transform="translate(89,95)"/>
<path d="M0 0 C0.66 0.99 1.32 1.98 2 3 C1.01 3.33 0.02 3.66 -1 4 C-1.66 3.67 -2.32 3.34 -3 3 C-3 3.66 -3 4.32 -3 5 C-3.99 5 -4.98 5 -6 5 C-6 4.01 -6 3.02 -6 2 C-4.02 1.34 -2.04 0.68 0 0 Z " fill="#4E2225" transform="translate(105,54)"/>
<path d="M0 0 C0.33 0 0.66 0 1 0 C1.33 3.3 1.66 6.6 2 10 C0.35 9.67 -1.3 9.34 -3 9 C-2 7 -2 7 0 6 C0 4.02 0 2.04 0 0 Z " fill="#F5DFD8" transform="translate(73,104)"/>
<path d="M0 0 C0.66 0.33 1.32 0.66 2 1 C2 4.3 2 7.6 2 11 C1.01 10.67 0.02 10.34 -1 10 C-0.835 9.46375 -0.67 8.9275 -0.5 8.375 C0.09660212 5.54113991 0.0656368 2.8880194 0 0 Z " fill="#BC7952" transform="translate(129,78)"/>
<path d="M0 0 C2.475 0.495 2.475 0.495 5 1 C5 2.32 5 3.64 5 5 C3.35 5 1.7 5 0 5 C0 3.35 0 1.7 0 0 Z " fill="#A67D6B" transform="translate(72,57)"/>
<path d="M0 0 C2.97 0 5.94 0 9 0 C8.67 0.99 8.34 1.98 8 3 C2.25 3.125 2.25 3.125 0 2 C0 1.34 0 0.68 0 0 Z " fill="#1B1B1B" transform="translate(163,57)"/>
<path d="M0 0 C1.32 0 2.64 0 4 0 C3.67 1.65 3.34 3.3 3 5 C2.01 5.33 1.02 5.66 0 6 C0 4.02 0 2.04 0 0 Z " fill="#441C1A" transform="translate(119,58)"/>
<path d="M0 0 C0.99 0.33 1.98 0.66 3 1 C3 2.65 3 4.3 3 6 C1.02 6 -0.96 6 -3 6 C-2.67 5.34 -2.34 4.68 -2 4 C-1.01 4 -0.02 4 1 4 C0.67 2.68 0.34 1.36 0 0 Z " fill="#161616" transform="translate(210,49)"/>
<path d="M0 0 C1.65 0 3.3 0 5 0 C5 1.32 5 2.64 5 4 C3.35 4 1.7 4 0 4 C0 2.68 0 1.36 0 0 Z " fill="#D2A589" transform="translate(78,45)"/>
<path d="M0 0 C1.65 0.33 3.3 0.66 5 1 C5 1.99 5 2.98 5 4 C3.02 4 1.04 4 -1 4 C-0.67 2.68 -0.34 1.36 0 0 Z " fill="#B7A6A8" transform="translate(110,125)"/>
<path d="M0 0 C0.99 0 1.98 0 3 0 C3.33 0.99 3.66 1.98 4 3 C2.68 3.99 1.36 4.98 0 6 C-0.66 5.67 -1.32 5.34 -2 5 C-1.34 3.35 -0.68 1.7 0 0 Z " fill="#3A2231" transform="translate(102,118)"/>
<path d="M0 0 C0.66 0 1.32 0 2 0 C2 2.97 2 5.94 2 9 C1.34 8.34 0.68 7.68 0 7 C0 5.68 0 4.36 0 3 C-0.66 3 -1.32 3 -2 3 C-1 1 -1 1 0 0 Z " fill="#281C2E" transform="translate(111,111)"/>
<path d="M0 0 C0.99 0.33 1.98 0.66 3 1 C2.625 3.4375 2.625 3.4375 2 6 C1.01 6.495 1.01 6.495 0 7 C0 5.68 0 4.36 0 3 C-0.66 2.67 -1.32 2.34 -2 2 C-1.34 1.34 -0.68 0.68 0 0 Z " fill="#CF9081" transform="translate(67,92)"/>
<path d="M0 0 C0.66 0 1.32 0 2 0 C2.33 2.31 2.66 4.62 3 7 C2.34 7 1.68 7 1 7 C1 6.34 1 5.68 1 5 C0.01 4.67 -0.98 4.34 -2 4 C-1.34 2.68 -0.68 1.36 0 0 Z " fill="#F6EAE0" transform="translate(133,72)"/>
<path d="M0 0 C2.475 0.99 2.475 0.99 5 2 C5 2.99 5 3.98 5 5 C3.35 5 1.7 5 0 5 C0 3.35 0 1.7 0 0 Z " fill="#F6865F" transform="translate(92,87)"/>
<path d="M0 0 C1.98 0 3.96 0 6 0 C5.01 0.495 5.01 0.495 4 1 C3.34786708 3.02463255 3.34786708 3.02463255 3 5 C2.34 5 1.68 5 1 5 C0.67 3.35 0.34 1.7 0 0 Z " fill="#F18C71" transform="translate(121,107)"/>
<path d="M0 0 C0.33 0.99 0.66 1.98 1 3 C0.01 3 -0.98 3 -2 3 C-2.33 3.66 -2.66 4.32 -3 5 C-3.99 4.67 -4.98 4.34 -6 4 C-6 3.34 -6 2.68 -6 2 C-4.02 1.34 -2.04 0.68 0 0 Z " fill="#A4674D" transform="translate(37,105)"/>
<path d="M0 0 C0.185625 0.9590625 0.185625 0.9590625 0.375 1.9375 C0.684375 2.9584375 0.684375 2.9584375 1 4 C1.66 4.33 2.32 4.66 3 5 C1.35 5.33 -0.3 5.66 -2 6 C-2 4.35 -2 2.7 -2 1 C-1.34 0.67 -0.68 0.34 0 0 Z " fill="#BA7855" transform="translate(128,101)"/>
<path d="M0 0 C0.99 0.33 1.98 0.66 3 1 C2.67 1.66 2.34 2.32 2 3 C1.34 3 0.68 3 0 3 C0 4.65 0 6.3 0 8 C-1.32 7.34 -2.64 6.68 -4 6 C-3.01 6 -2.02 6 -1 6 C-1.020625 5.195625 -1.04125 4.39125 -1.0625 3.5625 C-1 1 -1 1 0 0 Z " fill="#BC6942" transform="translate(126,99)"/>
<path d="M0 0 C1.32 0.66 2.64 1.32 4 2 C3.01 2.33 2.02 2.66 1 3 C1 4.98 1 6.96 1 9 C0.67 9 0.34 9 0 9 C-0.66 6.69 -1.32 4.38 -2 2 C-1.34 1.34 -0.68 0.68 0 0 Z " fill="#3E3E3E" transform="translate(210,72)"/>
<path d="M0 0 C2 1 2 1 4 3 C3.67 3.99 3.34 4.98 3 6 C2.01 6 1.02 6 0 6 C0 5.34 0 4.68 0 4 C-0.66 3.67 -1.32 3.34 -2 3 C-1.34 2.01 -0.68 1.02 0 0 Z " fill="#BB785F" transform="translate(71,69)"/>
<path d="M0 0 C1.32 0 2.64 0 4 0 C4 1.32 4 2.64 4 4 C3.01 4.33 2.02 4.66 1 5 C0.34 3.68 -0.32 2.36 -1 1 C-0.67 0.67 -0.34 0.34 0 0 Z " fill="#F4E2E1" transform="translate(123,56)"/>
<path d="M0 0 C2.475 0.495 2.475 0.495 5 1 C4.01 2.32 3.02 3.64 2 5 C1.34 4.67 0.68 4.34 0 4 C0 2.68 0 1.36 0 0 Z " fill="#D5D5D5" transform="translate(167,46)"/>
</svg>
