<svg version="1.1" id="Layer_1" xmlns="http://www.w3.org/2000/svg" xmlns:xlink="http://www.w3.org/1999/xlink" x="0px" y="0px"
	 width="100%" viewBox="0 0 300 168" enable-background="new 0 0 300 168" xml:space="preserve">
<path fill="#FEFEFE" opacity="1.000000" stroke="none" 
	d="
M180.000000,169.000000 
	C120.000008,169.000000 60.500015,169.000000 1.000016,169.000000 
	C1.000011,113.000015 1.000011,57.000027 1.000005,1.000031 
	C100.999969,1.000021 200.999939,1.000021 300.999939,1.000010 
	C300.999939,56.999969 300.999939,112.999939 300.999969,168.999954 
	C260.833344,169.000000 220.666672,169.000000 180.000000,169.000000 
M35.772106,125.285423 
	C35.772106,125.285423 35.660858,125.406303 36.001717,125.847176 
	C39.004646,127.192009 42.007572,128.536850 45.924667,130.016785 
	C49.915325,129.919296 53.905979,129.821793 58.815220,129.793472 
	C60.624084,129.881180 62.496143,130.309052 64.228920,129.987152 
	C68.070152,129.273575 72.371223,129.274399 75.282455,125.108368 
	C78.801346,126.013535 82.174919,128.854752 86.720596,125.910286 
	C88.862709,124.961182 91.004814,124.012077 93.605423,123.039833 
	C93.605423,123.039833 94.053970,122.939613 94.611084,123.346092 
	C96.006874,123.609001 97.402657,123.871902 98.679375,124.788147 
	C98.862663,125.782387 98.852142,127.547386 99.259674,127.649864 
	C102.761688,128.530502 106.339226,129.110764 110.738075,129.880386 
	C113.171585,129.294556 115.605095,128.708725 118.706970,128.092148 
	C119.994057,129.014420 121.281151,129.936691 122.502037,130.811539 
	C123.956863,130.189545 125.542313,129.511703 127.809555,129.217773 
	C132.014359,130.065109 136.219162,130.912460 141.192001,131.914566 
	C141.192001,126.488518 141.192001,122.247940 141.744781,117.932861 
	C141.854935,117.299042 141.965088,116.665222 142.170929,115.279762 
	C142.239853,114.526390 142.308777,113.773026 143.060760,112.888771 
	C144.660721,109.554222 147.025970,106.372856 147.729294,102.858849 
	C150.922623,86.904495 148.259033,71.926392 139.085709,58.275311 
	C131.855682,47.516083 125.168594,43.773655 113.742203,47.372665 
	C105.107567,50.092342 96.641792,49.580944 87.936104,49.248802 
	C88.015091,48.509315 88.094078,47.769825 88.820335,46.877293 
	C88.653076,45.570709 88.485825,44.264130 87.746078,42.593979 
	C86.159431,42.728378 84.572777,42.862778 82.091835,42.889320 
	C78.659416,43.661888 75.227005,44.434452 70.762589,45.101055 
	C65.596985,45.067677 60.426960,44.883099 55.266754,45.034065 
	C46.033081,45.304203 38.975845,50.290474 32.689957,56.354481 
	C25.506218,63.284645 21.168854,71.923645 21.318853,81.958046 
	C21.454487,91.031433 18.239523,100.255051 22.089098,109.171852 
	C22.706379,110.601662 24.189451,111.657692 25.787699,113.332199 
	C28.139816,116.702820 30.491934,120.073448 32.924728,123.808052 
	C33.061649,124.047165 33.267868,124.167877 33.919186,124.749153 
	C34.546513,124.981804 35.173836,125.214462 35.772106,125.285423 
M190.171173,74.037132 
	C189.378342,74.064751 188.585510,74.092369 187.105423,73.849998 
	C184.482864,72.245171 181.713104,72.631172 180.991486,75.446808 
	C180.285461,78.201477 180.637100,81.557198 181.641846,84.228897 
	C181.963333,85.083771 185.849945,84.696594 188.104050,84.681091 
	C189.111481,84.674164 190.115570,84.182030 191.308823,84.917603 
	C192.218964,84.213631 193.685242,83.663162 193.930237,82.775589 
	C194.552368,80.521690 194.627457,78.116798 195.856628,75.949120 
	C196.319031,79.138145 196.781433,82.327164 197.230377,85.423439 
	C199.471222,84.944695 201.192093,84.577042 203.105957,84.845940 
	C204.728668,84.868011 206.351379,84.890076 208.317993,85.349800 
	C208.894806,85.164581 209.471634,84.979362 210.708099,85.189819 
	C212.964951,84.625435 216.674271,84.632751 217.169342,83.374931 
	C218.131866,80.929558 218.049500,77.450180 217.001205,74.996788 
	C215.746414,72.060059 212.683060,72.645554 209.287231,74.051315 
	C208.732498,74.019737 208.177780,73.988159 207.056412,73.610222 
	C204.974136,73.864960 205.560379,68.387451 202.339233,71.349350 
	C201.312653,72.293335 200.777359,73.771599 199.314514,74.849564 
	C197.874954,71.759216 195.907043,73.159523 193.296646,73.743439 
	C192.518707,73.823288 191.740784,73.903137 190.171173,74.037132 
M232.106445,83.006889 
	C232.424149,83.000145 232.741837,82.993393 233.263138,83.641418 
	C233.853821,84.253944 234.444504,84.866470 235.035202,85.478989 
	C235.502472,84.768707 236.275162,84.100800 236.380676,83.340317 
	C236.718674,80.904663 236.809586,78.434708 237.868195,75.738602 
	C238.432159,79.092728 238.996140,82.446846 239.510132,85.503769 
	C240.780823,86.022163 242.890091,86.275520 243.128952,87.082527 
	C244.325989,91.126503 247.343994,89.869720 250.621414,90.015099 
	C251.369049,89.336578 252.116669,88.658066 253.167709,87.247742 
	C253.344177,82.732193 249.780136,83.473892 247.048523,82.468239 
	C247.048523,82.468239 246.996201,81.989052 247.647339,81.629158 
	C251.199203,81.406395 253.437088,80.163467 252.049835,75.287720 
	C252.252182,74.842522 252.454529,74.397316 253.170547,73.343941 
	C249.689102,73.761543 246.207657,74.179138 242.572388,74.615189 
	C240.952728,74.479607 239.006744,74.316711 236.443451,74.085922 
	C235.512802,73.837227 234.582169,73.588539 232.606827,73.187386 
	C231.905045,73.201668 231.203278,73.215950 229.763733,73.469505 
	C228.039932,74.916405 226.936554,84.380089 228.548859,85.041634 
	C229.057236,85.250221 230.265594,83.752838 232.106445,83.006889 
M175.838608,45.674500 
	C174.328262,44.761578 173.260696,41.244953 170.189774,44.903229 
	C168.386581,45.946987 166.007736,46.621181 165.006958,48.180077 
	C164.451218,49.045731 165.996246,51.514462 166.957718,53.030239 
	C167.979431,54.640999 169.430771,55.979244 170.694504,57.436493 
	C168.815216,57.640221 166.932816,57.821205 165.060913,58.078613 
	C164.844971,58.108307 164.687500,58.563286 163.442749,60.301853 
	C166.991638,60.317993 170.150681,61.223362 171.948471,60.047504 
	C173.291443,59.169125 172.877274,55.604221 174.192963,53.153328 
	C174.509918,53.149364 174.826874,53.145405 175.426376,53.857342 
	C175.633377,54.948135 175.911224,56.030975 176.034714,57.131142 
	C176.485382,61.146214 177.498352,61.695717 181.703125,60.128136 
	C178.308380,56.934921 178.117905,53.201870 181.642654,49.109962 
	C179.729446,48.140995 177.924210,47.226700 175.838608,45.674500 
M197.298904,48.665283 
	C192.504074,50.517395 193.847473,54.414692 194.177719,58.675789 
	C195.822189,59.266457 197.466675,59.857128 199.880661,60.357498 
	C200.956985,59.816174 202.928864,59.329811 202.966003,58.724701 
	C203.230423,54.416485 203.210205,50.078270 202.986404,45.764874 
	C202.948868,45.041454 201.484528,44.392071 199.961487,43.098831 
	C199.961487,45.932056 199.961487,47.420452 199.304626,48.939087 
	C198.873947,48.928509 198.443253,48.917931 197.298904,48.665283 
M177.744812,74.908638 
	C177.363602,72.240158 178.163483,68.337303 173.245422,70.331505 
	C172.750900,72.931709 172.292511,75.341866 171.708496,78.412621 
	C168.920380,69.881142 168.920380,69.881142 165.510422,70.552078 
	C165.257462,75.388039 165.001114,80.288483 164.744781,85.188934 
	C165.397598,85.341911 166.050400,85.494896 166.703217,85.647873 
	C167.304749,83.293327 167.906296,80.938774 168.384430,79.067207 
	C169.345673,80.427841 170.544815,82.125214 171.743958,83.822586 
	C172.757019,81.759926 173.770081,79.697266 174.543381,78.122772 
	C175.030914,80.250656 175.639206,82.905479 176.247482,85.560310 
	C176.771988,85.396729 177.296509,85.233154 177.821014,85.069572 
	C177.821014,81.977127 177.821014,78.884674 177.744812,74.908638 
M211.179596,61.091423 
	C212.082138,60.603954 212.984680,60.116489 214.225922,59.446083 
	C211.839233,58.683861 209.929764,58.074039 208.020279,57.464214 
	C208.125351,57.014240 208.230408,56.564262 208.335464,56.114288 
	C210.243210,55.991074 212.150940,55.867859 215.399857,55.658024 
	C213.944168,52.938251 213.257736,50.518078 211.667374,49.144459 
	C210.819672,48.412277 207.353928,48.964806 206.912430,49.853199 
	C205.815567,52.060307 205.039719,54.962368 205.566788,57.256355 
	C205.929413,58.834675 208.687973,59.862503 211.179596,61.091423 
M216.151474,49.935677 
	C216.125000,60.308956 216.125000,60.308956 218.835464,60.510181 
	C219.238434,57.342636 219.639038,54.193668 220.039642,51.044697 
	C220.577850,51.092018 221.116043,51.139339 221.654251,51.186661 
	C221.812820,54.385586 221.971375,57.584511 222.154953,61.287880 
	C223.334991,60.749538 224.771637,60.413818 224.781784,60.039448 
	C224.870911,56.750038 225.237167,53.292690 224.315125,50.250698 
	C224.010574,49.245930 220.192520,49.279499 217.969757,48.904701 
	C217.512329,48.827572 217.005066,49.046204 216.151474,49.935677 
M183.575394,48.961826 
	C183.397476,52.043152 182.877014,55.164009 183.225540,58.184586 
	C183.349258,59.256794 185.468613,60.496651 186.893661,60.906460 
	C188.260010,61.299393 189.907242,60.715569 191.643951,60.539398 
	C191.643951,56.698650 191.643951,52.956657 191.643951,48.570980 
	C185.927124,50.266415 191.451569,57.100960 186.133957,59.045914 
	C186.133957,56.626175 186.333328,54.651802 186.065781,52.742867 
	C185.878876,51.409237 185.053024,50.165157 183.575394,48.961826 
M230.685028,52.002274 
	C231.369873,51.383347 232.054733,50.764420 232.860580,50.036140 
	C231.610229,48.551758 230.403671,47.119377 229.157745,45.640247 
	C223.938477,49.011345 228.208603,53.277115 227.607162,56.938179 
	C226.957428,60.893208 229.607727,61.879452 232.253586,60.967545 
	C231.659378,57.935070 231.160370,55.388428 230.685028,52.002274 
M220.603210,73.664459 
	C220.434006,76.934494 220.173874,80.204437 220.170563,83.474640 
	C220.169876,84.147102 221.048676,84.923988 221.697952,85.424698 
	C221.872025,85.558929 223.054581,84.943947 223.162704,84.517754 
	C224.117477,80.754677 224.934265,76.956589 225.756271,73.325996 
	C224.558502,73.325996 222.944595,73.325996 220.603210,73.664459 
z"/>
<path fill="#F5EBEA" opacity="1.000000" stroke="none" 
	d="
M25.272282,112.886513 
	C24.189451,111.657692 22.706379,110.601662 22.089098,109.171852 
	C18.239523,100.255051 21.454487,91.031433 21.318853,81.958046 
	C21.168854,71.923645 25.506218,63.284645 32.689957,56.354481 
	C38.975845,50.290474 46.033081,45.304203 55.266754,45.034065 
	C60.426960,44.883099 65.596985,45.067677 71.355240,45.496162 
	C72.263603,48.268242 72.579315,50.645218 72.869751,53.481468 
	C73.024071,57.018261 73.203682,60.095779 73.156876,63.440361 
	C69.023529,65.730453 68.182808,68.846512 69.774841,73.041122 
	C71.215942,74.540199 72.571648,75.797493 73.942245,77.381096 
	C73.983902,78.142952 74.010666,78.578499 73.714600,79.041779 
	C72.951004,79.713478 72.510239,80.357452 71.766251,81.201111 
	C70.014771,85.297623 68.566521,89.194458 66.973145,93.392212 
	C65.618576,95.087753 64.409142,96.482361 63.132896,97.453842 
	C62.075027,89.030327 61.132099,81.023216 60.015087,73.040459 
	C59.908653,72.279831 58.714008,71.671478 57.972942,70.650497 
	C57.609955,67.017014 55.819801,68.639099 54.853207,69.609764 
	C50.605743,73.875107 45.954330,78.011810 46.817085,85.093224 
	C46.771675,85.457321 46.890827,85.729462 47.111916,86.365143 
	C47.171085,87.477631 47.128311,88.226601 46.739372,88.982567 
	C45.653202,89.376022 44.328548,89.686806 44.267166,90.161087 
	C43.838528,93.472824 43.550041,96.816521 43.498096,100.154350 
	C43.483486,101.093468 44.408787,102.047203 44.880043,103.291306 
	C44.553013,103.845047 44.248913,104.101715 43.596462,104.289215 
	C41.918312,103.782890 40.588512,103.345734 39.182640,102.454262 
	C39.106567,97.511620 39.106567,93.023293 39.106567,88.534958 
	C38.731705,88.360870 38.356842,88.186783 37.981979,88.012695 
	C36.829678,89.618233 35.250725,91.074997 34.626656,92.864723 
	C33.726055,95.447510 33.518330,98.271896 32.765236,101.008850 
	C32.355934,101.073036 32.196342,101.121559 31.593784,101.073677 
	C28.204874,100.977272 25.258926,100.977272 21.985888,100.977272 
	C22.584633,103.227989 22.952440,104.610611 23.414993,106.383347 
	C24.097252,108.811150 24.684767,110.848831 25.272282,112.886513 
M59.021114,60.823685 
	C58.258781,65.772667 60.548576,67.837158 66.222374,67.691414 
	C65.784882,65.607994 65.406036,63.803867 65.045273,61.084667 
	C65.045273,57.653870 65.045273,54.223076 65.045273,50.704227 
	C57.251747,52.085480 56.984901,52.539055 59.021114,60.823685 
z"/>
<path fill="#F6EAE6" opacity="1.000000" stroke="none" 
	d="
M88.041801,49.987213 
	C96.641792,49.580944 105.107567,50.092342 113.742203,47.372665 
	C125.168594,43.773655 131.855682,47.516083 139.085709,58.275311 
	C148.259033,71.926392 150.922623,86.904495 147.729294,102.858849 
	C147.025970,106.372856 144.660721,109.554222 142.611938,112.527252 
	C141.500870,108.708969 140.838593,105.252213 140.105255,101.441986 
	C138.631897,97.247986 137.117554,93.443779 135.857361,89.557175 
	C134.469971,85.278244 133.316162,80.923576 131.894135,76.325851 
	C129.533081,74.633606 127.338501,73.217415 124.968536,71.511475 
	C123.500275,70.460907 122.207397,69.700073 121.175400,68.664406 
	C127.429298,67.854263 127.974709,66.903160 125.168465,61.616753 
	C124.651413,60.642731 123.819527,59.835835 122.992180,58.621086 
	C118.475830,56.333229 114.267189,53.632702 109.683273,52.603336 
	C103.682205,51.255737 99.308716,56.078396 100.115067,62.354794 
	C101.107338,63.719162 102.131058,64.745773 103.080978,66.102669 
	C103.320335,66.977104 103.633484,67.521248 104.079674,68.389328 
	C106.826775,70.784378 109.440834,72.855492 111.949089,75.316635 
	C112.105263,80.425194 112.367241,85.143715 112.505539,90.229347 
	C113.952225,94.385986 115.522575,98.175507 117.063919,102.341980 
	C116.997772,103.473190 116.960625,104.227448 116.509964,105.006180 
	C115.276108,105.133270 114.455765,105.235893 113.439468,105.051575 
	C111.491074,102.538544 109.738632,100.312447 107.834518,97.773453 
	C106.154968,96.930817 104.627098,96.401093 102.950821,95.580444 
	C101.967026,95.141106 101.131638,94.992699 100.273811,94.528671 
	C100.544518,93.202881 100.837654,92.192703 101.420258,90.994339 
	C102.148712,89.565941 102.587685,88.325737 102.954109,86.596008 
	C102.627678,85.895813 102.373787,85.685143 102.479866,85.486290 
	C106.538300,83.798698 106.638481,81.577515 103.333473,79.528305 
	C98.547401,76.560799 93.437790,76.078461 88.063950,78.260101 
	C86.947113,77.575356 85.998222,77.241798 84.828545,76.663223 
	C83.753159,76.267754 82.898567,76.117294 81.837051,75.849571 
	C81.700066,74.480339 81.769989,73.228378 81.872284,71.671631 
	C81.330315,70.614594 80.755981,69.862335 80.399712,69.030792 
	C80.892632,68.770615 81.055946,68.517723 81.505821,68.111649 
	C84.386955,68.198250 85.824257,67.524742 86.061310,64.572235 
	C86.453377,59.689037 87.354927,54.846745 88.041801,49.987213 
z"/>
<path fill="#5F536D" opacity="1.000000" stroke="none" 
	d="
M140.176315,101.795456 
	C140.838593,105.252213 141.500870,108.708969 142.270416,112.592690 
	C142.308777,113.773026 142.239853,114.526390 141.818176,115.746506 
	C141.374268,116.811287 141.283127,117.409325 141.191986,118.007362 
	C141.192001,122.247940 141.192001,126.488518 141.192001,131.914566 
	C136.219162,130.912460 132.014359,130.065109 127.464859,128.793381 
	C127.120155,128.368988 127.186531,127.908737 127.487549,127.737526 
	C130.332916,126.218155 132.877274,124.869995 136.602997,122.895874 
	C133.630234,122.451668 131.696579,122.162727 129.805847,121.435181 
	C130.594803,116.630989 131.340851,112.265419 132.431732,107.891602 
	C135.243149,105.854057 137.709732,103.824753 140.176315,101.795456 
z"/>
<path fill="#1B1B1B" opacity="1.000000" stroke="none" 
	d="
M177.782913,75.350433 
	C177.821014,78.884674 177.821014,81.977127 177.821014,85.069572 
	C177.296509,85.233154 176.771988,85.396729 176.247482,85.560310 
	C175.639206,82.905479 175.030914,80.250656 174.543381,78.122772 
	C173.770081,79.697266 172.757019,81.759926 171.743958,83.822586 
	C170.544815,82.125214 169.345673,80.427841 168.384430,79.067207 
	C167.906296,80.938774 167.304749,83.293327 166.703217,85.647873 
	C166.050400,85.494896 165.397598,85.341911 164.744781,85.188934 
	C165.001114,80.288483 165.257462,75.388039 165.510422,70.552078 
	C168.920380,69.881142 168.920380,69.881142 171.708496,78.412621 
	C172.292511,75.341866 172.750900,72.931709 173.245422,70.331505 
	C178.163483,68.337303 177.363602,72.240158 177.782913,75.350433 
z"/>
<path fill="#090909" opacity="1.000000" stroke="none" 
	d="
M247.120163,82.944916 
	C249.780136,83.473892 253.344177,82.732193 252.667969,87.558647 
	C250.140503,86.326248 248.081848,84.406944 246.093796,88.262726 
	C247.637344,88.906944 248.805649,89.394539 249.973953,89.882133 
	C247.343994,89.869720 244.325989,91.126503 243.128952,87.082527 
	C242.890091,86.275520 240.780823,86.022163 239.510132,85.503769 
	C238.996140,82.446846 238.432159,79.092728 237.508194,75.559776 
	C237.119049,74.971901 237.089905,74.562859 237.060760,74.153809 
	C239.006744,74.316711 240.952728,74.479607 242.572388,74.615189 
	C246.207657,74.179138 249.689102,73.761543 252.649536,73.627800 
	C252.078522,74.624641 252.028519,75.337624 251.978516,76.050606 
	C253.437088,80.163467 251.199203,81.406395 247.204132,81.511139 
	C246.507294,80.595413 246.253647,79.797714 246.323212,78.945679 
	C247.740372,78.023415 248.834335,77.155487 249.928284,76.287560 
	C249.453033,75.900696 248.977783,75.513840 248.502548,75.126976 
	C247.668365,76.417969 246.834183,77.708961 245.602081,79.010544 
	C244.175674,80.541519 243.147171,82.061928 242.118683,83.582329 
	C242.502396,83.860527 242.886093,84.138725 243.269806,84.416916 
	C244.553253,83.926254 245.836716,83.435585 247.120163,82.944916 
z"/>
<path fill="#D79D8D" opacity="1.000000" stroke="none" 
	d="
M132.086914,107.899849 
	C131.340851,112.265419 130.594803,116.630989 129.495773,121.614441 
	C127.809288,122.668152 126.475784,123.103989 124.676361,123.692093 
	C125.604782,125.251686 126.395660,126.580208 127.186531,127.908737 
	C127.186531,127.908737 127.120155,128.368988 127.123962,128.601440 
	C125.542313,129.511703 123.956863,130.189545 122.502037,130.811539 
	C121.281151,129.936691 119.994057,129.014420 118.357086,127.697830 
	C117.663597,125.196556 117.319984,123.089615 116.987488,120.740326 
	C116.998611,120.497993 117.012566,120.012619 117.345490,119.958878 
	C118.733612,118.920593 119.788818,117.936043 120.874100,117.341034 
	C120.904167,120.361595 120.904167,122.992615 120.904167,125.623642 
	C121.639717,125.664406 122.375267,125.705170 123.110809,125.745934 
	C124.111687,119.873795 125.112556,114.001663 126.463150,108.079529 
	C127.903587,107.616043 128.994324,107.202553 130.366653,106.887779 
	C131.127808,107.290947 131.607361,107.595398 132.086914,107.899849 
z"/>
<path fill="#A4785D" opacity="1.000000" stroke="none" 
	d="
M87.988953,49.618008 
	C87.354927,54.846745 86.453377,59.689037 86.061310,64.572235 
	C85.824257,67.524742 84.386955,68.198250 81.460472,67.715393 
	C81.011627,66.608559 81.006248,65.816780 81.361115,64.894608 
	C85.647118,57.329197 84.877792,55.097900 78.122833,53.810966 
	C78.482773,53.066883 78.755188,52.585236 79.039505,51.750450 
	C79.240517,49.650257 82.868279,47.813961 79.101807,45.894817 
	C80.520531,44.742561 81.753326,43.869869 82.986130,42.997177 
	C84.572777,42.862778 86.159431,42.728378 87.954704,43.179268 
	C88.166573,44.853149 88.169823,45.941742 88.173073,47.030338 
	C88.094078,47.769825 88.015091,48.509315 87.988953,49.618008 
z"/>
<path fill="#885038" opacity="1.000000" stroke="none" 
	d="
M32.036751,101.170082 
	C32.196342,101.121559 32.355934,101.073036 32.943169,101.320633 
	C34.156052,103.869469 34.631935,106.452606 37.936447,106.312149 
	C36.419552,107.412498 34.964123,108.149506 33.279999,109.002327 
	C35.276058,110.707794 37.196922,112.349014 38.935040,114.308578 
	C35.292618,117.831589 38.037117,120.845589 39.004940,124.177628 
	C38.935307,124.615845 38.898411,124.789612 38.456909,124.973709 
	C37.255161,125.124802 36.458008,125.265549 35.660858,125.406303 
	C35.660858,125.406303 35.772106,125.285423 35.683704,125.004623 
	C34.911331,124.539268 34.227360,124.354729 33.543388,124.170181 
	C33.267868,124.167877 33.061649,124.047165 32.927345,123.197708 
	C32.952000,121.727959 32.974045,120.868538 33.295776,119.967926 
	C33.915058,119.516747 34.234646,119.106766 34.554234,118.696793 
	C34.032124,118.466362 33.510010,118.235931 32.994141,118.002708 
	C33.000378,117.999916 32.992870,118.011658 33.049904,117.668747 
	C33.330284,115.655342 33.553627,113.984833 33.776970,112.314331 
	C32.502701,112.549973 31.228430,112.785606 29.601631,112.974899 
	C27.814981,110.583626 26.380859,108.238686 25.222301,105.651909 
	C27.488586,105.410072 29.479309,105.410072 31.745678,105.410072 
	C31.841551,104.013542 31.939152,102.591812 32.036751,101.170082 
z"/>
<path fill="#D1B1A6" opacity="1.000000" stroke="none" 
	d="
M85.982674,125.911530 
	C82.174919,128.854752 78.801346,126.013535 74.555099,124.989601 
	C71.875549,123.930283 69.923340,122.989738 67.742477,121.899788 
	C67.032898,121.496536 66.551994,121.242683 65.947029,120.706970 
	C65.482666,119.916588 65.142365,119.408073 64.995132,118.620193 
	C65.828705,117.183083 66.469223,116.025352 67.497772,114.893845 
	C69.598709,115.304436 71.311623,115.688805 73.075157,116.418640 
	C77.411407,119.813255 81.697044,122.862389 85.982674,125.911530 
z"/>
<path fill="#1B1B1B" opacity="1.000000" stroke="none" 
	d="
M210.121216,74.069870 
	C212.683060,72.645554 215.746414,72.060059 217.001205,74.996788 
	C218.049500,77.450180 218.131866,80.929558 217.169342,83.374931 
	C216.674271,84.632751 212.964951,84.625435 210.268524,84.612221 
	C209.926376,80.713036 210.023804,77.391457 210.121216,74.069870 
z"/>
<path fill="#151515" opacity="1.000000" stroke="none" 
	d="
M210.777618,61.113899 
	C208.687973,59.862503 205.929413,58.834675 205.566788,57.256355 
	C205.039719,54.962368 205.815567,52.060307 206.912430,49.853199 
	C207.353928,48.964806 210.819672,48.412277 211.667374,49.144459 
	C213.257736,50.518078 213.944168,52.938251 215.399857,55.658024 
	C212.150940,55.867859 210.243210,55.991074 208.335464,56.114288 
	C208.230408,56.564262 208.125351,57.014240 208.020279,57.464214 
	C209.929764,58.074039 211.839233,58.683861 214.225922,59.446083 
	C212.984680,60.116489 212.082138,60.603954 210.777618,61.113899 
z"/>
<path fill="#191919" opacity="1.000000" stroke="none" 
	d="
M191.121185,83.910088 
	C190.115570,84.182030 189.111481,84.674164 188.104050,84.681091 
	C185.849945,84.696594 181.963333,85.083771 181.641846,84.228897 
	C180.637100,81.557198 180.285461,78.201477 180.991486,75.446808 
	C181.713104,72.631172 184.482864,72.245171 187.562714,74.370499 
	C188.396652,76.505653 188.773285,78.120300 189.181458,79.870186 
	C186.730652,80.118385 184.928329,80.300911 183.126007,80.483437 
	C183.077682,81.013618 183.029343,81.543808 182.981003,82.073990 
	C184.653336,82.384758 186.325653,82.695526 188.235596,83.430191 
	C189.333344,83.738434 190.193497,83.622787 191.117599,83.558685 
	C191.181564,83.610229 191.121185,83.910088 191.121185,83.910088 
z"/>
<path fill="#131313" opacity="1.000000" stroke="none" 
	d="
M173.245575,53.235626 
	C172.877274,55.604221 173.291443,59.169125 171.948471,60.047504 
	C170.150681,61.223362 166.991638,60.317993 163.442749,60.301853 
	C164.687500,58.563286 164.844971,58.108307 165.060913,58.078613 
	C166.932816,57.821205 168.815216,57.640221 170.694504,57.436493 
	C169.430771,55.979244 167.979431,54.640999 166.957718,53.030239 
	C165.996246,51.514462 164.451218,49.045731 165.006958,48.180077 
	C166.007736,46.621181 168.386581,45.946987 170.930786,45.034561 
	C172.197296,45.916191 172.722824,46.666492 173.089081,47.189407 
	C171.094315,47.631126 169.593628,47.963432 168.092957,48.295746 
	C169.128525,49.505161 170.110855,50.766697 171.222229,51.901920 
	C171.774521,52.466072 172.563614,52.798412 173.245575,53.235626 
z"/>
<path fill="#191919" opacity="1.000000" stroke="none" 
	d="
M216.336121,49.532093 
	C217.005066,49.046204 217.512329,48.827572 217.969757,48.904701 
	C220.192520,49.279499 224.010574,49.245930 224.315125,50.250698 
	C225.237167,53.292690 224.870911,56.750038 224.781784,60.039448 
	C224.771637,60.413818 223.334991,60.749538 222.154953,61.287880 
	C221.971375,57.584511 221.812820,54.385586 221.654251,51.186661 
	C221.116043,51.139339 220.577850,51.092018 220.039642,51.044697 
	C219.639038,54.193668 219.238434,57.342636 218.835464,60.510181 
	C216.125000,60.308956 216.125000,60.308956 216.336121,49.532093 
z"/>
<path fill="#131313" opacity="1.000000" stroke="none" 
	d="
M184.043976,48.921455 
	C185.053024,50.165157 185.878876,51.409237 186.065781,52.742867 
	C186.333328,54.651802 186.133957,56.626175 186.133957,59.045914 
	C191.451569,57.100960 185.927124,50.266415 191.643951,48.570980 
	C191.643951,52.956657 191.643951,56.698650 191.643951,60.539398 
	C189.907242,60.715569 188.260010,61.299393 186.893661,60.906460 
	C185.468613,60.496651 183.349258,59.256794 183.225540,58.184586 
	C182.877014,55.164009 183.397476,52.043152 184.043976,48.921455 
z"/>
<path fill="#050505" opacity="1.000000" stroke="none" 
	d="
M199.961487,48.908844 
	C199.961487,47.420452 199.961487,45.932056 199.961487,43.098831 
	C201.484528,44.392071 202.948868,45.041454 202.986404,45.764874 
	C203.210205,50.078270 203.230423,54.416485 202.966003,58.724701 
	C202.928864,59.329811 200.956985,59.816174 199.437042,59.990417 
	C198.445633,57.540119 197.897842,55.456902 197.260574,53.033344 
	C196.023453,55.029846 195.109344,56.505058 194.195251,57.980267 
	C193.847473,54.414692 192.504074,50.517395 197.649078,49.156841 
	C198.770905,50.536510 199.542557,51.424622 200.314209,52.312737 
	C200.539474,52.066631 200.764725,51.820530 200.989990,51.574429 
	C200.647156,50.685902 200.304321,49.797375 199.961487,48.908844 
z"/>
<path fill="#2D2D2D" opacity="1.000000" stroke="none" 
	d="
M202.912964,84.209389 
	C201.192093,84.577042 199.471222,84.944695 197.230377,85.423439 
	C196.781433,82.327164 196.319031,79.138145 195.257370,75.671921 
	C194.431702,75.003746 194.205292,74.612778 193.978897,74.221802 
	C195.907043,73.159523 197.874954,71.759216 200.055435,74.972351 
	C204.882019,77.348251 202.259827,81.159134 202.912964,84.209389 
z"/>
<path fill="#222222" opacity="1.000000" stroke="none" 
	d="
M230.673203,52.422028 
	C231.160370,55.388428 231.659378,57.935070 232.253586,60.967545 
	C229.607727,61.879452 226.957428,60.893208 227.607162,56.938179 
	C228.208603,53.277115 223.938477,49.011345 229.157745,45.640247 
	C230.403671,47.119377 231.610229,48.551758 232.860580,50.036140 
	C232.054733,50.764420 231.369873,51.383347 230.673203,52.422028 
z"/>
<path fill="#D78F77" opacity="1.000000" stroke="none" 
	d="
M86.351639,125.910904 
	C81.697044,122.862389 77.411407,119.813255 73.423584,116.397430 
	C74.796951,115.353180 75.872513,114.675613 77.352615,113.999565 
	C78.833900,113.989342 79.910660,113.977608 81.204102,113.879189 
	C81.692322,113.616096 81.879051,113.374229 82.227829,113.032669 
	C82.474670,112.998428 82.972717,112.979248 82.978729,113.340942 
	C82.454865,115.178810 81.924980,116.654984 81.362000,118.223366 
	C82.201241,119.115242 83.076096,120.044960 84.188591,121.273422 
	C87.333138,122.069107 90.240028,122.566040 93.146927,123.062973 
	C91.004814,124.012077 88.862709,124.961182 86.351639,125.910904 
z"/>
<path fill="#151515" opacity="1.000000" stroke="none" 
	d="
M176.118958,46.312401 
	C177.924210,47.226700 179.729446,48.140995 181.642654,49.109962 
	C178.117905,53.201870 178.308380,56.934921 181.703125,60.128136 
	C177.498352,61.695717 176.485382,61.146214 176.034714,57.131142 
	C175.911224,56.030975 175.633377,54.948135 175.265640,53.478279 
	C175.104904,53.099216 175.102112,53.156391 175.394669,53.020885 
	C175.461624,52.244362 175.236023,51.603340 174.957794,50.604080 
	C175.309738,48.934696 175.714355,47.623547 176.118958,46.312401 
z"/>
<path fill="#282828" opacity="1.000000" stroke="none" 
	d="
M220.966949,73.495224 
	C222.944595,73.325996 224.558502,73.325996 225.756271,73.325996 
	C224.934265,76.956589 224.117477,80.754677 223.162704,84.517754 
	C223.054581,84.943947 221.872025,85.558929 221.697952,85.424698 
	C221.048676,84.923988 220.169876,84.147102 220.170563,83.474640 
	C220.173874,80.204437 220.434006,76.934494 220.966949,73.495224 
z"/>
<path fill="#282828" opacity="1.000000" stroke="none" 
	d="
M203.009460,84.527664 
	C202.259827,81.159134 204.882019,77.348251 200.406815,75.050262 
	C200.777359,73.771599 201.312653,72.293335 202.339233,71.349350 
	C205.560379,68.387451 204.974136,73.864960 207.198395,74.110847 
	C204.037857,77.859673 204.246201,81.246231 207.974091,84.912148 
	C206.351379,84.890076 204.728668,84.868011 203.009460,84.527664 
z"/>
<path fill="#794C32" opacity="1.000000" stroke="none" 
	d="
M57.896637,129.724304 
	C53.905979,129.821793 49.915325,129.919296 45.430595,129.642578 
	C44.621220,128.511749 44.305912,127.755150 44.236511,126.841835 
	C44.662628,126.145653 44.842838,125.606178 45.347393,125.042770 
	C46.105927,125.019562 46.540115,125.020287 47.218452,125.291283 
	C49.377678,125.345734 51.292751,125.129913 53.489449,124.910057 
	C54.145447,124.915756 54.519829,124.925499 54.945744,125.285011 
	C55.917614,126.122803 56.837948,126.610817 57.797432,127.425827 
	C57.856602,128.409988 57.876621,129.067139 57.896637,129.724304 
z"/>
<path fill="#CBA59D" opacity="1.000000" stroke="none" 
	d="
M116.976372,120.982666 
	C117.319984,123.089615 117.663597,125.196556 118.022903,127.713196 
	C115.605095,128.708725 113.171585,129.294556 110.339806,129.471985 
	C109.908180,128.348251 109.874832,127.632927 110.054169,126.651337 
	C111.552269,124.591759 112.837685,122.798454 114.479858,121.004227 
	C115.549866,120.996422 116.263115,120.989540 116.976372,120.982666 
z"/>
<path fill="#7B5840" opacity="1.000000" stroke="none" 
	d="
M32.996086,120.009125 
	C32.974045,120.868538 32.952000,121.727959 32.887005,123.015717 
	C30.491934,120.073448 28.139816,116.702820 25.529991,113.109360 
	C24.684767,110.848831 24.097252,108.811150 23.822651,106.371735 
	C24.405956,105.944588 24.676348,105.919167 24.946739,105.893745 
	C26.380859,108.238686 27.814981,110.583626 29.615868,113.340347 
	C30.986048,115.171974 31.989460,116.591820 32.992870,118.011658 
	C32.992870,118.011658 33.000378,117.999916 32.994164,118.336540 
	C32.990662,119.118484 32.993374,119.563805 32.996086,120.009125 
z"/>
<path fill="#A18676" opacity="1.000000" stroke="none" 
	d="
M82.538986,42.943249 
	C81.753326,43.869869 80.520531,44.742561 78.708359,45.863556 
	C73.507782,46.160843 75.174294,49.477592 74.835281,52.026630 
	C73.998276,52.442657 73.446655,52.732426 72.895035,53.022194 
	C72.579315,50.645218 72.263603,48.268242 71.871231,45.549141 
	C75.227005,44.434452 78.659416,43.661888 82.538986,42.943249 
z"/>
<path fill="#353535" opacity="1.000000" stroke="none" 
	d="
M236.752106,74.119865 
	C237.089905,74.562859 237.119049,74.971901 237.072021,75.679474 
	C236.809586,78.434708 236.718674,80.904663 236.380676,83.340317 
	C236.275162,84.100800 235.502472,84.768707 235.035202,85.478989 
	C234.444504,84.866470 233.853821,84.253944 233.256348,82.876221 
	C233.383545,79.187294 233.517532,76.263573 233.651520,73.339851 
	C234.582169,73.588539 235.512802,73.837227 236.752106,74.119865 
z"/>
<path fill="#E5E5E5" opacity="1.000000" stroke="none" 
	d="
M175.978790,45.993450 
	C175.714355,47.623547 175.309738,48.934696 174.949951,50.970001 
	C175.030548,52.181572 175.066330,52.668983 175.102112,53.156391 
	C175.102112,53.156391 175.104904,53.099216 175.124359,53.120331 
	C174.826874,53.145405 174.509918,53.149364 173.719269,53.194473 
	C172.563614,52.798412 171.774521,52.466072 171.222229,51.901920 
	C170.110855,50.766697 169.128525,49.505161 168.092957,48.295746 
	C169.593628,47.963432 171.094315,47.631126 173.089081,47.189407 
	C172.722824,46.666492 172.197296,45.916191 171.327026,45.007271 
	C173.260696,41.244953 174.328262,44.761578 175.978790,45.993450 
z"/>
<path fill="#AE8069" opacity="1.000000" stroke="none" 
	d="
M58.355930,129.758881 
	C57.876621,129.067139 57.856602,128.409988 58.229580,127.433563 
	C62.520622,128.146805 66.418083,129.174362 70.087639,125.873466 
	C69.317314,124.481575 68.644226,123.265381 67.971138,122.049187 
	C69.923340,122.989738 71.875549,123.930283 74.198669,124.955704 
	C72.371223,129.274399 68.070152,129.273575 64.228920,129.987152 
	C62.496143,130.309052 60.624084,129.881180 58.355930,129.758881 
z"/>
<path fill="#D49082" opacity="1.000000" stroke="none" 
	d="
M98.798447,124.134804 
	C97.402657,123.871902 96.006874,123.609001 94.577209,122.881187 
	C95.889038,122.040939 97.234741,121.665588 99.579735,121.011520 
	C95.113106,119.962273 91.905807,119.208847 88.962921,118.324043 
	C89.806122,118.076866 90.384903,117.961067 91.326103,117.904442 
	C92.421516,117.945328 93.154510,117.927032 94.333923,118.013603 
	C95.996521,118.041779 97.212715,117.965096 98.716064,117.992783 
	C99.938377,118.421204 100.873520,118.745239 101.844254,119.449783 
	C101.616783,121.255516 101.353706,122.680740 100.707428,124.065659 
	C99.815643,124.061829 99.307045,124.098320 98.798447,124.134804 
z"/>
<path fill="#090909" opacity="1.000000" stroke="none" 
	d="
M231.153595,83.036224 
	C230.265594,83.752838 229.057236,85.250221 228.548859,85.041634 
	C226.936554,84.380089 228.039932,74.916405 230.279785,73.751816 
	C230.915085,77.034821 231.034332,80.035530 231.153595,83.036224 
z"/>
<path fill="#F3906B" opacity="1.000000" stroke="none" 
	d="
M88.698502,118.455429 
	C91.905807,119.208847 95.113106,119.962273 99.579735,121.011520 
	C97.234741,121.665588 95.889038,122.040939 94.298660,122.677948 
	C94.053970,122.939613 93.605423,123.039833 93.376175,123.051407 
	C90.240028,122.566040 87.333138,122.069107 84.432251,121.005424 
	C85.354767,119.746597 86.271271,119.054527 87.420044,118.380867 
	C87.652321,118.399277 88.089394,118.560936 88.113899,118.788071 
	C88.311829,118.859863 88.485252,118.704514 88.669624,118.526154 
	C88.680573,118.503143 88.698502,118.455429 88.698502,118.455429 
z"/>
<path fill="#D1D1D1" opacity="1.000000" stroke="none" 
	d="
M208.146042,85.130974 
	C204.246201,81.246231 204.037857,77.859673 207.481705,74.284027 
	C208.177780,73.988159 208.732498,74.019737 209.704224,74.060593 
	C210.023804,77.391457 209.926376,80.713036 209.938705,84.414383 
	C209.471634,84.979362 208.894806,85.164581 208.146042,85.130974 
z"/>
<path fill="#5E4E67" opacity="1.000000" stroke="none" 
	d="
M98.738907,124.461472 
	C99.307045,124.098320 99.815643,124.061829 100.907455,124.346115 
	C104.274277,125.417122 107.057884,126.167358 109.841484,126.917603 
	C109.874832,127.632927 109.908180,128.348251 109.917877,129.422150 
	C106.339226,129.110764 102.761688,128.530502 99.259674,127.649864 
	C98.852142,127.547386 98.862663,125.782387 98.738907,124.461472 
z"/>
<path fill="#050505" opacity="1.000000" stroke="none" 
	d="
M193.637772,73.982620 
	C194.205292,74.612778 194.431702,75.003746 194.789841,75.583542 
	C194.627457,78.116798 194.552368,80.521690 193.930237,82.775589 
	C193.685242,83.663162 192.218964,84.213631 191.214996,84.413849 
	C191.121185,83.910088 191.181564,83.610229 191.075226,83.147469 
	C190.935211,82.133636 190.901520,81.582558 190.971146,80.601120 
	C191.037262,78.108170 191.000046,76.045578 190.962845,73.982986 
	C191.740784,73.903137 192.518707,73.823288 193.637772,73.982620 
z"/>
<path fill="#D1D1D1" opacity="1.000000" stroke="none" 
	d="
M190.567017,74.010056 
	C191.000046,76.045578 191.037262,78.108170 190.622803,80.571426 
	C189.446747,81.650154 188.722366,82.328224 187.997971,83.006302 
	C186.325653,82.695526 184.653336,82.384758 182.981003,82.073990 
	C183.029343,81.543808 183.077682,81.013618 183.126007,80.483437 
	C184.928329,80.300911 186.730652,80.118385 189.181458,79.870186 
	C188.773285,78.120300 188.396652,76.505653 187.906342,74.505493 
	C188.585510,74.092369 189.378342,74.064751 190.567017,74.010056 
z"/>
<path fill="#191919" opacity="1.000000" stroke="none" 
	d="
M194.186493,58.328026 
	C195.109344,56.505058 196.023453,55.029846 197.260574,53.033344 
	C197.897842,55.456902 198.445633,57.540119 199.052277,60.035568 
	C197.466675,59.857128 195.822189,59.266457 194.186493,58.328026 
z"/>
<path fill="#E5E5E5" opacity="1.000000" stroke="none" 
	d="
M231.630020,83.021561 
	C231.034332,80.035530 230.915085,77.034821 230.648651,73.632172 
	C231.203278,73.215950 231.905045,73.201668 233.129181,73.263618 
	C233.517532,76.263573 233.383545,79.187294 233.154541,82.548828 
	C232.741837,82.993393 232.424149,83.000145 231.630020,83.021561 
z"/>
<path fill="#7B5840" opacity="1.000000" stroke="none" 
	d="
M43.990608,126.998543 
	C44.305912,127.755150 44.621220,128.511749 44.973511,129.575012 
	C42.007572,128.536850 39.004646,127.192009 35.831287,125.626740 
	C36.458008,125.265549 37.255161,125.124802 38.695862,125.237846 
	C40.889812,125.993942 42.440212,126.496239 43.990608,126.998543 
z"/>
<path fill="#222222" opacity="1.000000" stroke="none" 
	d="
M250.297684,89.948616 
	C248.805649,89.394539 247.637344,88.906944 246.093796,88.262726 
	C248.081848,84.406944 250.140503,86.326248 252.516266,87.924545 
	C252.116669,88.658066 251.369049,89.336578 250.297684,89.948616 
z"/>
<path fill="#222222" opacity="1.000000" stroke="none" 
	d="
M246.000000,79.000015 
	C246.253647,79.797714 246.507294,80.595413 246.878571,81.691086 
	C246.996201,81.989052 247.048523,82.468239 247.084351,82.706573 
	C245.836716,83.435585 244.553253,83.926254 243.269806,84.416916 
	C242.886093,84.138725 242.502396,83.860527 242.118683,83.582329 
	C243.147171,82.061928 244.175674,80.541519 245.602081,79.010559 
	C246.000000,79.000000 246.000000,79.000015 246.000000,79.000015 
z"/>
<path fill="#F6EAE6" opacity="1.000000" stroke="none" 
	d="
M88.496704,46.953815 
	C88.169823,45.941742 88.166573,44.853149 88.240952,43.361050 
	C88.485825,44.264130 88.653076,45.570709 88.496704,46.953815 
z"/>
<path fill="#191919" opacity="1.000000" stroke="none" 
	d="
M199.633057,48.923965 
	C200.304321,49.797375 200.647156,50.685902 200.989990,51.574429 
	C200.764725,51.820530 200.539474,52.066631 200.314209,52.312737 
	C199.542557,51.424622 198.770905,50.536510 198.005920,49.277874 
	C198.443253,48.917931 198.873947,48.928509 199.633057,48.923965 
z"/>
<path fill="#222222" opacity="1.000000" stroke="none" 
	d="
M252.014175,75.669159 
	C252.028519,75.337624 252.078522,74.624641 252.392700,73.931885 
	C252.454529,74.397316 252.252182,74.842522 252.014175,75.669159 
z"/>
<path fill="#F6EAE6" opacity="1.000000" stroke="none" 
	d="
M141.468384,117.970108 
	C141.283127,117.409325 141.374268,116.811287 141.770325,116.122330 
	C141.965088,116.665222 141.854935,117.299042 141.468384,117.970108 
z"/>
<path fill="#7B5840" opacity="1.000000" stroke="none" 
	d="
M33.731285,124.459671 
	C34.227360,124.354729 34.911331,124.539268 35.698235,125.085464 
	C35.173836,125.214462 34.546513,124.981804 33.731285,124.459671 
z"/>
<path fill="#312642" opacity="1.000000" stroke="none" 
	d="
M46.981644,85.001274 
	C45.954330,78.011810 50.605743,73.875107 54.853207,69.609764 
	C55.819801,68.639099 57.609955,67.017014 57.662071,70.912750 
	C57.301243,73.476524 56.927109,75.466515 57.141739,77.390839 
	C58.687031,91.245743 60.351692,105.087341 61.729462,118.956161 
	C61.313702,118.979828 61.146976,118.980476 60.989887,118.994171 
	C60.999523,119.007225 61.030785,119.016518 60.897186,118.707230 
	C58.888779,117.206154 57.013962,116.014351 55.116142,114.835693 
	C55.093132,114.848831 55.149776,114.794312 55.091263,114.451324 
	C52.403446,110.095100 49.774139,106.081879 47.105446,101.636780 
	C47.072552,97.128464 47.079044,93.052017 47.085537,88.975563 
	C47.128311,88.226601 47.171085,87.477631 47.179733,86.112930 
	C47.090954,85.331879 47.036297,85.166573 46.981644,85.001274 
z"/>
<path fill="#D8CCD1" opacity="1.000000" stroke="none" 
	d="
M85.049339,76.908241 
	C85.998222,77.241798 86.947113,77.575356 88.016693,78.570412 
	C88.247169,80.221344 88.356956,81.210785 88.571335,82.483734 
	C88.843552,83.134232 89.011169,83.501228 89.133255,84.272614 
	C89.348610,86.403938 89.609482,88.130867 89.883820,90.249420 
	C90.624306,92.746445 91.351341,94.851845 91.789223,97.097305 
	C90.527809,97.848618 89.555542,98.459877 88.238678,99.287781 
	C90.224648,100.239723 91.126167,100.671852 91.992737,101.385117 
	C91.648582,102.118080 91.339378,102.569893 90.706093,102.902328 
	C85.251022,103.524330 80.120041,104.265701 74.702782,104.738693 
	C74.612869,101.810432 74.927948,99.151497 74.949440,96.490196 
	C74.958527,95.364075 74.350319,94.232971 74.022690,93.104134 
	C73.269440,93.421104 72.516190,93.738075 71.506462,93.912323 
	C69.872749,93.543503 68.495506,93.317398 67.118271,93.091286 
	C68.566521,89.194458 70.014771,85.297623 72.109451,81.237770 
	C74.219040,81.687828 75.682190,82.300911 77.451759,82.927170 
	C78.170158,82.942719 78.582146,82.945099 79.176697,83.207420 
	C83.485855,83.215439 84.483337,80.248993 85.049339,76.908241 
M81.106796,89.028717 
	C80.066345,89.464806 79.025887,89.900887 77.985435,90.336967 
	C78.432526,90.943542 78.879608,91.550117 79.326698,92.156693 
	C80.156342,91.152100 80.985985,90.147514 81.106796,89.028717 
z"/>
<path fill="#5E4E67" opacity="1.000000" stroke="none" 
	d="
M61.978497,118.933167 
	C60.351692,105.087341 58.687031,91.245743 57.141739,77.390839 
	C56.927109,75.466515 57.301243,73.476524 57.713692,71.254684 
	C58.714008,71.671478 59.908653,72.279831 60.015087,73.040459 
	C61.132099,81.023216 62.075027,89.030327 63.073078,97.880905 
	C63.533295,100.866699 63.986523,103.002312 64.398895,105.486160 
	C64.479027,109.088020 64.118813,112.488228 67.109734,114.867615 
	C66.469223,116.025352 65.828705,117.183083 64.644379,118.649734 
	C63.393208,118.950150 62.685852,118.941658 61.978497,118.933167 
z"/>
<path fill="#423345" opacity="1.000000" stroke="none" 
	d="
M37.997917,105.948807 
	C34.631935,106.452606 34.156052,103.869469 33.192886,101.304970 
	C33.518330,98.271896 33.726055,95.447510 34.626656,92.864723 
	C35.250725,91.074997 36.829678,89.618233 37.981979,88.012695 
	C38.356842,88.186783 38.731705,88.360870 39.106567,88.534958 
	C39.106567,93.023293 39.106567,97.511620 39.093590,102.788834 
	C38.719719,104.368088 38.358818,105.158447 37.997917,105.948807 
z"/>
<path fill="#D79D8D" opacity="1.000000" stroke="none" 
	d="
M64.439758,105.137917 
	C63.986523,103.002312 63.533295,100.866699 63.139881,98.304031 
	C64.409142,96.482361 65.618576,95.087753 66.973145,93.392212 
	C68.495506,93.317398 69.872749,93.543503 71.526550,94.255646 
	C69.348663,98.207085 66.894211,101.672501 64.439758,105.137917 
z"/>
<path fill="#D5C2BF" opacity="1.000000" stroke="none" 
	d="
M59.066410,59.977245 
	C56.984901,52.539055 57.251747,52.085480 65.045273,50.704227 
	C65.045273,54.223076 65.045273,57.653870 64.713730,61.384766 
	C62.610256,61.115654 60.838333,60.546448 59.066410,59.977245 
z"/>
<path fill="#B1775E" opacity="1.000000" stroke="none" 
	d="
M37.936447,106.312149 
	C38.358818,105.158447 38.719719,104.368088 39.169662,103.243149 
	C40.588512,103.345734 41.918312,103.782890 43.437088,104.607040 
	C43.052921,107.669502 42.479778,110.344971 41.633522,113.144012 
	C40.612869,113.508476 39.865326,113.749359 39.117783,113.990234 
	C37.196922,112.349014 35.276058,110.707794 33.279999,109.002327 
	C34.964123,108.149506 36.419552,107.412498 37.936447,106.312149 
z"/>
<path fill="#AC775B" opacity="1.000000" stroke="none" 
	d="
M72.869751,53.481468 
	C73.446655,52.732426 73.998276,52.442657 75.225082,52.062885 
	C76.942719,52.016449 77.985153,52.060017 79.027596,52.103584 
	C78.755188,52.585236 78.482773,53.066883 78.132431,54.256783 
	C77.957718,57.659866 77.860947,60.354702 77.399963,63.088322 
	C75.818260,63.142506 74.600769,63.157902 73.383286,63.173298 
	C73.203682,60.095779 73.024071,57.018261 72.869751,53.481468 
z"/>
<path fill="#352C36" opacity="1.000000" stroke="none" 
	d="
M73.156876,63.440361 
	C74.600769,63.157902 75.818260,63.142506 77.547272,63.276833 
	C78.058792,63.426559 78.248093,63.863667 77.940933,64.082161 
	C77.435677,65.258446 77.237579,66.216248 76.917984,67.444916 
	C76.171074,68.470284 75.545670,69.224792 74.689087,70.061859 
	C74.457916,70.144424 74.038132,70.399002 73.639160,70.518402 
	C72.056602,71.358315 70.873016,72.078827 69.689438,72.799339 
	C68.182808,68.846512 69.023529,65.730453 73.156876,63.440361 
z"/>
<path fill="#F0E6EF" opacity="1.000000" stroke="none" 
	d="
M46.739372,88.982567 
	C47.079044,93.052017 47.072552,97.128464 46.848316,101.666893 
	C46.420818,102.383392 46.211067,102.637924 45.723362,102.881584 
	C45.264599,102.911888 45.083782,102.953056 44.902969,102.994232 
	C44.408787,102.047203 43.483486,101.093468 43.498096,100.154350 
	C43.550041,96.816521 43.838528,93.472824 44.267166,90.161087 
	C44.328548,89.686806 45.653202,89.376022 46.739372,88.982567 
z"/>
<path fill="#D8CCD1" opacity="1.000000" stroke="none" 
	d="
M59.043762,60.400467 
	C60.838333,60.546448 62.610256,61.115654 64.704681,61.842300 
	C65.406036,63.803867 65.784882,65.607994 66.222374,67.691414 
	C60.548576,67.837158 58.258781,65.772667 59.043762,60.400467 
z"/>
<path fill="#AC775B" opacity="1.000000" stroke="none" 
	d="
M25.222301,105.651909 
	C24.676348,105.919167 24.405956,105.944588 23.727909,105.981613 
	C22.952440,104.610611 22.584633,103.227989 21.985888,100.977272 
	C25.258926,100.977272 28.204874,100.977272 31.593784,101.073677 
	C31.939152,102.591812 31.841551,104.013542 31.745678,105.410072 
	C29.479309,105.410072 27.488586,105.410072 25.222301,105.651909 
z"/>
<path fill="#734C46" opacity="1.000000" stroke="none" 
	d="
M44.880043,103.291306 
	C45.083782,102.953056 45.264599,102.911888 45.712536,103.310936 
	C45.003300,108.836212 44.026936,113.921265 42.768913,119.116272 
	C41.938416,119.484467 41.389580,119.742706 40.864502,119.599686 
	C41.227718,117.139091 41.567181,115.079765 41.906639,113.020439 
	C42.479778,110.344971 43.052921,107.669502 43.785439,104.676208 
	C44.248913,104.101715 44.553013,103.845047 44.880043,103.291306 
z"/>
<path fill="#D78F77" opacity="1.000000" stroke="none" 
	d="
M69.774841,73.041122 
	C70.873016,72.078827 72.056602,71.358315 73.634598,70.880630 
	C74.351868,72.749825 74.674713,74.376198 74.997025,76.242661 
	C74.996490,76.482758 74.991127,76.962982 74.724350,76.976250 
	C74.280830,77.011269 74.104088,77.033028 73.927345,77.054787 
	C72.571648,75.797493 71.215942,74.540199 69.774841,73.041122 
z"/>
<path fill="#DBC5C7" opacity="1.000000" stroke="none" 
	d="
M77.145340,82.914001 
	C75.682190,82.300911 74.219040,81.687828 72.412689,81.038086 
	C72.510239,80.357452 72.951004,79.713478 74.002197,79.154236 
	C75.377396,79.522240 76.142166,79.805519 76.932785,80.441422 
	C77.020882,81.500694 77.083115,82.207344 77.145340,82.914001 
z"/>
<path fill="#D79D8D" opacity="1.000000" stroke="none" 
	d="
M76.906929,80.088799 
	C76.142166,79.805519 75.377396,79.522240 74.325027,79.126503 
	C74.010666,78.578499 73.983902,78.142952 73.942245,77.381096 
	C74.104088,77.033028 74.280830,77.011269 75.008560,77.127502 
	C76.060066,78.156242 76.560585,79.046989 77.022842,79.975784 
	C76.984581,80.013840 76.906929,80.088799 76.906929,80.088799 
z"/>
<path fill="#F0E6EF" opacity="1.000000" stroke="none" 
	d="
M46.817085,85.093224 
	C47.036297,85.166573 47.090954,85.331879 47.077789,85.749405 
	C46.890827,85.729462 46.771675,85.457321 46.817085,85.093224 
z"/>
<path fill="#B9744D" opacity="1.000000" stroke="none" 
	d="
M130.085052,106.789062 
	C128.994324,107.202553 127.903587,107.616043 126.069122,108.015442 
	C124.534187,107.997429 123.742989,107.993484 122.843582,107.725204 
	C122.484291,106.946365 122.233231,106.431877 121.977661,105.453888 
	C121.984512,97.332085 121.682144,89.654587 122.148750,82.024109 
	C122.360069,78.568352 124.098351,75.205971 125.143921,71.801224 
	C127.338501,73.217415 129.533081,74.633606 131.880234,76.825638 
	C131.383560,87.330681 130.734299,97.059868 130.085052,106.789062 
z"/>
<path fill="#8E5333" opacity="1.000000" stroke="none" 
	d="
M124.968536,71.511475 
	C124.098351,75.205971 122.360069,78.568352 122.148750,82.024109 
	C121.682144,89.654587 121.984512,97.332085 121.655182,105.444481 
	C120.906631,105.889244 120.476074,105.879913 119.862213,105.649963 
	C119.134514,105.260666 118.590126,105.091988 118.024651,104.955643 
	C118.003563,104.987968 118.075218,104.959236 118.119698,104.595139 
	C118.165001,103.497635 118.165833,102.764221 118.403305,101.812500 
	C118.766251,100.272141 119.480461,98.561180 118.910568,97.699677 
	C117.071121,94.918945 114.759094,92.450836 112.629211,89.862228 
	C112.367241,85.143715 112.105263,80.425194 112.289719,75.288330 
	C114.550858,72.911652 116.365570,70.953323 118.411446,68.961929 
	C118.642616,68.928871 119.111107,68.885902 119.411896,68.884003 
	C120.113304,68.901161 120.513916,68.920204 120.914528,68.939247 
	C122.207397,69.700073 123.500275,70.460907 124.968536,71.511475 
z"/>
<path fill="#312642" opacity="1.000000" stroke="none" 
	d="
M110.054169,126.651337 
	C107.057884,126.167358 104.274277,125.417122 101.290649,124.386429 
	C101.353706,122.680740 101.616783,121.255516 102.125717,119.190147 
	C104.853653,118.036903 106.129570,117.425385 105.355415,114.049950 
	C104.104492,108.595688 104.517708,102.976807 107.986198,98.086357 
	C109.738632,100.312447 111.491074,102.538544 113.420258,105.496109 
	C113.772369,111.153435 113.947739,116.079292 114.123108,121.005142 
	C112.837685,122.798454 111.552269,124.591759 110.054169,126.651337 
z"/>
<path fill="#5B4F6D" opacity="1.000000" stroke="none" 
	d="
M107.834518,97.773453 
	C104.517708,102.976807 104.104492,108.595688 105.355415,114.049950 
	C106.129570,117.425385 104.853653,118.036903 102.090118,118.809639 
	C100.873520,118.745239 99.938377,118.421204 98.621834,117.595764 
	C97.811081,115.163185 97.331306,113.241531 96.964226,111.298584 
	C96.416359,108.398705 95.444939,105.365707 99.018417,103.048523 
	C100.513748,100.443893 101.806488,98.157631 103.099228,95.871368 
	C104.627098,96.401093 106.154968,96.930817 107.834518,97.773453 
z"/>
<path fill="#814F34" opacity="1.000000" stroke="none" 
	d="
M130.366653,106.887779 
	C130.734299,97.059868 131.383560,87.330681 132.046692,77.101700 
	C133.316162,80.923576 134.469971,85.278244 135.857361,89.557175 
	C137.117554,93.443779 138.631897,97.247986 140.105255,101.441986 
	C137.709732,103.824753 135.243149,105.854057 132.431732,107.891602 
	C131.607361,107.595398 131.127808,107.290947 130.366653,106.887779 
z"/>
<path fill="#55292B" opacity="1.000000" stroke="none" 
	d="
M100.146523,62.017036 
	C99.308716,56.078396 103.682205,51.255737 109.683273,52.603336 
	C114.267189,53.632702 118.475830,56.333229 122.615128,58.639023 
	C121.546989,59.414883 120.715134,59.842094 119.618408,60.429234 
	C119.231842,61.404270 119.110138,62.219376 118.984619,63.008850 
	C118.980797,62.983219 119.031242,62.971279 118.673927,62.989609 
	C117.182747,62.743896 116.048874,62.479851 114.612564,62.011494 
	C113.190674,61.440331 112.071228,61.073479 110.780884,60.407669 
	C108.693253,56.954693 106.483276,57.490967 104.025429,59.481216 
	C102.831108,60.448315 101.445526,61.179211 100.146523,62.017036 
z"/>
<path fill="#F29174" opacity="1.000000" stroke="none" 
	d="
M110.951775,60.706627 
	C112.071228,61.073479 113.190674,61.440331 114.449150,62.226364 
	C115.456612,64.136658 116.325050,65.627769 117.179169,67.406250 
	C117.503334,68.127419 117.841805,68.561203 118.180275,68.994995 
	C116.365570,70.953323 114.550858,72.911652 112.395523,74.898285 
	C109.440834,72.855492 106.826775,70.784378 104.094048,67.978470 
	C103.930321,66.697098 103.885262,66.150528 103.831299,65.267944 
	C106.198845,63.523502 108.575310,62.115063 110.951775,60.706627 
z"/>
<path fill="#EB8F70" opacity="1.000000" stroke="none" 
	d="
M92.078369,96.957245 
	C91.351341,94.851845 90.624306,92.746445 89.955933,89.880104 
	C91.529114,84.102089 95.599022,86.428268 98.897354,86.386093 
	C99.645317,86.989258 100.235237,87.289391 100.885040,87.943130 
	C101.006882,89.258675 101.068832,90.220604 101.130783,91.182526 
	C100.837654,92.192703 100.544518,93.202881 99.958054,94.656075 
	C98.790459,95.758850 97.916176,96.418610 96.626450,97.086914 
	C94.833450,97.049393 93.455910,97.003319 92.078369,96.957245 
z"/>
<path fill="#3B3935" opacity="1.000000" stroke="none" 
	d="
M88.466736,82.200226 
	C88.356956,81.210785 88.247169,80.221344 88.184647,78.921585 
	C93.437790,76.078461 98.547401,76.560799 103.333473,79.528305 
	C106.638481,81.577515 106.538300,83.798698 102.336823,85.242210 
	C100.493538,84.678612 99.153275,84.370903 97.470932,84.035599 
	C96.443497,84.031288 95.758125,84.054573 95.015617,83.701614 
	C93.388077,79.525940 90.851944,81.298462 88.466736,82.200226 
z"/>
<path fill="#BCAAA4" opacity="1.000000" stroke="none" 
	d="
M114.479858,121.004219 
	C113.947739,116.079292 113.772369,111.153435 113.616211,105.783051 
	C114.455765,105.235893 115.276108,105.133270 116.798279,105.008308 
	C117.691803,104.977058 117.883507,104.968147 118.075218,104.959236 
	C118.075218,104.959236 118.003563,104.987968 118.011368,105.333595 
	C118.676430,107.454628 119.333702,109.230034 119.990662,111.333664 
	C119.980011,112.099060 119.969681,112.536217 119.602737,113.049271 
	C118.501595,115.420975 117.757072,117.716797 117.012558,120.012619 
	C117.012566,120.012619 116.998611,120.497993 116.987488,120.740326 
	C116.263115,120.989540 115.549866,120.996422 114.479858,121.004219 
z"/>
<path fill="#4B2524" opacity="1.000000" stroke="none" 
	d="
M119.883278,60.269306 
	C120.715134,59.842094 121.546989,59.414883 122.755898,58.969734 
	C123.819527,59.835835 124.651413,60.642731 125.168465,61.616753 
	C127.974709,66.903160 127.429298,67.854263 121.175400,68.664406 
	C120.513916,68.920204 120.113304,68.901161 119.404442,68.491783 
	C119.049164,66.777840 119.002144,65.454216 119.079773,63.847706 
	C119.146690,63.366966 119.088966,63.169121 119.031242,62.971279 
	C119.031242,62.971279 118.980797,62.983219 119.289299,62.895348 
	C119.692955,61.961418 119.788116,61.115360 119.883278,60.269306 
z"/>
<path fill="#F29174" opacity="1.000000" stroke="none" 
	d="
M74.997559,76.002563 
	C74.674713,74.376198 74.351868,72.749825 74.033577,70.761230 
	C74.038132,70.399002 74.457916,70.144424 75.063980,70.074905 
	C77.726669,70.662392 79.783287,71.319405 81.839912,71.976410 
	C81.769989,73.228378 81.700066,74.480339 81.806778,76.154236 
	C81.660263,77.052345 81.337105,77.528534 80.719566,77.877701 
	C78.615974,77.167969 76.806770,76.585266 74.997559,76.002563 
z"/>
<path fill="#64211D" opacity="1.000000" stroke="none" 
	d="
M110.780884,60.407669 
	C108.575310,62.115063 106.198845,63.523502 103.659744,65.309242 
	C103.497101,65.686539 103.154778,65.772385 103.154778,65.772385 
	C102.131058,64.745773 101.107338,63.719162 100.115067,62.354794 
	C101.445526,61.179211 102.831108,60.448315 104.025429,59.481216 
	C106.483276,57.490967 108.693253,56.954693 110.780884,60.407669 
z"/>
<path fill="#B1775E" opacity="1.000000" stroke="none" 
	d="
M112.505539,90.229347 
	C114.759094,92.450836 117.071121,94.918945 118.910568,97.699677 
	C119.480461,98.561180 118.766251,100.272141 118.134277,101.796783 
	C117.450043,101.987938 117.271484,101.976479 117.092926,101.965027 
	C115.522575,98.175507 113.952225,94.385986 112.505539,90.229347 
z"/>
<path fill="#43272F" opacity="1.000000" stroke="none" 
	d="
M97.041901,97.078362 
	C97.916176,96.418610 98.790459,95.758850 99.980484,94.971695 
	C101.131638,94.992699 101.967026,95.141106 102.950821,95.580444 
	C101.806488,98.157631 100.513748,100.443893 98.671532,102.870232 
	C97.762009,101.032990 97.401955,99.055679 97.041901,97.078362 
z"/>
<path fill="#DBC5C7" opacity="1.000000" stroke="none" 
	d="
M81.013947,78.004723 
	C81.337105,77.528534 81.660263,77.052345 82.013702,76.271500 
	C82.898567,76.117294 83.753159,76.267754 84.828545,76.663223 
	C84.483337,80.248993 83.485855,83.215439 79.361076,82.953003 
	C79.854897,81.600838 80.346901,80.763016 80.891235,79.607834 
	C80.967026,78.861893 80.990486,78.433304 81.013947,78.004723 
z"/>
<path fill="#222222" opacity="1.000000" stroke="none" 
	d="
M77.039482,67.174042 
	C77.237579,66.216248 77.435677,65.258446 78.263519,64.059708 
	C79.595795,64.220840 80.298332,64.622925 81.000870,65.025009 
	C81.006248,65.816780 81.011627,66.608559 81.062363,67.796577 
	C81.055946,68.517723 80.892632,68.770615 80.130936,68.863953 
	C78.775894,68.242287 77.907684,67.708160 77.039482,67.174042 
z"/>
<path fill="#D49082" opacity="1.000000" stroke="none" 
	d="
M76.917984,67.444916 
	C77.907684,67.708160 78.775894,68.242287 79.912872,68.943253 
	C80.755981,69.862335 81.330315,70.614594 81.872284,71.671631 
	C79.783287,71.319405 77.726669,70.662392 75.295151,69.992340 
	C75.545670,69.224792 76.171074,68.470284 76.917984,67.444916 
z"/>
<path fill="#4B2524" opacity="1.000000" stroke="none" 
	d="
M97.813011,84.063194 
	C99.153275,84.370903 100.493538,84.678612 101.976852,85.230400 
	C102.373787,85.685143 102.627678,85.895813 102.586029,86.675217 
	C101.802048,87.359138 101.313599,87.474327 100.825150,87.589516 
	C100.235237,87.289391 99.645317,86.989258 98.896347,86.100098 
	C98.429199,85.028435 98.121109,84.545815 97.813011,84.063194 
z"/>
<path fill="#AE8069" opacity="1.000000" stroke="none" 
	d="
M100.885040,87.943130 
	C101.313599,87.474327 101.802048,87.359138 102.658569,87.164742 
	C102.587685,88.325737 102.148712,89.565941 101.420265,90.994339 
	C101.068832,90.220604 101.006882,89.258675 100.885040,87.943130 
z"/>
<path fill="#CBA59D" opacity="1.000000" stroke="none" 
	d="
M117.063919,102.341980 
	C117.271484,101.976479 117.450043,101.987938 117.897629,102.015099 
	C118.165833,102.764221 118.165001,103.497635 118.119698,104.595139 
	C117.883507,104.968147 117.691803,104.977058 117.211792,104.983841 
	C116.960625,104.227448 116.997772,103.473190 117.063919,102.341980 
z"/>
<path fill="#D49082" opacity="1.000000" stroke="none" 
	d="
M103.080978,66.102669 
	C103.154778,65.772385 103.497101,65.686539 103.668655,65.645248 
	C103.885262,66.150528 103.930321,66.697098 103.961006,67.654541 
	C103.633484,67.521248 103.320335,66.977104 103.080978,66.102669 
z"/>
<path fill="#37233B" opacity="1.000000" stroke="none" 
	d="
M127.487549,127.737526 
	C126.395660,126.580208 125.604782,125.251686 124.676361,123.692093 
	C126.475784,123.103989 127.809288,122.668152 129.452850,122.053055 
	C131.696579,122.162727 133.630234,122.451668 136.602997,122.895874 
	C132.877274,124.869995 130.332916,126.218155 127.487549,127.737526 
z"/>
<path fill="#222222" opacity="1.000000" stroke="none" 
	d="
M246.000000,78.999985 
	C246.834183,77.708961 247.668365,76.417969 248.502548,75.126976 
	C248.977783,75.513840 249.453033,75.900696 249.928284,76.287560 
	C248.834335,77.155487 247.740372,78.023415 246.323212,78.945679 
	C246.000000,79.000015 246.000000,79.000000 246.000000,78.999985 
z"/>
<path fill="#F3906B" opacity="1.000000" stroke="none" 
	d="
M122.951797,107.989548 
	C123.742989,107.993484 124.534187,107.997429 125.719406,108.065445 
	C125.112556,114.001663 124.111687,119.873795 123.110809,125.745934 
	C122.375267,125.705170 121.639717,125.664406 120.904167,125.623642 
	C120.904167,122.992615 120.904167,120.361595 120.915070,116.972824 
	C120.920540,115.473595 120.915092,114.732117 121.208313,113.785744 
	C121.988586,111.717087 122.470192,109.853317 122.951797,107.989548 
z"/>
<path fill="#CBA59D" opacity="1.000000" stroke="none" 
	d="
M120.909653,113.990631 
	C120.915092,114.732117 120.920540,115.473595 120.885002,116.583290 
	C119.788818,117.936043 118.733612,118.920593 117.345482,119.958878 
	C117.757072,117.716797 118.501595,115.420975 119.709061,113.264908 
	C120.353348,113.681274 120.599228,113.876602 120.909653,113.990631 
z"/>
<path fill="#F6DDC9" opacity="1.000000" stroke="none" 
	d="
M81.361115,64.894608 
	C80.298332,64.622925 79.595795,64.220840 78.570679,63.841209 
	C78.248093,63.863667 78.058792,63.426559 77.911484,63.238049 
	C77.860947,60.354702 77.957718,57.659866 78.044907,54.519211 
	C84.877792,55.097900 85.647118,57.329197 81.361115,64.894608 
z"/>
<path fill="#F6DDC9" opacity="1.000000" stroke="none" 
	d="
M79.039505,51.750450 
	C77.985153,52.060017 76.942719,52.016449 75.510468,51.936626 
	C75.174294,49.477592 73.507782,46.160843 78.522430,46.143120 
	C82.868279,47.813961 79.240517,49.650257 79.039505,51.750450 
z"/>
<path fill="#AC775B" opacity="1.000000" stroke="none" 
	d="
M41.633526,113.144012 
	C41.567181,115.079765 41.227718,117.139091 40.632462,119.821945 
	C39.930336,121.601372 39.484009,122.757278 39.037674,123.913185 
	C38.037117,120.845589 35.292618,117.831589 38.935040,114.308578 
	C39.865326,113.749359 40.612869,113.508476 41.633526,113.144012 
z"/>
<path fill="#785051" opacity="1.000000" stroke="none" 
	d="
M39.004944,124.177628 
	C39.484009,122.757278 39.930336,121.601372 40.608704,120.223206 
	C41.389580,119.742706 41.938416,119.484467 42.875580,119.333984 
	C43.466587,119.705124 43.720875,119.901794 43.866093,120.352982 
	C44.144627,122.138367 44.583836,123.602531 45.023045,125.066704 
	C44.842838,125.606178 44.662628,126.145653 44.236511,126.841835 
	C42.440212,126.496239 40.889812,125.993942 39.100464,125.227509 
	C38.898411,124.789612 38.935307,124.615845 39.004944,124.177628 
z"/>
<path fill="#864A26" opacity="1.000000" stroke="none" 
	d="
M33.049904,117.668747 
	C31.989460,116.591820 30.986048,115.171974 29.968397,113.386688 
	C31.228430,112.785606 32.502701,112.549973 33.776970,112.314331 
	C33.553627,113.984833 33.330284,115.655342 33.049904,117.668747 
z"/>
<path fill="#864A26" opacity="1.000000" stroke="none" 
	d="
M33.295780,119.967926 
	C32.993374,119.563805 32.990662,119.118484 32.987923,118.339333 
	C33.510010,118.235931 34.032124,118.466362 34.554234,118.696793 
	C34.234646,119.106766 33.915058,119.516747 33.295780,119.967926 
z"/>
<path fill="#F9E9E5" opacity="1.000000" stroke="none" 
	d="
M64.398895,105.486160 
	C66.894211,101.672501 69.348663,98.207085 71.783035,94.398354 
	C72.516190,93.738075 73.269440,93.421104 74.022690,93.104134 
	C74.350319,94.232971 74.958527,95.364075 74.949440,96.490196 
	C74.927948,99.151497 74.612869,101.810432 74.695969,105.154541 
	C75.632980,108.558533 76.290527,111.278290 76.948082,113.998055 
	C75.872513,114.675613 74.796951,115.353180 73.372955,116.051956 
	C71.311623,115.688805 69.598709,115.304436 67.497772,114.893845 
	C64.118813,112.488228 64.479027,109.088020 64.398895,105.486160 
z"/>
<path fill="#B9744D" opacity="1.000000" stroke="none" 
	d="
M67.742477,121.899788 
	C68.644226,123.265381 69.317314,124.481575 70.087639,125.873466 
	C66.418083,129.174362 62.520622,128.146805 58.190430,127.106567 
	C56.837948,126.610817 55.917614,126.122803 55.301010,125.138077 
	C58.009796,124.063850 60.414845,123.486328 63.187729,122.935867 
	C64.375145,122.326340 65.194725,121.689751 66.026596,121.035583 
	C66.038887,121.017998 66.071091,120.988823 66.071091,120.988831 
	C66.551994,121.242683 67.032898,121.496536 67.742477,121.899788 
z"/>
<path fill="#9F7469" opacity="1.000000" stroke="none" 
	d="
M61.729462,118.956169 
	C62.685852,118.941658 63.393208,118.950150 64.451317,118.929108 
	C65.142365,119.408073 65.482666,119.916588 65.947029,120.706963 
	C66.071091,120.988823 66.038887,121.017998 65.706703,121.043106 
	C64.585297,121.375755 63.796066,121.683311 62.827805,121.721756 
	C62.092598,120.628807 61.536427,119.804962 60.980251,118.981117 
	C61.146976,118.980476 61.313702,118.979828 61.729462,118.956169 
z"/>
<path fill="#FEFEFE" opacity="1.000000" stroke="none" 
	d="
M188.235596,83.430191 
	C188.722366,82.328224 189.446747,81.650154 190.519470,81.001785 
	C190.901520,81.582558 190.935211,82.133636 191.011261,83.095924 
	C190.193497,83.622787 189.333344,83.738434 188.235596,83.430191 
z"/>
<path fill="#BCAAA4" opacity="1.000000" stroke="none" 
	d="
M77.352615,113.999565 
	C76.290527,111.278290 75.632980,108.558533 74.982239,105.422913 
	C80.120041,104.265701 85.251022,103.524330 90.708313,103.174797 
	C91.066895,103.745415 91.099182,103.924202 91.068497,104.479210 
	C90.305138,108.751564 89.713814,112.720016 84.943192,113.658768 
	C84.261414,113.243271 83.617065,113.111259 82.972717,112.979248 
	C82.972717,112.979248 82.474670,112.998428 82.013306,113.119263 
	C81.294350,113.428001 81.106171,113.669930 80.987411,113.965874 
	C79.910660,113.977608 78.833900,113.989342 77.352615,113.999565 
z"/>
<path fill="#D49082" opacity="1.000000" stroke="none" 
	d="
M82.978729,113.340942 
	C83.617065,113.111259 84.261414,113.243271 84.954941,113.986740 
	C85.732002,115.852959 86.459885,117.107704 87.187767,118.362457 
	C86.271271,119.054527 85.354767,119.746597 84.194611,120.706665 
	C83.076096,120.044960 82.201241,119.115242 81.362000,118.223366 
	C81.924980,116.654984 82.454865,115.178810 82.978729,113.340942 
z"/>
<path fill="#D49082" opacity="1.000000" stroke="none" 
	d="
M81.204102,113.879189 
	C81.106171,113.669930 81.294350,113.428001 81.766464,113.153503 
	C81.879051,113.374229 81.692322,113.616096 81.204102,113.879189 
z"/>
<path fill="#FEFEFE" opacity="1.000000" stroke="none" 
	d="
M175.394669,53.020885 
	C175.066330,52.668983 175.030548,52.181572 175.002594,51.328239 
	C175.236023,51.603340 175.461624,52.244362 175.394669,53.020885 
z"/>
<path fill="#43272F" opacity="1.000000" stroke="none" 
	d="
M60.989887,118.994171 
	C61.536427,119.804962 62.092598,120.628807 62.776360,121.950348 
	C62.903946,122.448036 62.819893,122.908806 62.819893,122.908806 
	C60.414845,123.486328 58.009796,124.063850 55.249474,124.788300 
	C54.519829,124.925499 54.145447,124.915756 53.222565,124.648727 
	C50.774139,124.601288 48.874222,124.811150 46.974304,125.021011 
	C46.540115,125.020287 46.105927,125.019562 45.347389,125.042770 
	C44.583836,123.602531 44.144627,122.138367 44.229172,120.489395 
	C46.480858,120.353470 48.226048,120.580284 49.933174,120.414688 
	C53.642681,120.054871 57.332760,119.494743 61.030785,119.016510 
	C61.030785,119.016518 60.999523,119.007225 60.989887,118.994171 
z"/>
<path fill="#785051" opacity="1.000000" stroke="none" 
	d="
M47.218452,125.291275 
	C48.874222,124.811150 50.774139,124.601288 52.940941,124.652756 
	C51.292751,125.129913 49.377678,125.345734 47.218452,125.291275 
z"/>
<path fill="#EADAE5" opacity="1.000000" stroke="none" 
	d="
M96.626450,97.086914 
	C97.401955,99.055679 97.762009,101.032990 98.468933,103.188599 
	C95.444939,105.365707 96.416359,108.398705 96.964226,111.298584 
	C97.331306,113.241531 97.811081,115.163185 98.334671,117.491386 
	C97.212715,117.965096 95.996521,118.041779 94.352676,117.557999 
	C93.890739,114.873779 94.053398,112.723961 93.776344,110.632370 
	C93.352837,107.435127 92.625847,104.278084 92.027695,101.103973 
	C91.126167,100.671852 90.224648,100.239723 88.238678,99.287781 
	C89.555542,98.459877 90.527809,97.848618 91.789223,97.097305 
	C93.455910,97.003319 94.833450,97.049393 96.626450,97.086914 
z"/>
<path fill="#37233B" opacity="1.000000" stroke="none" 
	d="
M87.420044,118.380867 
	C86.459885,117.107704 85.732002,115.852959 84.992371,114.270233 
	C89.713814,112.720016 90.305138,108.751564 91.374786,104.734482 
	C91.483932,109.024109 91.223808,113.434685 90.963684,117.845261 
	C90.384903,117.961067 89.806122,118.076866 88.962921,118.324051 
	C88.698502,118.455429 88.680573,118.503143 88.528046,118.482758 
	C88.375511,118.462379 88.089394,118.560936 88.089394,118.560936 
	C88.089394,118.560936 87.652321,118.399277 87.420044,118.380867 
z"/>
<path fill="#5F536D" opacity="1.000000" stroke="none" 
	d="
M91.326103,117.904434 
	C91.223808,113.434685 91.483932,109.024109 91.437759,104.358261 
	C91.099182,103.924202 91.066895,103.745415 91.032394,103.294159 
	C91.339378,102.569893 91.648582,102.118080 91.992737,101.385117 
	C92.625847,104.278084 93.352837,107.435127 93.776344,110.632370 
	C94.053398,112.723961 93.890739,114.873779 93.906265,117.453125 
	C93.154510,117.927032 92.421516,117.945328 91.326103,117.904434 
z"/>
<path fill="#D49082" opacity="1.000000" stroke="none" 
	d="
M88.113899,118.788071 
	C88.089394,118.560936 88.375511,118.462379 88.517090,118.505768 
	C88.485252,118.704514 88.311829,118.859863 88.113899,118.788071 
z"/>
<path fill="#9F7469" opacity="1.000000" stroke="none" 
	d="
M60.897186,118.707230 
	C57.332760,119.494743 53.642681,120.054871 49.933174,120.414688 
	C48.226048,120.580284 46.480858,120.353470 44.389847,120.168182 
	C43.720875,119.901794 43.466587,119.705124 43.157238,119.224037 
	C44.026936,113.921265 45.003300,108.836212 45.990486,103.321800 
	C46.211067,102.637924 46.420818,102.383392 46.887703,102.098755 
	C49.774139,106.081879 52.403446,110.095100 54.727303,114.492607 
	C52.046368,112.898460 49.670876,110.920036 47.402714,109.030998 
	C46.946682,110.461876 46.358315,111.969696 46.001423,113.530449 
	C45.693207,114.878326 45.045574,117.038452 45.621418,117.499855 
	C46.600304,118.284210 48.418972,118.091400 49.891972,118.165367 
	C51.035934,118.222824 52.447937,118.445114 53.271851,117.893578 
	C54.174885,117.289078 54.539761,115.880653 55.139149,114.822556 
	C57.013962,116.014351 58.888779,117.206154 60.897186,118.707230 
z"/>
<path fill="#AE8069" opacity="1.000000" stroke="none" 
	d="
M97.470932,84.035599 
	C98.121109,84.545815 98.429199,85.028435 98.738297,85.797050 
	C95.599022,86.428268 91.529114,84.102089 89.942474,89.488480 
	C89.609482,88.130867 89.348610,86.403938 89.551369,84.313934 
	C91.700928,83.993195 93.386841,84.035530 95.072762,84.077866 
	C95.758125,84.054573 96.443497,84.031288 97.470932,84.035599 
z"/>
<path fill="#4B2524" opacity="1.000000" stroke="none" 
	d="
M95.015617,83.701622 
	C93.386841,84.035530 91.700928,83.993195 89.596893,83.909546 
	C89.011169,83.501228 88.843552,83.134232 88.571335,82.483734 
	C90.851944,81.298462 93.388077,79.525940 95.015617,83.701622 
z"/>
<path fill="#DBC5C7" opacity="1.000000" stroke="none" 
	d="
M81.461212,89.085815 
	C80.985985,90.147514 80.156342,91.152100 79.326698,92.156693 
	C78.879608,91.550117 78.432526,90.943542 77.985435,90.336967 
	C79.025887,89.900887 80.066345,89.464806 81.461212,89.085815 
z"/>
<path fill="#D79D8D" opacity="1.000000" stroke="none" 
	d="
M80.838913,79.925201 
	C80.346901,80.763016 79.854897,81.600838 79.178505,82.693069 
	C78.582146,82.945099 78.170158,82.942719 77.451759,82.927170 
	C77.083115,82.207344 77.020882,81.500694 76.932785,80.441422 
	C76.906929,80.088799 76.984581,80.013840 77.400497,80.002548 
	C78.823921,79.969238 79.831421,79.947220 80.838913,79.925201 
z"/>
<path fill="#EB8F70" opacity="1.000000" stroke="none" 
	d="
M80.891243,79.607834 
	C79.831421,79.947220 78.823921,79.969238 77.438766,79.964493 
	C76.560585,79.046989 76.060066,78.156242 75.275337,77.114243 
	C74.991127,76.962982 74.996490,76.482758 74.997025,76.242661 
	C76.806770,76.585266 78.615974,77.167969 80.719566,77.877701 
	C80.990486,78.433304 80.967026,78.861893 80.891243,79.607834 
z"/>
<path fill="#D79D8D" opacity="1.000000" stroke="none" 
	d="
M121.208313,113.785744 
	C120.599228,113.876602 120.353348,113.681274 120.065689,113.189018 
	C119.969681,112.536217 119.980011,112.099060 120.243484,111.120308 
	C120.346252,109.009338 120.195877,107.439964 120.045502,105.870583 
	C120.476074,105.879913 120.906631,105.889244 121.659683,105.907974 
	C122.233231,106.431877 122.484291,106.946365 122.843582,107.725204 
	C122.470192,109.853317 121.988586,111.717087 121.208313,113.785744 
z"/>
<path fill="#CBA59D" opacity="1.000000" stroke="none" 
	d="
M119.862206,105.649963 
	C120.195877,107.439964 120.346252,109.009338 120.243805,110.792084 
	C119.333702,109.230034 118.676430,107.454628 118.032455,105.301270 
	C118.590126,105.091988 119.134514,105.260666 119.862206,105.649963 
z"/>
<path fill="#D5C2BF" opacity="1.000000" stroke="none" 
	d="
M118.955124,64.130600 
	C119.002144,65.454216 119.049164,66.777840 119.103653,68.493683 
	C119.111107,68.885902 118.642616,68.928871 118.411446,68.961929 
	C117.841805,68.561203 117.503334,68.127419 117.400887,67.200470 
	C118.076317,65.848412 118.515717,64.989502 118.955124,64.130600 
z"/>
<path fill="#D78F77" opacity="1.000000" stroke="none" 
	d="
M119.079773,63.847706 
	C118.515717,64.989502 118.076317,65.848412 117.415207,66.913101 
	C116.325050,65.627769 115.456612,64.136658 114.751587,62.430676 
	C116.048874,62.479851 117.182747,62.743896 118.673927,62.989609 
	C119.088966,63.169121 119.146690,63.366966 119.079773,63.847706 
z"/>
<path fill="#AE8069" opacity="1.000000" stroke="none" 
	d="
M119.618408,60.429234 
	C119.788116,61.115360 119.692955,61.961418 119.293121,62.920979 
	C119.110138,62.219376 119.231842,61.404270 119.618408,60.429234 
z"/>
<path fill="#AE8069" opacity="1.000000" stroke="none" 
	d="
M63.187729,122.935867 
	C62.819893,122.908806 62.903946,122.448036 62.955391,122.219452 
	C63.796066,121.683311 64.585297,121.375755 65.694412,121.060684 
	C65.194725,121.689751 64.375145,122.326340 63.187729,122.935867 
z"/>
<path fill="#B9744D" opacity="1.000000" stroke="none" 
	d="
M55.116142,114.835693 
	C54.539761,115.880653 54.174885,117.289078 53.271851,117.893578 
	C52.447937,118.445114 51.035934,118.222824 49.891972,118.165367 
	C48.418972,118.091400 46.600304,118.284210 45.621418,117.499855 
	C45.045574,117.038452 45.693207,114.878326 46.001423,113.530449 
	C46.358315,111.969696 46.946682,110.461876 47.402714,109.030998 
	C49.670876,110.920036 52.046368,112.898460 54.785816,114.835602 
	C55.149776,114.794312 55.093132,114.848831 55.116142,114.835693 
z"/>
</svg>